<?xml version="1.0" encoding="utf-8"?>
<!-- Generator: Adobe Illustrator 16.0.0, SVG Export Plug-In . SVG Version: 6.00 Build 0)  -->
<!DOCTYPE svg PUBLIC "-//W3C//DTD SVG 1.1//EN" "http://www.w3.org/Graphics/SVG/1.1/DTD/svg11.dtd">
<svg version="1.1" id="Layer_1" xmlns="http://www.w3.org/2000/svg" xmlns:xlink="http://www.w3.org/1999/xlink" x="0px" y="0px"
	 width="775.818px" height="685.311px" viewBox="0 0 775.818 685.311" enable-background="new 0 0 775.818 685.311"
	 xml:space="preserve">
<circle fill="#FFF422" cx="148.067" cy="148.067" r="146.067"/>
<path fill="#2E74FF" d="M773.284,658.259c0,14.388-11.664,26.052-26.053,26.052H485.336c-14.389,0-26.053-11.664-26.053-26.052
	V396.363c0-14.388,11.664-26.052,26.053-26.052h261.895c14.389,0,26.053,11.664,26.053,26.052V658.259z"/>
<path fill="#54FF24" d="M222.284,663.311c0,11.046-8.954,20-20,20h-112c-11.046,0-20-8.954-20-20v-302c0-11.046,8.954-20,20-20h112
	c11.046,0,20,8.954,20,20V663.311z"/>
<g>
	<path fill="#FF280B" d="M768.44,318.138c9.357,9.358,6.186,17.173-7.048,17.173H464.833c-13.233,0-24.55-11.146-24.55-24.38V14.373
		c0-13.234,7.9-16.326,17.258-6.968L768.44,318.138z"/>
	<path fill="#FF280B" d="M768.44,318.138c9.357,9.358,6.186,17.173-7.048,17.173H464.833c-13.233,0-24.55-11.146-24.55-24.38V14.373
		c0-13.234,7.9-16.326,17.258-6.968L768.44,318.138z"/>
</g>
</svg>
