<?xml version="1.0" encoding="utf-8"?>
<!-- Generator: Adobe Illustrator 24.0.3, SVG Export Plug-In . SVG Version: 6.00 Build 0)  -->
<svg version="1.1" id="Layer_1" xmlns="http://www.w3.org/2000/svg" xmlns:xlink="http://www.w3.org/1999/xlink" x="0px" y="0px"
	 viewBox="0 0 470.1 450.1" style="enable-background:new 0 0 470.1 450.1;" xml:space="preserve">
<g id="skin">
	<path style="fill:#E70000;" d="M219.7,117.6C187,94.4,160.9,90.2,115.2,90.4 c-45,0.2-89.8,18.2-104.5,56.5C-4,185.1-4.6,224.1,19.2,282.5s65.2,108.4,116.4,141.4c51.9,33.3,91.5,11.1,110.3,11.1 c78.1,17.5,119.4,24.8,158.6-5.5c38.3-29.6,43.2-43,54.5-80.1c11.5-37.7,10.4-113.3-0.7-165.7s-40-75.8-92.4-92.5 C313.5,74.4,259.4,87,219.7,117.6L219.7,117.6z"/>
</g>
<g id="outline">
	<path d="M460.2,194.5c-15.5-49.1-31.8-88-86.2-104.9c-45.6-14.1-89.5-5.7-138,26.2c-5.8-49.3-2.7-114.5-2.6-115.3v-0.8L232.7,0
		c-3.5,1.2-9.6,2-16.6,2.9c-18.5,2.5-43.9,5.9-47.7,19.3v0.5l0.3,0.2c12.9,8,28.3,48.3,38.7,79.5c-20.9-8-43.3-9.6-73.8-9.3
		c-24.3,0.3-47.6,5.2-67.4,14.4c-22.2,10.2-38.9,25.4-48.4,43.9C-3.5,192.7-5.4,232.9,11,285.8c17.7,56.8,54.3,105.7,103.1,137.6
		c39.1,25.6,75.3,17.9,96.9,13.4c5.8-1.2,10.9-2.3,14.5-2.5c37.8,8.1,67.1,13.8,92.6,13.8c25.8,0,47.6-5.9,70-21.5
		c39.9-27.6,51.4-51.5,62.6-74.5c0.8-1.6,1.6-3.2,2.3-4.8C469.8,313.2,477.7,249.8,460.2,194.5z M440.9,341.3
		c-0.8,1.6-1.6,3.2-2.4,4.9c-10.4,21.5-21.2,43.7-58.1,69.3c-40.1,27.8-77.9,21.3-152.8,5.4c-0.5-0.1-0.9-0.1-1.4-0.1c0,0,0,0-0.1,0
		c-5,0-11,1.3-17.9,2.8c-22,4.7-52.2,11.1-86.6-11.4C75.4,381.8,40.7,335.5,24,281.7c-15.5-49.9-13.9-85.8,5.7-124.2
		c8.1-15.8,22.6-28.8,42-37.8c18.1-8.3,39.5-12.9,61.9-13.1c34.6-0.4,57,1.7,79.2,13c3.7,12.1,6,20.4,6.1,20.7l0.1,0.1
		c0.2,0.3,2.5,3.4,21.4,4.4h0.7l-0.2-0.7c-1.1-4.2-2-8.7-2.8-13.5c0,0,0.1,0,0.1-0.1c46.9-32.4,88.7-41.3,131.7-28
		c48.3,14.9,62.5,49.2,77.3,96C463.7,250.5,456.5,309.6,440.9,341.3z"/>
	<g id="shine">
		<g>
			<path style="fill-rule:evenodd;clip-rule:evenodd;fill:#FFFFFF;" d="M406.7,312.5c2.4-1.1-7.2,69.5-97.4,89.4
				C332.4,385.8,392.1,362,406.7,312.5z"/>
		</g>
	</g>
</g>
</svg>
