<?xml version="1.0" encoding="UTF-8" standalone="no"?>
<svg xmlns:inkscape="http://www.inkscape.org/namespaces/inkscape" xmlns:rdf="http://www.w3.org/1999/02/22-rdf-syntax-ns#" xmlns="http://www.w3.org/2000/svg" xmlns:osb="http://www.openswatchbook.org/uri/2009/osb" xmlns:sodipodi="http://sodipodi.sourceforge.net/DTD/sodipodi-0.dtd" xmlns:cc="http://creativecommons.org/ns#" xmlns:xlink="http://www.w3.org/1999/xlink" xmlns:dc="http://purl.org/dc/elements/1.1/" xmlns:svg="http://www.w3.org/2000/svg" xmlns:ns1="http://sozi.baierouge.fr" id="0" sodipodi:docname="Creature.svg" viewBox="0 0 354.33 354.33" version="1.0" inkscape:version="0.48.0 r9654">
    <defs id="defs3061">
        <linearGradient id="linearGradient5046">
            <stop id="stop5048" style="stop-color:#ffffff" offset="0" />
            <stop id="stop5056" style="stop-color:#c0ffff" offset=".5" />
            <stop id="stop5050" style="stop-color:#19ffff" offset="1" />
        </linearGradient>
        <linearGradient id="linearGradient4988">
            <stop id="stop4990" style="stop-color:#ffb380" offset="0" />
            <stop id="stop4996" style="stop-color:#f4e3d7" offset=".48134" />
            <stop id="stop4992" style="stop-color:#ffb380" offset="1" />
        </linearGradient>
        <radialGradient id="radialGradient7172" gradientUnits="userSpaceOnUse" cy="-20.573" cx="376.57" gradientTransform="matrix(.95357 -.21861 .19978 0.95 -167.59 490.11)" r="21.714" inkscape:collect="always">
            <stop id="stop3933" style="stop-color:#ffffff" offset="0" />
            <stop id="stop3935" style="stop-color:#fa5486" offset="1" />
        </radialGradient>
        <linearGradient id="linearGradient4994" y2="393.68" xlink:href="#linearGradient4988" gradientUnits="userSpaceOnUse" x2="108.27" gradientTransform="translate(5 17)" y1="394.31" x1="98.477" inkscape:collect="always" />
        <linearGradient id="linearGradient5000" y2="393.68" xlink:href="#linearGradient4988" gradientUnits="userSpaceOnUse" x2="108.27" gradientTransform="matrix(.99996 .0087444 -.0087444 .99996 21.835 16.248)" y1="394.31" x1="98.477" inkscape:collect="always" />
        <linearGradient id="linearGradient5004" y2="393.68" xlink:href="#linearGradient4988" gradientUnits="userSpaceOnUse" x2="108.27" gradientTransform="matrix(.99951 -.031313 .031313 .99951 20.528 19.617)" y1="394.31" x1="98.477" inkscape:collect="always" />
        <linearGradient id="linearGradient5024" y2="393.68" xlink:href="#linearGradient4988" gradientUnits="userSpaceOnUse" x2="108.27" gradientTransform="matrix(.99442 .10552 -.10552 .99442 87.646 6.9163)" y1="394.31" x1="98.477" inkscape:collect="always" />
        <linearGradient id="linearGradient5028" y2="393.68" xlink:href="#linearGradient4988" gradientUnits="userSpaceOnUse" x2="108.27" gradientTransform="matrix(.97968 .20057 -.20057 .97968 139.59 3.2764)" y1="394.31" x1="98.477" inkscape:collect="always" />
        <radialGradient id="radialGradient5054" xlink:href="#linearGradient5046" gradientUnits="userSpaceOnUse" cy="65.102" cx="82.67" gradientTransform="matrix(1.5549 -.048239 .043119 1.3899 -48.089 -21.105)" r="22.627" inkscape:collect="always" />
    </defs>
    <sodipodi:namedview id="namedview3059" inkscape:zoom="1" borderopacity="1" inkscape:current-layer="layer1" inkscape:cx="274.81931" inkscape:guide-bbox="true" inkscape:snap-grids="false" inkscape:window-maximized="1" showgrid="false" units="cm" showguides="true" bordercolor="#666666" inkscape:window-x="-4" guidetolerance="10" objecttolerance="10" inkscape:window-y="-4" inkscape:window-width="1440" inkscape:pageopacity="0" inkscape:pageshadow="2" pagecolor="#ffffff" gridtolerance="10" inkscape:cy="173.26201" inkscape:window-height="844">
        <inkscape:grid id="grid6108" enabled="true" visible="true" snapvisiblegridlinesonly="true" type="xygrid" empspacing="5" />
    </sodipodi:namedview>
    <g id="layer1" inkscape:label="01" inkscape:groupmode="layer" transform="translate(0 -261.42)">
        <path id="path7189" style="fill:#ff0000" inkscape:connector-curvature="0" d="m139.91 415.62c-5.0188 1.6548-10.039 3.1905-15.578 2.9618-11.634-0.48039-21.335-9.9694-32.739-10.44-12.991-0.53643-18.409 3.6499-29.808 7.8734-5.9075 2.1887-13.406-0.50671-19.336-0.12341-8.5341 0.55164-10.984 12.763-1.5129 16.734 4.5419 1.9043 11.451 5.0187 23.142 2.8877 6.9324-1.2636 15.848-8.6323 22.906-9.0828 10.33-0.65932 24.099 8.0143 35.032 8.4657 6.9767 0.28809 13.283-1.8702 19.644-3.7516-0.0545-0.90588-0.13878-1.805-0.16548-2.715-0.0536-1.8288-0.0867-3.6409-0.16547-5.3559-0.0788-1.715-0.20936-3.3119-0.49641-4.7388-0.14352-0.71348-0.31372-1.3904-0.54368-1.9992-0.1002-0.26512-0.25859-0.47345-0.37822-0.71576z" />
        <path id="path5002" style="fill:url(#linearGradient5004)" d="m135.26 416.07c-1.259-1.7098-2.7292-3.7879-3.5802-5.2561-1.5428-2.6618-3.8849-8.3724-3.8849-8.3724l13.838-0.8488s-2.3421 5.7732-3.0343 8.7968c-0.32714 1.4289-0.73078 3.6042-0.763 5.4388-0.0589 3.3544-0.88024 2.5447-2.576 0.24164z" inkscape:transform-center-x="0.78818498" inkscape:transform-center-y="2.6182454" inkscape:connector-curvature="0" sodipodi:nodetypes="ssccsss" />
        <path id="path4477" style="fill:url(#linearGradient4994)" d="m107.26 416.85c-1.2048-1.7484-2.6093-3.8715-3.4138-5.3656-1.4587-2.7088-3.6208-8.49-3.6208-8.49l13.858-0.41506s-2.5217 5.6971-3.3083 8.6975c-0.37173 1.418-0.84328 3.5796-0.93294 5.4122-0.16394 3.3509-0.95949 2.5159-2.5823 0.16089z" inkscape:transform-center-x="0.62499998" inkscape:transform-center-y="2.7399841" inkscape:connector-curvature="0" sodipodi:nodetypes="ssccsss" />
        <path id="path7178" style="fill:#d40000" inkscape:connector-curvature="0" d="m139.91 415.62c0.11963 0.24231 0.27808 0.45064 0.37822 0.71576 0.22996 0.60883 0.40016 1.2857 0.54368 1.9992 0.28705 1.427 0.41766 3.0239 0.49641 4.7388 0.0788 1.715 0.11177 3.5271 0.16547 5.3559 0.0267 0.90999 0.11107 1.8091 0.16548 2.715 4.869-1.4403 9.7616-2.7352 15.034-2.5175 4.3824 0.18096 12.138 0.3432 15.176 3.7763 2.0189 2.2815 6.0681 3.0314 5.5787 3.0111-0.19087-0.008 0.39109-1.3169 0.42549-1.3822 0.48516-0.92029 0.48239-3.1274 0.52005-4.1218 0.10717-2.8295 0.57872-6.8023 1.702-9.4283-9-4.2189-19.584-10.123-30.376-7.7747-3.3643 0.73203-6.5838 1.8487-9.81 2.9124z" />
        <path id="path5026" style="fill:url(#linearGradient5028)" d="m159.57 415.51c-0.82967-1.9545-1.7797-4.3161-2.2683-5.9413-0.88573-2.9464-1.8444-9.0437-1.8444-9.0437l13.66 2.3729s-3.6131 5.0755-4.9855 7.8572c-0.64858 1.3146-1.5441 3.3377-1.9995 5.1151-0.83267 3.25-1.4446 2.2723-2.5621-0.36034z" inkscape:transform-center-x="-0.20039" sodipodi:nodetypes="ssccsss" inkscape:transform-center-y="5.4370839" inkscape:connector-curvature="0" />
        <path id="path5022" style="fill:url(#linearGradient5024)" d="m147.15 415.32c-1.0136-1.8658-2.1862-4.1252-2.8286-5.6959-1.1647-2.8476-2.7047-8.8247-2.7047-8.8247l13.825 1.0495s-3.1088 5.3992-4.2076 8.2999c-0.51927 1.3708-1.2163 3.4706-1.4988 5.2836-0.51657 3.3149-1.2196 2.4006-2.5849-0.11251z" inkscape:transform-center-x="-0.28761" sodipodi:nodetypes="ssccsss" inkscape:transform-center-y="5.7790451" inkscape:connector-curvature="0" />
        <path id="path4998" style="fill:url(#linearGradient5000)" d="m120.6 416.98c-1.1895-1.7589-2.5753-3.8941-3.3668-5.3952-1.4349-2.7215-3.582-9.0947-3.582-9.0947l6.9306-0.14694 6.9306-0.14693s-2.5359 6.2482-3.3487 9.2417c-0.38412 1.4147-0.87455 3.572-0.98023 5.4039-0.19323 3.3494-0.98145 2.5074-2.5836 0.13827z" inkscape:transform-center-x="0.115755" sodipodi:nodetypes="cscccsssc" inkscape:transform-center-y="6.4188516" inkscape:connector-curvature="0" />
        <path id="path7121" sodipodi:nodetypes="cccsccsccsccsccsccscsccssssssssssssssssssc" style="fill:#b3b3b3" inkscape:connector-curvature="0" d="m209.5 328.11c-29.521-0.17492-60.011 12.801-50.844 47.812-0.97626 0.24097-1.7442 1.0598-1.9375 2.0938-16.785-2.8245-54.917-8.5372-59.062 10.562-0.58154 2.6795-1.213 17.172 1.4062 18.812 0.64481 0.60639 1.3683 0.73807 2.0625 0.0312 1.0016-2.2899 3.4177-3.9062 6.25-3.9062 2.6171 0 4.13 1.1401 5.25 3.1562 0.49416 0.7373 1.8672 0.70185 2.25-0.0937 0.95171-2.3836 3.22-3.8125 6.125-3.8125 2.6335 0 4.3094 1.0726 5.4219 3.1094 0.28479 0.60728 2.0248 0.63176 2.4062 0 1.1272-1.9956 3.3212-3.1094 5.9219-3.1094 2.5629 0 4.5285 0.99718 5.6723 2.9406 0.32009 0.6753 1.7434 0.70379 2.1042 0.20798 1.1945-1.743 2.8234-2.7737 5.2235-2.7737 2.734 0 4.4993 0.93417 5.5625 3.0938 0.23849 0.80917 2.271 0.81228 2.6875 0.28125 1.2183-1.6013 1.8996-2.6914 5.1875-2.1875 3.3371 0.51143 4.463 2.4519 4.9062 4.5625 0.31094 1.5292 1.6241 0.48253 3.6562 1.5938 8.4741 4.6338 9.9123 27.676-1.4688 29.656-28.796 7.4733-61.906-0.1875-61.906-0.1875s-4.9958 5.3391-3.8125 10.281c8.0529 33.633 76.403 0.40818 69.531 36.281-4.621 24.124-62.269 9.4239-74.906 35.812-3.9785 8.308-0.65625 25.615-0.65625 34.469 0 7.9597 0.49034 22.356 6.375 28.5 6.1525 6.4239 12.525 7.2812 20.938 7.2812 37.871 0 8.9643-46.238 33-62.969 2.4274-1.6896 9.5307-3.648 12.688-2 19.858 10.367 0.89975 56.629 26.656 64.312 49.456 14.754 1.3145-63.194 29.219-72.906 20.907-7.2763 13.558 45.273 30.469 49.688 28.494 7.4378 8.6493-49.588 13.969-66.25 8.7077-27.276 25.697 31.648 29.844 33.812 17.196 8.9773 23.33-15.763 19.656-29.188-12.432-45.43-59-17.845-59-73.562 0-11.61 6.6824-21.927 8.2188-33.156 3.262-23.842-2.7909-56.283-26.656-66.25-8.8982-3.7163-20.576-5.9299-32.406-6z" />
        <path id="path7123" sodipodi:nodetypes="cszzc" style="fill:#e6e6e6" inkscape:connector-curvature="0" d="m251.56 407.49c-18.547 6.4552-13.369-13.415-20.354-29.294-7.7903-17.709-23.119-4.2621-25.855-25.847-2.7362-21.585 39.999-20.513 51.19 3.1071 11.19 23.62 8.9964 46.093-4.9801 52.034z" />
        <path id="path7127" sodipodi:nodetypes="sssss" style="fill-rule:evenodd;fill:#e6e6e6" inkscape:connector-curvature="0" d="m313.78 501.56c3.6978 8.7993 2.551 18.386-0.90031 19.967-3.4512 1.5811-4.4233-6.8382-8.1211-15.638-3.6977-8.7993-16.209-21.069-12.758-22.65 3.4513-1.5811 18.082 9.5212 21.779 18.32z" />
        <path id="path7140" sodipodi:nodetypes="sssss" style="fill-rule:evenodd;fill:#e6e6e6" inkscape:connector-curvature="0" d="m267.74 533.95c1.7898 11.218-1.0492 22.609-5.3891 23.385-4.3399 0.77613-3.1884-9.9143-4.9782-21.132s-5.5756-27.093-1.2358-27.869c4.3399-0.77614 9.8133 14.399 11.603 25.617z" />
        <path id="path7146" style="fill-rule:evenodd;fill:url(#radialGradient7172)" inkscape:connector-curvature="0" d="m201.13 386.38c0 9.4718-7.354 17.15-16.425 17.15-9.0716 0-16.425-7.6784-16.425-17.15 0-9.4718 7.3539-17.15 16.425-17.15 9.0715 0 16.425 7.6784 16.425 17.15z" />
        <path id="path7151" sodipodi:nodetypes="scsccsss" style="fill:#f2f2f2" inkscape:connector-curvature="0" d="m190.05 364.85c-3.2602 0-6.1892-0.0806-8.7284 1.6459 0.66076-0.0666 2.5836-0.39901 3.2612-0.39901 5.6775 0 11.582 2.69 15.3 6.5569 6.338 9.0192 5.3227 11.992 3.8349 17.933 1.5683-2.5905 2.4938-5.6406 2.4938-8.9279 0-9.2846-7.2345-16.808-16.162-16.808z" />
        <path id="path7156" d="m179.53 408.57c3.2139 0 6.1013 0.0798 8.6044-1.629-0.65138 0.0659-2.5469 0.39491-3.2148 0.39491-5.5968 0-11.418-2.6623-15.083-6.4894-6.248-8.9263-5.2471-11.869-3.7804-17.748-1.546 2.5638-2.4584 5.5825-2.4584 8.836 0 9.1889 7.1317 16.635 15.932 16.635z" sodipodi:nodetypes="scsccsss" style="fill:#999999" inkscape:connector-curvature="0" />
        <path id="path7158" sodipodi:nodetypes="sssss" style="fill-rule:evenodd;fill:#000000" inkscape:connector-curvature="0" d="m180.87 387.4c0 5.8526 0.39232 10.597-0.85575 10.597-1.248 0-3.6639-4.7445-3.6639-10.597 0-5.8526 2.4158-10.597 3.6639-10.597s0.85575 4.7444 0.85575 10.597z" />
        <path id="path7164" sodipodi:nodetypes="csssc" style="fill-opacity:.66129;fill:#ebffff" inkscape:connector-curvature="0" d="m181.65 385.2c-2.9785-0.62305-4.7288-1.6624-2.175-4.027 2.6055-2.4125 7.5215-6.476 9.9588-4.1701 2.5951 2.4552 2.7334 5.2554 2.3078 6.8104-0.70401 2.5727-6.9997 1.94-10.092 1.3867z" />
        <path id="path7174" d="m213.71 556.12c3.6619 24.977-0.24692 30.164-7.7961 31.099-2.154-11.964-9.3432-63.399-3.807-63.79 4.3399-0.93598 9.6239 19.191 11.603 32.691z" sodipodi:nodetypes="sccs" style="fill-rule:evenodd;fill:#e6e6e6" inkscape:connector-curvature="0" />
        <path id="path7176" sodipodi:nodetypes="sssss" style="fill-rule:evenodd;fill:#e6e6e6" inkscape:connector-curvature="0" d="m140.04 556.77c-0.43337 13.711 1.7896 26.704-11.897 27.235-6.1392 0.23825-9.612-11.105-8.0047-24.72 2.6677-22.597 23.721-38.817 28.358-34.61 4.4204 4.0103-7.68 7.5227-8.4566 32.094z" />
        <path id="path7180" sodipodi:nodetypes="sscscssscscss" style="opacity:.88789;block-progression:tb;text-indent:0;color:#000000;text-transform:none;fill:#ffffff" inkscape:connector-curvature="0" d="m89.185 417.04c-9.0249 0.027-14.377 3.9863-19.856 7.0589-5.4795 3.0726-10.827 3.1936-20.707 0.6113-1.4867-0.29582-3.0972 0.84753-3.3804 2.3999s0.81198 3.2338 2.2988 3.5294c15.137 2.3333 17.505-0.55392 23.207-3.7516 5.7025-3.1977 10.244-6.6641 18.438-6.6887 2.921-0.009 7.2692 2.0894 12.41 4.5414 5.141 2.4519 11.156 5.1833 17.942 5.9482 0.79219 0.0842 1.5863-0.592 1.6667-1.4192 0.0805-0.82716-0.56723-1.6562-1.3594-1.7401-6.2106-0.70016-11.902-3.2227-16.996-5.652-5.0936-2.4293-9.5043-4.85-13.663-4.8376z" />
        <path id="path7197" sodipodi:nodetypes="csssssssssccsssssscsssccc" style="opacity:.88789;fill-rule:evenodd;stroke:#999999;stroke-width:.77294;fill:#999999" inkscape:connector-curvature="0" d="m115.4 591.76s-3.852-1.114-5.4747-1.8897c-8.3495-3.9912-11.468-9.7933-12.564-23.376-0.88636-10.986-1.6443-25.928-1.6392-32.314 0.01-11.851 3.4222-17.584 13.583-22.819 5.7947-2.9856 11.986-4.6423 27.34-7.3166 15.965-2.7805 19.158-3.5174 24.407-5.6306 5.6148-2.2608 9.6265-6.1479 10.848-10.511 2.5626-9.152-0.62557-15.957-8.635-18.431-4.6306-1.4303-10.161-2.1282-20.201-2.5494-21.008-0.88115-28.761-2.5267-34.902-7.4087-1.3601-1.8514-6.3813-8.0879-2.406-5.7209 6.6354 2.6252 16.269 3.9896 35.436 5.0187 19.976 1.0726 28.561 1.7257 33.601 2.5561 8.6533 1.4257 15.413 4.3866 16.872 7.3906 2.4092 4.9598 3.7366 18.735 2.5634 26.603-0.83647 5.6099-3.5365 8.0426-11.65 10.497-3.9908 1.207-4.9256-0.17477-16.782 1.0109-23.236 2.3236-51.775-1.1701-59.456 24.023-1.1724 3.8982-1.2506 5.0215-1.2221 17.568 0.0279 12.279 0.13389 13.778 1.2642 17.871 2.268 8.2131 5.0762 13.46 9.612 17.96 2.2346 2.217 5.5769 4.4026 9.8177 5.1127 2.78 0.76505 4.1423 1.1006 5.8356 1.9156-0.71909 0.75081-16.247 0.4404-16.247 0.4404z" />
        <path id="path7257" sodipodi:nodetypes="cssssccc" style="opacity:.88789;fill-rule:evenodd;fill:#999999" inkscape:connector-curvature="0" d="m158.38 374.65c-0.3024-0.4895-0.75729-3.8516-1.0643-6.6406-0.32353-2.9391-0.1405-7.8421 0.39074-10.468 0.86442-4.2723 2.4809-8.0756 4.8673-11.452 1.4558-2.0599 4.9162-5.577 6.9934-7.1083 1.6114-1.1879 5.5423-3.6136 5.6588-3.492-11.599 10.444-8.8188 27.289-5.0147 37.454-3.3683 5.6587-8.4468 3.9661-11.831 1.7071z" />
        <path id="use7413" sodipodi:rx="4.9497476" sodipodi:ry="4.9497476" style="opacity:.46188;fill-rule:evenodd;fill:#808000" sodipodi:type="arc" d="m75.66 484.56a4.9497 4.9497 0 1 1 -9.8995 0 4.9497 4.9497 0 1 1 9.8995 0z" transform="matrix(.79766 -.20428 .19565 .83286 28.167 55.286)" sodipodi:cy="484.55545" sodipodi:cx="70.710678" />
        <path id="use7415" sodipodi:rx="4.9497476" sodipodi:ry="4.9497476" style="opacity:.46188;fill-rule:evenodd;fill:#808000" sodipodi:type="arc" d="m75.66 484.56a4.9497 4.9497 0 1 1 -9.8995 0 4.9497 4.9497 0 1 1 9.8995 0z" transform="matrix(.79608 .023906 -.022896 .83120 154.88 27.519)" sodipodi:cy="484.55545" sodipodi:cx="70.710678" />
        <path id="use7417" sodipodi:rx="4.9497476" sodipodi:ry="4.9497476" style="opacity:.46188;fill-rule:evenodd;fill:#808000" sodipodi:type="arc" d="m75.66 484.56a4.9497 4.9497 0 1 1 -9.8995 0 4.9497 4.9497 0 1 1 9.8995 0z" transform="matrix(.70822 -.22376 .21430 .73947 58.593 97.403)" sodipodi:cy="484.55545" sodipodi:cx="70.710678" />
        <path id="use7419" sodipodi:rx="4.9497476" sodipodi:ry="4.9497476" style="opacity:.46188;fill-rule:evenodd;fill:#808000" sodipodi:type="arc" d="m75.66 484.56a4.9497 4.9497 0 1 1 -9.8995 0 4.9497 4.9497 0 1 1 9.8995 0z" transform="matrix(.68464 .34141 -.32698 .71484 309.54 74.955)" sodipodi:cy="484.55545" sodipodi:cx="70.710678" />
        <path id="use7421" sodipodi:rx="4.9497476" sodipodi:ry="4.9497476" style="opacity:.46188;fill-rule:evenodd;fill:#808000" sodipodi:type="arc" d="m75.66 484.56a4.9497 4.9497 0 1 1 -9.8995 0 4.9497 4.9497 0 1 1 9.8995 0z" transform="matrix(.66028 .17867 -.17112 .68941 254.69 105.58)" sodipodi:cy="484.55545" sodipodi:cx="70.710678" />
        <path id="use7423" sodipodi:rx="4.9497476" sodipodi:ry="4.9497476" style="opacity:.46188;fill-rule:evenodd;fill:#808000" sodipodi:type="arc" d="m75.66 484.56a4.9497 4.9497 0 1 1 -9.8995 0 4.9497 4.9497 0 1 1 9.8995 0z" transform="matrix(.62881 .35998 -.34477 .65656 343.3 96.132)" sodipodi:cy="484.55545" sodipodi:cx="70.710678" />
        <path id="use7425" sodipodi:rx="4.9497476" sodipodi:ry="4.9497476" style="opacity:.46188;fill-rule:evenodd;fill:#808000" sodipodi:type="arc" d="m75.66 484.56a4.9497 4.9497 0 1 1 -9.8995 0 4.9497 4.9497 0 1 1 9.8995 0z" transform="matrix(.77267 -.34863 .33390 .80676 15.872 79.514)" sodipodi:cy="484.55545" sodipodi:cx="70.710678" />
        <path id="use7427" sodipodi:rx="4.9497476" sodipodi:ry="4.9497476" style="opacity:.46188;fill-rule:evenodd;fill:#808000" sodipodi:type="arc" d="m75.66 484.56a4.9497 4.9497 0 1 1 -9.8995 0 4.9497 4.9497 0 1 1 9.8995 0z" transform="matrix(.69065 -.14690 .14069 .72112 117.9 81.778)" sodipodi:cy="484.55545" sodipodi:cx="70.710678" />
        <path id="use7429" sodipodi:rx="4.9497476" sodipodi:ry="4.9497476" style="opacity:.46188;fill-rule:evenodd;fill:#808000" sodipodi:type="arc" d="m75.66 484.56a4.9497 4.9497 0 1 1 -9.8995 0 4.9497 4.9497 0 1 1 9.8995 0z" transform="matrix(.81107 -.0033074 .0031677 .84686 160.57 15.213)" sodipodi:cy="484.55545" sodipodi:cx="70.710678" />
        <path id="use7431" sodipodi:rx="4.9497476" sodipodi:ry="4.9497476" style="opacity:.46188;fill-rule:evenodd;fill:#808000" sodipodi:type="arc" d="m75.66 484.56a4.9497 4.9497 0 1 1 -9.8995 0 4.9497 4.9497 0 1 1 9.8995 0z" transform="matrix(.85323 .059790 -.057263 .89088 176.65 -14.162)" sodipodi:cy="484.55545" sodipodi:cx="70.710678" />
        <path id="use7433" sodipodi:rx="4.9497476" sodipodi:ry="4.9497476" style="opacity:.46188;fill-rule:evenodd;fill:#808000" sodipodi:type="arc" d="m75.66 484.56a4.9497 4.9497 0 1 1 -9.8995 0 4.9497 4.9497 0 1 1 9.8995 0z" transform="matrix(.73639 -.32523 .31149 .76888 -12.865 65.462)" sodipodi:cy="484.55545" sodipodi:cx="70.710678" />
        <path id="use7435" sodipodi:rx="4.9497476" sodipodi:ry="4.9497476" style="opacity:.46188;fill-rule:evenodd;fill:#808000" sodipodi:type="arc" d="m75.66 484.56a4.9497 4.9497 0 1 1 -9.8995 0 4.9497 4.9497 0 1 1 9.8995 0z" transform="matrix(.74705 -.37564 .35977 .78001 -13.406 45.512)" sodipodi:cy="484.55545" sodipodi:cx="70.710678" />
        <path id="use7437" sodipodi:rx="4.9497476" sodipodi:ry="4.9497476" style="opacity:.46188;fill-rule:evenodd;fill:#808000" sodipodi:type="arc" d="m75.66 484.56a4.9497 4.9497 0 1 1 -9.8995 0 4.9497 4.9497 0 1 1 9.8995 0z" transform="matrix(.56109 .42557 -.40759 .58584 335.52 38.451)" sodipodi:cy="484.55545" sodipodi:cx="70.710678" />
        <path id="use7439" sodipodi:rx="4.9497476" sodipodi:ry="4.9497476" style="opacity:.46188;fill-rule:evenodd;fill:#808000" sodipodi:type="arc" d="m75.66 484.56a4.9497 4.9497 0 1 1 -9.8995 0 4.9497 4.9497 0 1 1 9.8995 0z" transform="matrix(.79355 -.19726 .18892 .82857 20.3 -21.042)" sodipodi:cy="484.55545" sodipodi:cx="70.710678" />
        <path id="use7441" sodipodi:rx="4.9497476" sodipodi:ry="4.9497476" style="opacity:.46188;fill-rule:evenodd;fill:#808000" sodipodi:type="arc" d="m75.66 484.56a4.9497 4.9497 0 1 1 -9.8995 0 4.9497 4.9497 0 1 1 9.8995 0z" transform="matrix(.79883 .24318 -.23290 .83407 223.03 -67.415)" sodipodi:cy="484.55545" sodipodi:cx="70.710678" />
        <path id="use7443" sodipodi:rx="4.9497476" sodipodi:ry="4.9497476" style="opacity:.46188;fill-rule:evenodd;fill:#808000" sodipodi:type="arc" d="m75.66 484.56a4.9497 4.9497 0 1 1 -9.8995 0 4.9497 4.9497 0 1 1 9.8995 0z" transform="matrix(.76542 -.38198 .36584 .79919 -79.073 29.588)" sodipodi:cy="484.55545" sodipodi:cx="70.710678" />
        <path id="use7445" sodipodi:rx="4.9497476" sodipodi:ry="4.9497476" style="opacity:.46188;fill-rule:evenodd;fill:#808000" sodipodi:type="arc" d="m75.66 484.56a4.9497 4.9497 0 1 1 -9.8995 0 4.9497 4.9497 0 1 1 9.8995 0z" transform="matrix(.84975 -.072341 .069285 .88724 41.724 -33.191)" sodipodi:cy="484.55545" sodipodi:cx="70.710678" />
        <path id="use7447" sodipodi:rx="4.9497476" sodipodi:ry="4.9497476" style="opacity:.46188;fill-rule:evenodd;fill:#808000" sodipodi:type="arc" d="m75.66 484.56a4.9497 4.9497 0 1 1 -9.8995 0 4.9497 4.9497 0 1 1 9.8995 0z" transform="matrix(.82899 -.14062 .13468 .86556 -2.4264 -25.819)" sodipodi:cy="484.55545" sodipodi:cx="70.710678" />
        <path id="use7449" sodipodi:rx="4.9497476" sodipodi:ry="4.9497476" style="opacity:.46188;fill-rule:evenodd;fill:#808000" sodipodi:type="arc" d="m75.66 484.56a4.9497 4.9497 0 1 1 -9.8995 0 4.9497 4.9497 0 1 1 9.8995 0z" transform="matrix(.72609 -.053289 .051037 .75813 58.645 16.841)" sodipodi:cy="484.55545" sodipodi:cx="70.710678" />
        <path id="use7451" sodipodi:rx="4.9497476" sodipodi:ry="4.9497476" style="opacity:.46188;fill-rule:evenodd;fill:#808000" sodipodi:type="arc" d="m75.66 484.56a4.9497 4.9497 0 1 1 -9.8995 0 4.9497 4.9497 0 1 1 9.8995 0z" transform="matrix(.75149 -.065383 .062621 .78465 29.552 14.052)" sodipodi:cy="484.55545" sodipodi:cx="70.710678" />
        <path id="use7453" sodipodi:rx="4.9497476" sodipodi:ry="4.9497476" style="opacity:.46188;fill-rule:evenodd;fill:#808000" sodipodi:type="arc" d="m75.66 484.56a4.9497 4.9497 0 1 1 -9.8995 0 4.9497 4.9497 0 1 1 9.8995 0z" transform="matrix(.84817 .10708 -.10256 .88560 175.3 28.51)" sodipodi:cy="484.55545" sodipodi:cx="70.710678" />
        <path id="use7455" sodipodi:rx="4.9497476" sodipodi:ry="4.9497476" style="opacity:.46188;fill-rule:evenodd;fill:#808000" sodipodi:type="arc" d="m75.66 484.56a4.9497 4.9497 0 1 1 -9.8995 0 4.9497 4.9497 0 1 1 9.8995 0z" transform="matrix(.74205 -.29931 .28666 .77479 38.042 110.06)" sodipodi:cy="484.55545" sodipodi:cx="70.710678" />
        <path id="use7457" sodipodi:rx="4.9497476" sodipodi:ry="4.9497476" style="opacity:.46188;fill-rule:evenodd;fill:#808000" sodipodi:type="arc" d="m75.66 484.56a4.9497 4.9497 0 1 1 -9.8995 0 4.9497 4.9497 0 1 1 9.8995 0z" transform="matrix(.71767 -.042342 .040553 .74933 123.53 119.41)" sodipodi:cy="484.55545" sodipodi:cx="70.710678" />
        <path id="use7459" sodipodi:rx="4.9497476" sodipodi:ry="4.9497476" style="opacity:.46188;fill-rule:evenodd;fill:#808000" sodipodi:type="arc" d="m75.66 484.56a4.9497 4.9497 0 1 1 -9.8995 0 4.9497 4.9497 0 1 1 9.8995 0z" transform="matrix(.69248 -.23431 .22441 .72303 52.044 153.1)" sodipodi:cy="484.55545" sodipodi:cx="70.710678" />
        <path id="use7463" sodipodi:rx="4.9497476" sodipodi:ry="4.9497476" style="opacity:.46188;fill-rule:evenodd;fill:#808000" sodipodi:type="arc" d="m75.66 484.56a4.9497 4.9497 0 1 1 -9.8995 0 4.9497 4.9497 0 1 1 9.8995 0z" transform="matrix(.78155 -.22834 .21869 .81603 85.307 75.88)" sodipodi:cy="484.55545" sodipodi:cx="70.710678" />
        <path id="use7467" sodipodi:rx="4.9497476" sodipodi:ry="4.9497476" style="opacity:.46188;fill-rule:evenodd;fill:#808000" sodipodi:type="arc" d="m75.66 484.56a4.9497 4.9497 0 1 1 -9.8995 0 4.9497 4.9497 0 1 1 9.8995 0z" transform="matrix(.65686 .14279 -.13675 .68584 223.17 118.91)" sodipodi:cy="484.55545" sodipodi:cx="70.710678" />
        <path id="use7469" sodipodi:rx="4.9497476" sodipodi:ry="4.9497476" style="opacity:.46188;fill-rule:evenodd;fill:#808000" sodipodi:type="arc" d="m75.66 484.56a4.9497 4.9497 0 1 1 -9.8995 0 4.9497 4.9497 0 1 1 9.8995 0z" transform="matrix(.76594 -.29454 .28209 .79974 -58.57 140.35)" sodipodi:cy="484.55545" sodipodi:cx="70.710678" />
        <path id="use7471" sodipodi:rx="4.9497476" sodipodi:ry="4.9497476" style="opacity:.46188;fill-rule:evenodd;fill:#808000" sodipodi:type="arc" d="m75.66 484.56a4.9497 4.9497 0 1 1 -9.8995 0 4.9497 4.9497 0 1 1 9.8995 0z" transform="matrix(.76949 -.29241 .28006 .80344 -79.207 168.96)" sodipodi:cy="484.55545" sodipodi:cx="70.710678" />
        <path id="use7473" sodipodi:rx="4.9497476" sodipodi:ry="4.9497476" style="opacity:.46188;fill-rule:evenodd;fill:#808000" sodipodi:type="arc" d="m75.66 484.56a4.9497 4.9497 0 1 1 -9.8995 0 4.9497 4.9497 0 1 1 9.8995 0z" transform="matrix(.73139 -.39590 .37917 .76365 -119.65 202.73)" sodipodi:cy="484.55545" sodipodi:cx="70.710678" />
        <path id="path7199" sodipodi:nodetypes="ccssssssssscccsssssccc" style="opacity:.88789;block-progression:tb;text-indent:0;color:#000000;text-transform:none;fill:#000000" inkscape:connector-curvature="0" d="m104.6 455.55c5.1444 11.134 26.368 12.814 38.383 13.332 9.9848 0.41878 15.34 1.1096 19.738 2.4681 3.6179 1.1175 5.9143 3.0878 7.1388 5.7014s1.423 6.0544 0.23639 10.292c-0.99373 3.549-4.4974 7.1298-9.7154 9.2309-5.1456 2.0719-8.089 2.7504-24.04 5.5286-15.398 2.6819-21.845 4.3742-27.87 7.4785-5.2506 2.7052-8.9984 5.6659-11.37 9.6505-2.3718 3.9845-3.2572 8.8093-3.2621 14.932-0.005 6.5522 0.74023 21.44 1.6311 32.481 0.55866 6.924 1.6372 12.057 3.8058 16.092 4.6221 7.3724 10.681 9.5986 18.027 9.5608-20.108-9.7042-25.008-54.578-16.987-70.968 1.8771-3.1535 4.9237-5.6646 9.8336-8.1942 5.5644-2.8669 11.495-4.4909 26.806-7.1576 15.978-2.7828 13.808-1.5172 21.965-3.911 9.1641-2.6895 16.06-7.3557 18.27-13.108 2.0976-5.4601 1.9185-10.483-0.72068-14.589-2.6392-4.1059-7.6834-7.1037-14.378-8.6109-18.653-2.988-25.683 0.32107-41.683-2.9732-6.0411-0.92544-12.615-5.1786-15.808-7.2357z" />
        <path id="path4443" sodipodi:nodetypes="csscsssscsc" style="opacity:.8;fill:#000000" inkscape:connector-curvature="0" d="m298.21 534.44c-0.50691-0.86497-2.535-5.7493-4.8311-10.962-7.0862-16.088-9.3615-20.441-12.881-24.862-1.6228-2.0383-4.2915-3.9852-6.0358-3.1915 0.12785-1.5414 2.0557-2.8083 4.5422-2.8925 1.6624-0.0563 4.1796 1.2074 6.2962 3.6971 3.2567 3.8308 5.7386 8.2481 12.068 23.634 2.0634 5.0156 4.9756 11.145 6.4323 12.143 3.2326 2.2156 7.5462 3.2839 10.147 3.168-1.0133 1.1197-3.3634 2.3747-4.9485 2.7456-3.2401 0.75815-9.1505-0.27137-10.79-3.48z" />
        <path id="path4447" sodipodi:nodetypes="cccccc" style="opacity:.8;fill:#121212" inkscape:connector-curvature="0" d="m158.65 375.93s-0.54879-2.2015-0.81537-3.5054c-1.4423-7.4222-1.2622-14.916 1.7944-21.455-1.4874 8.9668-0.23709 17.052 1.7684 23.721 0.10843 0.44766 0.32232 1.0164 0.40692 1.5215-1.3395 0.20738-3.1544-0.28193-3.1544-0.28193z" />
        <path id="path4451" sodipodi:nodetypes="sssssscsssssssscss" style="opacity:.8;fill:#000000" inkscape:connector-curvature="0" d="m259.04 569.34c-1.9053-0.18318-4.0658-0.79898-5.3225-1.4688-1.949-1.0388-3.9011-3.4273-5.4048-6.4472-1.9369-3.8899-2.8109-7.4771-5.3827-18.824-3.3507-14.783-5.6289-19.839-8.9067-22.535-1.332-1.0955-2.6258-1.6099-4.5153-1.7559l-1.5136 0.0717 0.50497-0.53555c1.1521-1.2218 4.1183-0.78097 5.0482-0.55825 2.9142 0.698 4.6237 2.4862 5.5666 3.3162 1.529 1.3459 2.9972 3.8891 3.973 6.8822 0.66724 2.0466 1.0579 3.6018 1.8874 7.513 0.81751 3.8547 1.4839 6.7116 1.8238 8.1868 0.39598 1.7185 1.2523 4.4055 3.0641 8.8754 2.3149 5.7111 4.9042 11.604 10.185 14.114 3.4275 1.6289 6.4554 1.2633 6.4554 1.2633s-0.2363 0.36232-1.2577 0.91824c-1.6002 0.87096-3.8133 1.2137-6.2056 0.98371z" />
        <path id="path4463" sodipodi:nodetypes="ccssssscccccc" style="opacity:.8;fill:#000000" inkscape:connector-curvature="0" d="m196.94 592.05c-0.99687-0.29462-2.1068-0.6556-2.4664-0.8022-6.9355-2.8267-10.871-8.9341-12.592-19.541-0.52782-3.253-0.92344-7.1764-1.3153-13.044-0.69423-10.395-1.234-14.744-2.3276-18.75-0.82007-3.0043-2.1136-5.8872-3.5082-7.819-0.95072-1.317-2.6117-2.9252-3.868-3.7454l-0.95448-0.62309 0.73478 0.002c1.0898 0.003 3.9615 0.18932 4.9752 0.67692 15.161 6.6387 3.2569 44.989 23.387 63.915 0.10089 0.36875 0.0901 0.36735-2.0649-0.26956z" />
        <path id="path5012" sodipodi:nodetypes="cccssscsscsccccccc" style="fill:#999999" inkscape:connector-curvature="0" d="m113.39 407.16c-0.043-0.009-0.16089-0.0523-0.26205-0.0973l-0.18392-0.0818 0.0177-1.3298c0.023-1.7273 0.11338-2.8052 0.36563-4.361 0.2586-1.595 0.8131-3.4162 1.0727-4.2656l1.1411-3.7344 0.34675 3.02c0.29636 2.5811 0.65146 3.5806 1.1335 4.8082 0.47502 1.2098 0.82423 2.0727 0.87441 2.2188-1.2237 0.72736-2.2241 1.724-2.2241 1.7756 0 0.0142-0.10263 0.17946-0.22808 0.36729-0.12544 0.18783-0.32774 0.54618-0.44956 0.79634-0.18539 0.38072-0.24777 0.47847-0.3828 0.59988-0.22948 0.20632-0.44403 0.28165-0.83018 0.29147-0.17188 0.004-0.34766 0.00096-0.39063-0.008z" />
        <path id="path5016" sodipodi:nodetypes="cssscscsccsssccc" style="fill:#999999" inkscape:connector-curvature="0" d="m99.456 407.46c-0.84002-0.47444-1.0037-0.69376-1.3715-1.8382-0.58404-1.817-0.76737-3.548-0.82692-7.8078-0.08518-6.0932 0.20987-9.1769 1.0836-11.325 0.41474-1.0196 1.4472-4.603 7.3784-7.7127-2.143 1.6979-3.6098 6.2361-3.7496 6.9063-0.39511 1.8945-0.60979 6.1952-0.55284 7.6068-0.0618 3.285 0.23473 5.5751 3.1283 6.6757 2.6994 1.0267 2.9708 1.1356 3.5573 3.5241-0.00005 0.006-0.38785 0.0176-0.86179 0.0252-2.5251 0.0408-4.8864 1.4268-5.946 3.4899-0.20272 0.39472-0.33632 0.53745-0.64113 0.68501-0.21177 0.10252-0.40231 0.18639-0.42343 0.18639-0.0211 0-0.36958-0.18706-0.77437-0.41569z" />
        <path id="path5020" style="fill:#999999" inkscape:connector-curvature="0" d="m127.99 406.22c-0.21525-0.37795-0.25673-2.0298-0.0804-3.2008 0.24516-1.6278 1.0321-4.4722 1.799-6.5024 0.19282-0.51048 1.0856-2.6004 1.1408-2.6704 0.006-0.008 0.0587 0.61588 0.11684 1.3859 0.11274 1.4929 0.32037 2.8772 0.57679 3.8456 0.13459 0.50828 1.0689 3.523 1.1842 3.821 0.0294 0.0761-0.01 0.11066-0.15983 0.14065-0.40507 0.081-1.3525 0.5052-1.8609 0.83316-0.62595 0.4038-1.3135 1.0825-1.7276 1.7054-0.22723 0.3418-0.36454 0.48216-0.5574 0.56974-0.27782 0.12618-0.38999 0.14492-0.43147 0.0721z" />
        <path id="path5032" sodipodi:nodetypes="ccccccsccc" style="fill:#999999" inkscape:connector-curvature="0" d="m141.49 406.12c-0.1774-0.46563-0.20002-0.58355-0.23181-1.7177-0.44054-4.285 1.2225-8.1299 2.8085-10.51-0.5974 3.6858-0.22966 6.5942 0.79035 9.4736l0.1058 0.32892-0.31654 0.18039c-0.70503 0.40177-1.3433 0.97923-1.9196 1.7366-0.32243 0.42377-0.3811 0.4685-0.73529 0.56067-0.37521 0.0976-0.44688 0.0901-0.50138-0.053z" />
        <path id="path5036" sodipodi:nodetypes="csccccscccccc" style="fill:#999999" inkscape:connector-curvature="0" d="m154.85 406.6c-0.0768-0.73469-0.2864-2.1153-0.16167-3.0895 0.34587-2.7013 1.2641-6.2171 2.8921-8.3438-0.11294 3.1038 0.51716 6.7208 1.063 8.3388 0.13551 0.39833 0.24084 0.72919 0.23406 0.73525-0.007 0.006-0.17053 0.0541-0.36389 0.10674-0.74097 0.20179-1.2806 0.58944-1.9208 1.3799-0.72776 0.89853-0.73699 0.90789-0.98655 1.0003-0.12784 0.0473-0.34385 0.0996-0.48001 0.11618l-0.24757 0.0301-0.0286-0.27401z" />
        <path id="path5044" sodipodi:nodetypes="sssscccccs" style="fill:#000000" inkscape:connector-curvature="0" d="m99.325 407.61c-0.68779-0.4363-1.0073-1.0715-1.3575-2.1674-0.60463-1.8924-0.82335-3.2054-0.8765-8.0898-0.04622-4.2481 0.27452-6.4573 0.5964-8.3125l0.08133-0.46875 0.01 1.0938c0.01393 1.5274 0.06431 4.1034 0.42242 5.7876 0.76735 3.923 1.9163 7.641 4.2686 10.018-0.44631 0.50156-0.74783 0.70721-1.1733 1.638-0.75904 1.2193-1.3493 0.89612-1.9715 0.50144z" />
        <g id="g5069" transform="translate(-11.589 28.339)">
            <path id="path5038" sodipodi:rx="22.627417" sodipodi:ry="22.627417" style="opacity:.37668;fill:url(#radialGradient5054)" sodipodi:type="arc" d="m100.41 67.952c0 12.497-10.131 22.627-22.627 22.627-12.497 0-22.627-10.131-22.627-22.627 0-12.497 10.131-22.627 22.627-22.627 12.497 0 22.627 10.131 22.627 22.627z" transform="translate(0 261.42)" sodipodi:cy="67.952446" sodipodi:cx="77.781746" />
            <path id="rect5060" d="m79.913 316.56 9.2173-4.9038s3.0454 3.5256 4.1143 5.5721c0.96938 1.856 2.0155 5.9495 2.0155 5.9495l-9.2173 4.9038s-1.0462-4.0935-2.0155-5.9495c-1.0689-2.0465-4.1143-5.5721-4.1143-5.5721z" sodipodi:nodetypes="ccsccsc" style="fill:#ffffff" inkscape:connector-curvature="0" />
            <path id="path5063" sodipodi:nodetypes="ccsccsc" style="fill:#ffffff" inkscape:connector-curvature="0" d="m69.196 322.41 9.2173-4.9038s3.0454 3.5256 4.1143 5.5721c0.96937 1.856 2.0155 5.9495 2.0155 5.9495l-9.2173 4.9038s-1.0462-4.0936-2.0155-5.9495c-1.0689-2.0465-4.1143-5.5721-4.1143-5.5721z" />
            <path id="path5067" sodipodi:nodetypes="scsccsss" style="opacity:.58744;fill:#f2f2f2" inkscape:connector-curvature="0" d="m76.962 349.79c4.0202 0 7.6321 0.0994 10.763-2.0296-0.8148 0.0821-3.1859 0.49204-4.0214 0.49204-7.001 0-14.282-3.3171-18.867-8.0855-7.8155-11.122-6.5635-14.788-4.7289-22.113-1.9339 3.1944-3.0752 6.9556-3.0752 11.009 0 11.449 8.921 20.727 19.93 20.727z" />
        </g>
        <g id="g5075" transform="matrix(.64062 0 0 .64062 34.787 108.79)">
            <path id="path5077" sodipodi:rx="22.627417" sodipodi:ry="22.627417" style="opacity:.37668;fill:url(#radialGradient5054)" sodipodi:type="arc" d="m100.41 67.952c0 12.497-10.131 22.627-22.627 22.627-12.497 0-22.627-10.131-22.627-22.627 0-12.497 10.131-22.627 22.627-22.627 12.497 0 22.627 10.131 22.627 22.627z" transform="translate(0 261.42)" sodipodi:cy="67.952446" sodipodi:cx="77.781746" />
            <path id="path5079" sodipodi:nodetypes="ccsccsc" style="fill:#ffffff" inkscape:connector-curvature="0" d="m79.913 316.56 9.2173-4.9038s3.0454 3.5256 4.1143 5.5721c0.96938 1.856 2.0155 5.9495 2.0155 5.9495l-9.2173 4.9038s-1.0462-4.0935-2.0155-5.9495c-1.0689-2.0465-4.1143-5.5721-4.1143-5.5721z" />
            <path id="path5081" d="m69.196 322.41 9.2173-4.9038s3.0454 3.5256 4.1143 5.5721c0.96937 1.856 2.0155 5.9495 2.0155 5.9495l-9.2173 4.9038s-1.0462-4.0936-2.0155-5.9495c-1.0689-2.0465-4.1143-5.5721-4.1143-5.5721z" sodipodi:nodetypes="ccsccsc" style="fill:#ffffff" inkscape:connector-curvature="0" />
            <path id="path5083" d="m76.962 349.79c4.0202 0 7.6321 0.0994 10.763-2.0296-0.8148 0.0821-3.1859 0.49204-4.0214 0.49204-7.001 0-14.282-3.3171-18.867-8.0855-7.8155-11.122-6.5635-14.788-4.7289-22.113-1.9339 3.1944-3.0752 6.9556-3.0752 11.009 0 11.449 8.921 20.727 19.93 20.727z" sodipodi:nodetypes="scsccsss" style="opacity:.58744;fill:#f2f2f2" inkscape:connector-curvature="0" />
        </g>
        <g id="g5087" transform="matrix(.375 0 0 .375 54.112 264.02)">
            <path id="path5089" sodipodi:rx="22.627417" sodipodi:ry="22.627417" style="opacity:.37668;fill:url(#radialGradient5054)" sodipodi:type="arc" d="m100.41 67.952c0 12.497-10.131 22.627-22.627 22.627-12.497 0-22.627-10.131-22.627-22.627 0-12.497 10.131-22.627 22.627-22.627 12.497 0 22.627 10.131 22.627 22.627z" transform="translate(0 261.42)" sodipodi:cy="67.952446" sodipodi:cx="77.781746" />
            <path id="path5091" d="m79.913 316.56 9.2173-4.9038s3.0454 3.5256 4.1143 5.5721c0.96938 1.856 2.0155 5.9495 2.0155 5.9495l-9.2173 4.9038s-1.0462-4.0935-2.0155-5.9495c-1.0689-2.0465-4.1143-5.5721-4.1143-5.5721z" sodipodi:nodetypes="ccsccsc" style="fill:#ffffff" inkscape:connector-curvature="0" />
            <path id="path5093" sodipodi:nodetypes="ccsccsc" style="fill:#ffffff" inkscape:connector-curvature="0" d="m69.196 322.41 9.2173-4.9038s3.0454 3.5256 4.1143 5.5721c0.96937 1.856 2.0155 5.9495 2.0155 5.9495l-9.2173 4.9038s-1.0462-4.0936-2.0155-5.9495c-1.0689-2.0465-4.1143-5.5721-4.1143-5.5721z" />
            <path id="path5095" sodipodi:nodetypes="scsccsss" style="opacity:.58744;fill:#f2f2f2" inkscape:connector-curvature="0" d="m76.962 349.79c4.0202 0 7.6321 0.0994 10.763-2.0296-0.8148 0.0821-3.1859 0.49204-4.0214 0.49204-7.001 0-14.282-3.3171-18.867-8.0855-7.8155-11.122-6.5635-14.788-4.7289-22.113-1.9339 3.1944-3.0752 6.9556-3.0752 11.009 0 11.449 8.921 20.727 19.93 20.727z" />
        </g>
        <g id="g5099" transform="matrix(.46094 0 0 .46094 10.56 151.01)">
            <path id="path5101" sodipodi:rx="22.627417" sodipodi:ry="22.627417" style="opacity:.37668;fill:url(#radialGradient5054)" sodipodi:type="arc" d="m100.41 67.952c0 12.497-10.131 22.627-22.627 22.627-12.497 0-22.627-10.131-22.627-22.627 0-12.497 10.131-22.627 22.627-22.627 12.497 0 22.627 10.131 22.627 22.627z" transform="translate(0 261.42)" sodipodi:cy="67.952446" sodipodi:cx="77.781746" />
            <path id="path5103" sodipodi:nodetypes="ccsccsc" style="fill:#ffffff" inkscape:connector-curvature="0" d="m79.913 316.56 9.2173-4.9038s3.0454 3.5256 4.1143 5.5721c0.96938 1.856 2.0155 5.9495 2.0155 5.9495l-9.2173 4.9038s-1.0462-4.0935-2.0155-5.9495c-1.0689-2.0465-4.1143-5.5721-4.1143-5.5721z" />
            <path id="path5105" d="m69.196 322.41 9.2173-4.9038s3.0454 3.5256 4.1143 5.5721c0.96937 1.856 2.0155 5.9495 2.0155 5.9495l-9.2173 4.9038s-1.0462-4.0936-2.0155-5.9495c-1.0689-2.0465-4.1143-5.5721-4.1143-5.5721z" sodipodi:nodetypes="ccsccsc" style="fill:#ffffff" inkscape:connector-curvature="0" />
            <path id="path5107" d="m76.962 349.79c4.0202 0 7.6321 0.0994 10.763-2.0296-0.8148 0.0821-3.1859 0.49204-4.0214 0.49204-7.001 0-14.282-3.3171-18.867-8.0855-7.8155-11.122-6.5635-14.788-4.7289-22.113-1.9339 3.1944-3.0752 6.9556-3.0752 11.009 0 11.449 8.921 20.727 19.93 20.727z" sodipodi:nodetypes="scsccsss" style="opacity:.58744;fill:#f2f2f2" inkscape:connector-curvature="0" />
        </g>
    </g>
    <metadata>
        <rdf:RDF>
            <cc:Work>
                <dc:format>image/svg+xml</dc:format>
                <dc:type rdf:resource="http://purl.org/dc/dcmitype/StillImage" />
                <cc:license rdf:resource="http://creativecommons.org/licenses/publicdomain/" />
                <dc:publisher>
                    <cc:Agent rdf:about="http://openclipart.org/">
                        <dc:title>Openclipart</dc:title>
                    </cc:Agent>
                </dc:publisher>
                <dc:title>Creature 01</dc:title>
                <dc:date>2011-01-04T09:29:40</dc:date>
                <dc:description>Update of teeth</dc:description>
                <dc:source>https://openclipart.org/detail/103573/creature-01-by-3dline</dc:source>
                <dc:creator>
                    <cc:Agent>
                        <dc:title>3Dline</dc:title>
                    </cc:Agent>
                </dc:creator>
                <dc:subject>
                    <rdf:Bag>
                        <rdf:li>Creature</rdf:li>
                        <rdf:li>animal</rdf:li>
                        <rdf:li>cartoon</rdf:li>
                        <rdf:li>colored</rdf:li>
                        <rdf:li>octopus</rdf:li>
                        <rdf:li>organic</rdf:li>
                    </rdf:Bag>
                </dc:subject>
            </cc:Work>
            <cc:License rdf:about="http://creativecommons.org/licenses/publicdomain/">
                <cc:permits rdf:resource="http://creativecommons.org/ns#Reproduction" />
                <cc:permits rdf:resource="http://creativecommons.org/ns#Distribution" />
                <cc:permits rdf:resource="http://creativecommons.org/ns#DerivativeWorks" />
            </cc:License>
        </rdf:RDF>
    </metadata>
</svg>