<?xml version="1.0" encoding="UTF-8" standalone="no"?>
<!-- Created with Inkscape (http://www.inkscape.org/) -->

<svg
   xmlns:dc="http://purl.org/dc/elements/1.1/"
   xmlns:cc="http://creativecommons.org/ns#"
   xmlns:rdf="http://www.w3.org/1999/02/22-rdf-syntax-ns#"
   xmlns:svg="http://www.w3.org/2000/svg"
   xmlns="http://www.w3.org/2000/svg"
   xmlns:sodipodi="http://sodipodi.sourceforge.net/DTD/sodipodi-0.dtd"
   xmlns:inkscape="http://www.inkscape.org/namespaces/inkscape"
   width="258.48267mm"
   height="155.12286mm"
   viewBox="0 0 915.88346 549.64794"
   id="svg2"
   version="1.1"
   inkscape:version="0.91 r13725"
   sodipodi:docname="happy face waving.svg">
  <defs
     id="defs4">
    <clipPath
       id="clipEmfPath1"
       clipPathUnits="userSpaceOnUse">
      <path
         inkscape:connector-curvature="0"
         id="path3341"
         d="m 36.2583,11.2526 842.6927,0 0,536.3724 -842.6927,0 z" />
    </clipPath>
    <pattern
       y="0"
       x="0"
       height="6"
       width="6"
       patternUnits="userSpaceOnUse"
       id="EMFhbasepattern" />
  </defs>
  <sodipodi:namedview
     id="base"
     pagecolor="#ffffff"
     bordercolor="#666666"
     borderopacity="1.0"
     inkscape:pageopacity="0.0"
     inkscape:pageshadow="2"
     inkscape:zoom="0.35"
     inkscape:cx="532.94169"
     inkscape:cy="129.10966"
     inkscape:document-units="px"
     inkscape:current-layer="layer1"
     showgrid="false"
     fit-margin-top="0"
     fit-margin-left="0"
     fit-margin-right="0"
     fit-margin-bottom="0"
     inkscape:window-width="1366"
     inkscape:window-height="706"
     inkscape:window-x="-8"
     inkscape:window-y="-8"
     inkscape:window-maximized="1" />
  <metadata
     id="metadata7">
    <rdf:RDF>
      <cc:Work
         rdf:about="">
        <dc:format>image/svg+xml</dc:format>
        <dc:type
           rdf:resource="http://purl.org/dc/dcmitype/StillImage" />
        <dc:title></dc:title>
      </cc:Work>
    </rdf:RDF>
  </metadata>
  <g
     inkscape:label="Layer 1"
     inkscape:groupmode="layer"
     id="layer1"
     transform="translate(157.94169,-111.82394)">
    <path
       inkscape:connector-curvature="0"
       id="path3344"
       d="m 302.89964,488.08548 c -23.12731,0.56677 -95.41946,33.8426 -138.84714,3.56216 C 120.54043,461.28537 57.069941,353.92641 41.994836,306.07558 26.833118,258.22581 70.688299,224.30139 73.429735,204.30337 76.08456,184.3049 68.462066,181.87596 58.269106,186.24803 c -10.192922,4.29116 -34.861385,42.10144 -45.91153,44.126 -11.1345034,1.94273 -16.9593573,-14.89723 -20.6423763,-32.38609 -3.5974947,-17.48838 3.4254365,-60.23787 -1.1136407,-72.54451 -4.454679,-12.3876 -20.728988,-13.5211 -25.867667,-1.53834 -5.054243,11.98287 1.713281,74.0019 -4.711175,73.27323 -6.424416,-0.64769 -24.582939,-65.82452 -33.747705,-77.56439 -9.165892,-11.65888 -22.784677,-8.90613 -21.157231,7.28688 1.627408,16.11198 33.834006,85.98466 30.836075,89.54682 -2.997932,3.48135 -37.431506,-58.13248 -48.738026,-68.25303 -11.30637,-10.12065 -22.18461,-6.15337 -18.92964,7.44871 3.25486,13.52117 40.17228,68.41563 38.544717,73.92047 -1.627524,5.50591 -38.030867,-37.00043 -48.395107,-40.8868 -10.36417,-3.88633 -19.87193,6.47718 -13.79046,17.64991 6.08154,11.09263 35.28986,33.92443 50.27948,49.30759 14.98931,15.30236 23.641086,30.8482 39.572249,42.66921 15.846805,11.73917 31.007434,-1.45779 55.7613832,28.01342 24.8405608,29.47122 63.7280718,111.40808 93.1931948,148.97547 29.465163,37.48659 42.656013,63.15319 83.598783,76.18854 40.94383,12.95348 128.22559,1.37596 161.97334,1.70028 z"
       style="fill:#f7e5d9;fill-opacity:1;fill-rule:evenodd;stroke:none" />
    <path
       transform="matrix(1.0961328,0,0,1.0361134,-202.37921,96.700885)"
       inkscape:connector-curvature="0"
       id="path3346"
       d="m 460.965,377.743 c -21.099,0.547 -87.051,32.663 -126.67,3.438 -39.696,-29.304 -97.6,-132.921 -111.353,-179.104 -13.832,-46.182 26.177,-78.924 28.678,-98.225 2.422,-19.3014 -4.532,-21.6457 -13.831,-17.426 -9.299,4.1416 -31.804,40.634 -41.885,42.588 -10.158,1.875 -15.472,-14.378 -18.832,-31.2573 -3.282,-16.8788 3.125,-58.1383 -1.016,-70.016 -4.064,-11.9558 -18.911,-13.0498 -23.599,-1.4847 -4.611,11.5652 1.563,71.4226 -4.298,70.7193 C 142.298,96.3502 125.732,33.4451 117.371,22.1144 109.009,10.8619 96.5846,13.5187 98.0693,29.1473 99.554,44.6977 128.936,112.135 126.201,115.573 123.466,118.933 92.0523,59.4667 81.7374,49.6989 71.4226,39.931 61.4984,43.76 64.4679,56.888 c 2.9694,13.0499 36.6491,66.031 35.1643,71.344 -1.4848,5.314 -34.6955,-35.7108 -44.1508,-39.4617 -9.4552,-3.7509 -18.1291,6.2514 -12.581,17.0347 5.5482,10.706 32.1949,32.742 45.8699,47.589 13.6747,14.769 21.5677,29.773 36.1017,41.182 14.457,11.33 28.288,-1.407 50.871,27.037 22.662,28.444 58.139,107.525 85.02,143.783 26.881,36.18 38.915,60.952 76.267,73.533 37.353,12.502 116.98,1.328 147.768,1.641"
       clip-path="url(#clipEmfPath1)"
       style="fill:none;stroke:#000000;stroke-width:1.25028598px;stroke-linecap:butt;stroke-linejoin:round;stroke-miterlimit:4;stroke-dasharray:none;stroke-opacity:1" />
    <path
       inkscape:connector-curvature="0"
       id="path3348"
       d="m 303.67022,488.81386 c -23.12623,0.64758 -94.56337,33.84362 -138.84714,3.56216 C 120.54043,462.17643 65.720629,335.14273 37.883224,307.37176 9.9592464,279.68162 -9.7415478,297.9794 -2.5465194,325.83115 4.6484702,353.7648 52.444252,437.15846 80.795735,474.88749 c 28.438055,37.73007 45.568425,64.12505 87.111845,77.32201 41.45685,13.197 128.22563,1.37596 161.97337,1.78108 z"
       style="fill:#b35e25;fill-opacity:1;fill-rule:evenodd;stroke:none" />
    <path
       inkscape:connector-curvature="0"
       id="path3350"
       d="m 303.67022,488.81386 c -23.12623,0.64758 -94.56337,33.84362 -138.84714,3.56216 C 120.54043,462.17643 65.720629,335.14273 37.883224,307.37176 9.9592464,279.68162 -9.7415478,297.9794 -2.5465194,325.83115 4.6484702,353.7648 52.444252,437.15846 80.795735,474.88749 c 28.438055,37.73007 45.568425,64.12505 87.111845,77.32201 41.45685,13.197 128.22563,1.37596 161.97337,1.78108"
       style="fill:none;stroke:#000000;stroke-width:2.6648612px;stroke-linecap:butt;stroke-linejoin:round;stroke-miterlimit:4;stroke-dasharray:none;stroke-opacity:1" />
    <path
       inkscape:connector-curvature="0"
       id="path3352"
       d="m -29.099235,308.10017 c -5.225291,3.07619 -6.851922,9.554 -3.51201,14.49314 l 23.6413962,35.62364 c 3.254388,4.93917 10.1063096,6.39696 15.3316004,3.3197 L 71.459959,322.91657 c 5.224164,-3.15704 6.851921,-9.63481 3.512009,-14.57395 L 51.330572,272.71895 c -3.254388,-4.85834 -10.107436,-6.39696 -15.3316,-3.31971 z"
       style="fill:#b35e25;fill-opacity:1;fill-rule:evenodd;stroke:none" />
    <path
       inkscape:connector-curvature="0"
       id="path3354"
       d="m -29.099235,308.10017 c -5.225291,3.07619 -6.851922,9.554 -3.51201,14.49314 l 23.6413962,35.62364 c 3.254388,4.93917 10.1063096,6.39696 15.3316004,3.3197 L 71.459959,322.91657 c 5.224164,-3.15704 6.851921,-9.63481 3.512009,-14.57395 L 51.330572,272.71895 c -3.254388,-4.85834 -10.107436,-6.39696 -15.3316,-3.31971 z"
       style="fill:none;stroke:#000000;stroke-width:2.6648612px;stroke-linecap:butt;stroke-linejoin:round;stroke-miterlimit:4;stroke-dasharray:none;stroke-opacity:1" />
    <path
       inkscape:connector-curvature="0"
       id="path3356"
       d="m 511.4696,197.17832 c -135.16417,0 -244.71603,103.55402 -244.71603,231.31613 0,127.68233 109.55186,231.23669 244.71603,231.23669 135.07751,0 244.6305,-103.55436 244.6305,-231.23669 0,-127.76211 -109.55299,-231.31613 -244.6305,-231.31613 z"
       style="fill:#ffff00;fill-opacity:1;fill-rule:evenodd;stroke:none" />
    <path
       transform="matrix(1.0961328,0,0,1.0361134,-202.37921,96.700885)"
       inkscape:connector-curvature="0"
       id="path3358"
       d="m 651.243,96.9753 c -123.31,0 -223.254,99.9447 -223.254,223.2537 0,123.232 99.944,223.177 223.254,223.177 123.231,0 223.176,-99.945 223.176,-223.177 0,-123.309 -99.945,-223.2537 -223.176,-223.2537"
       clip-path="url(#clipEmfPath1)"
       style="fill:none;stroke:#ffc000;stroke-width:3.36014342px;stroke-linecap:butt;stroke-linejoin:round;stroke-miterlimit:4;stroke-dasharray:none;stroke-opacity:1" />
    <path
       inkscape:connector-curvature="0"
       id="path3360"
       d="m 514.9816,325.91199 c -20.38588,0 -36.91777,15.54584 -36.91777,34.81548 0,19.26964 16.53189,34.89525 36.91777,34.89525 20.29927,0 36.83117,-15.62561 36.83117,-34.89525 0,-19.26964 -16.5319,-34.81548 -36.83117,-34.81548 z"
       style="fill:#ffffff;fill-opacity:1;fill-rule:evenodd;stroke:none" />
    <path
       inkscape:connector-curvature="0"
       id="path3362"
       d="m 514.9816,325.91199 c -20.38588,0 -36.91777,15.54584 -36.91777,34.81548 0,19.26964 16.53189,34.89525 36.91777,34.89525 20.29927,0 36.83117,-15.62561 36.83117,-34.89525 0,-19.26964 -16.5319,-34.81548 -36.83117,-34.81548"
       style="fill:none;stroke:#000000;stroke-width:3.58090711px;stroke-linecap:butt;stroke-linejoin:round;stroke-miterlimit:4;stroke-dasharray:none;stroke-opacity:1" />
    <path
       inkscape:connector-curvature="0"
       id="path3364"
       d="m 500.76256,332.06548 c -10.96354,0 -19.87181,8.42049 -19.87181,18.78367 0,10.44505 8.90827,18.86555 19.87181,18.86555 11.04902,0 19.95729,-8.4205 19.95729,-18.86555 0,-10.36318 -8.90827,-18.78367 -19.95729,-18.78367 z"
       style="fill:#08c008;fill-opacity:1;fill-rule:evenodd;stroke:none" />
    <path
       inkscape:connector-curvature="0"
       id="path3366"
       d="m 500.76256,332.06548 c -10.96354,0 -19.87181,8.42049 -19.87181,18.78367 0,10.44505 8.90827,18.86555 19.87181,18.86555 11.04902,0 19.95729,-8.4205 19.95729,-18.86555 0,-10.36318 -8.90827,-18.78367 -19.95729,-18.78367"
       style="fill:none;stroke:#000000;stroke-width:3.58090711px;stroke-linecap:butt;stroke-linejoin:round;stroke-miterlimit:4;stroke-dasharray:none;stroke-opacity:1" />
    <path
       inkscape:connector-curvature="0"
       id="path3368"
       d="m 407.05637,325.91199 c -20.30039,0 -36.83225,15.54584 -36.83225,34.81548 0,19.26964 16.53186,34.89525 36.83225,34.89525 20.38588,0 36.91665,-15.62561 36.91665,-34.89525 0,-19.26964 -16.53077,-34.81548 -36.91665,-34.81548 z"
       style="fill:#ffffff;fill-opacity:1;fill-rule:evenodd;stroke:none" />
    <path
       inkscape:connector-curvature="0"
       id="path3370"
       d="m 407.05637,325.91199 c -20.30039,0 -36.83225,15.54584 -36.83225,34.81548 0,19.26964 16.53186,34.89525 36.83225,34.89525 20.38588,0 36.91665,-15.62561 36.91665,-34.89525 0,-19.26964 -16.53077,-34.81548 -36.91665,-34.81548"
       style="fill:none;stroke:#000000;stroke-width:3.58090711px;stroke-linecap:butt;stroke-linejoin:round;stroke-miterlimit:4;stroke-dasharray:none;stroke-opacity:1" />
    <path
       inkscape:connector-curvature="0"
       id="path3372"
       d="m 392.92281,332.06548 c -10.96349,0 -19.95729,8.42049 -19.95729,18.78367 0,10.44505 8.9938,18.86555 19.95729,18.86555 11.04902,0 19.95729,-8.4205 19.95729,-18.86555 0,-10.36318 -8.90827,-18.78367 -19.95729,-18.78367 z"
       style="fill:#08c008;fill-opacity:1;fill-rule:evenodd;stroke:none" />
    <path
       inkscape:connector-curvature="0"
       id="path3374"
       d="m 392.92281,332.06548 c -10.96349,0 -19.95729,8.42049 -19.95729,18.78367 0,10.44505 8.9938,18.86555 19.95729,18.86555 11.04902,0 19.95729,-8.4205 19.95729,-18.86555 0,-10.36318 -8.90827,-18.78367 -19.95729,-18.78367"
       style="fill:none;stroke:#000000;stroke-width:3.58090711px;stroke-linecap:butt;stroke-linejoin:round;stroke-miterlimit:4;stroke-dasharray:none;stroke-opacity:1" />
    <path
       inkscape:connector-curvature="0"
       id="path3376"
       d="m 409.4547,278.70976 c -18.24513,-9.6348 -36.31817,-10.12077 -43.17009,-1.0527"
       style="fill:none;stroke:#000000;stroke-width:3.58090711px;stroke-linecap:butt;stroke-linejoin:round;stroke-miterlimit:4;stroke-dasharray:none;stroke-opacity:1" />
    <path
       inkscape:connector-curvature="0"
       id="path3378"
       d="m 535.45297,280.24839 c -18.24513,-9.71564 -36.31817,-10.12077 -43.17009,-1.0527"
       style="fill:none;stroke:#000000;stroke-width:3.58090711px;stroke-linecap:butt;stroke-linejoin:round;stroke-miterlimit:4;stroke-dasharray:none;stroke-opacity:1" />
    <path
       inkscape:connector-curvature="0"
       id="path3380"
       d="m 357.80384,476.10283 c 0,35.78635 45.99702,64.85244 102.70103,64.85244 56.70297,0 102.69998,-29.06609 102.69998,-64.85244 l 0,0 c -9.07928,31.3331 -52.24937,54.00329 -102.69998,54.00329 -50.36508,0 -93.6207,-22.67019 -102.70103,-54.00329 z"
       style="fill:#ff0000;fill-opacity:1;fill-rule:evenodd;stroke:none" />
    <path
       inkscape:connector-curvature="0"
       id="path3382"
       d="m 357.80384,476.10283 c 0,35.78635 45.99702,64.85244 102.70103,64.85244 56.70297,0 102.69998,-29.06609 102.69998,-64.85244 l 0,0 c -9.07928,31.3331 -52.24937,54.00329 -102.69998,54.00329 -50.36508,0 -93.6207,-22.67019 -102.70103,-54.00329 z"
       style="fill:none;stroke:#000000;stroke-width:3.99729156px;stroke-linecap:butt;stroke-linejoin:miter;stroke-miterlimit:8;stroke-dasharray:none;stroke-opacity:1" />
    <path
       inkscape:connector-curvature="0"
       id="path3384"
       d="m 316.26151,469.70587 c 26.8103,7.69211 54.90528,-5.58672 62.69987,-29.71367"
       style="fill:none;stroke:#000000;stroke-width:3.58090711px;stroke-linecap:butt;stroke-linejoin:round;stroke-miterlimit:10;stroke-dasharray:none;stroke-opacity:1" />
    <path
       inkscape:connector-curvature="0"
       id="path3386"
       d="m 541.10573,438.69602 c 8.73726,25.18068 36.31817,39.34954 61.67172,31.57662"
       style="fill:none;stroke:#000000;stroke-width:3.58090711px;stroke-linecap:butt;stroke-linejoin:round;stroke-miterlimit:10;stroke-dasharray:none;stroke-opacity:1" />
  </g>
</svg>
