<?xml version="1.0" encoding="utf-8"?>
<!-- Generator: Adobe Illustrator 12.0.1, SVG Export Plug-In . SVG Version: 6.00 Build 51448)  -->
<!DOCTYPE svg PUBLIC "-//W3C//DTD SVG 1.1//EN" "http://www.w3.org/Graphics/SVG/1.1/DTD/svg11.dtd" [
<!ENTITY ns_svg "http://www.w3.org/2000/svg">
<!ENTITY ns_xlink "http://www.w3.org/1999/xlink">
]>
<svg xmlns="http://www.w3.org/2000/svg" xmlns:xlink="http://www.w3.org/1999/xlink" xmlns:svg="http://www.w3.org/2000/svg" xmlns:dc="http://purl.org/dc/elements/1.1/" xmlns:cc="http://web.resource.org/cc/" xmlns:rdf="http://www.w3.org/1999/02/22-rdf-syntax-ns#" version="1.1" id="Layer_1" width="336.532" height="229.732" viewBox="0 0 336.532 229.732" overflow="visible" enable-background="new 0 0 336.532 229.732" xml:space="preserve">
<g>
	<path fill-rule="evenodd" clip-rule="evenodd" fill="#E31836" d="M272.623,2.728c0,0-19.024-0.297-20.808,0.892   s-11.593,9.215-11.593,9.215l5.945,3.567l25.512-7.224L272.623,2.728z"/>
	<path fill-rule="evenodd" clip-rule="evenodd" fill="#E31836" d="M143.617,59.502c0,0-2.081-12.484,1.783-19.916   s17.538-18.429,17.538-18.429L195.041,8.97l3.567-8.323l5.647,0.297l-2.675,8.026l10.998,60.341l-28.239,15.754L143.617,59.502z"/>
	<g>
		<path fill-rule="evenodd" clip-rule="evenodd" fill="#E31836" d="M270.456,4.895c6.614,0.524,11.885,2.392,14.072,7.342    c-4.236-0.659-5.674-4.115-11.625-3.059C273.534,6.303,270.046,7.547,270.456,4.895z"/>
		<path fill-rule="evenodd" clip-rule="evenodd" fill="#E31836" d="M263.726,70.97c-4.027,0.103-1.655-4.68-1.835-7.342    c-0.349-5.146-1.009-10.409-3.671-12.848c1.128-7.17-6.086-11.403-3.671-15.907c-1.054-0.986-2.875-1.204-3.671-2.447    c-5.877-10.265-15.955-19.489-28.755-20.802c-5.304-4.646-13.435,1.377-20.19,2.447c-1.96,3.75-3.566,7.854-3.059,14.072    c-4.977-3.858,0.042-12.661,1.835-17.13C240.612-2.096,268.866,33.236,263.726,70.97z"/>
		<path fill-rule="evenodd" clip-rule="evenodd" fill="#E31836" d="M271.679,9.177c-1.276,0.966-3.218,1.269-5.506,1.224    C266.502,8.53,270.571,8.374,271.679,9.177z"/>
		<path fill-rule="evenodd" clip-rule="evenodd" fill="#E31836" d="M265.562,9.789c-2.585,2.922-6.413,4.6-10.401,6.118    C257.997,13.237,260.296,10.03,265.562,9.789z"/>
		<path fill-rule="evenodd" clip-rule="evenodd" fill="#E31836" d="M190.921,10.401c2.105,1.736-1.573,7.081-2.447,9.789    c-1.823-0.012-0.785-2.886-1.836-3.671c-2.203,1.271-1.314,2.854-1.224,5.506c-3.064,0.617-2.153-2.741-4.282-3.059    c-1.997-0.161-1.768,1.903-3.06,2.447c-5.247-1.876-8.824,2.925-14.684,2.447C170.31,17.118,181.405,14.548,190.921,10.401z"/>
		<path fill-rule="evenodd" clip-rule="evenodd" fill="#E31836" d="M264.338,44.662c-0.771-5.734,5.799-9.241,8.564-13.46    c-3.477,0.202-5.507,7.13-9.788,8.565c2.065-5.48,5.731-9.36,10.4-12.236c2.58-0.104-0.011,0.94,0,1.835    c1.825-1.244,6.141-5.272,11.013-5.506c-2.063-1.823-4.8,0.884-7.342,0.612c0.115-2.332,3.414-1.48,3.671-3.671    c-0.693-1.24-2.712,1.319-4.895,0.612c1.358-1.905,3.872-2.654,6.729-3.059c2.08,0.572,2.169,3.134,5.507,2.447    c-0.864-2.689-2.345-1.597,0-3.671c-0.154-2.089-3.241-1.246-3.671-3.059c-0.095-1.521,0.961-1.894,1.224-3.059    c4.641,2.293,7.107,6.478,11.013,9.789c6.759,5.732,15.576,8.087,22.637,12.848c5.766,3.888,8.725,10.042,11.624,16.519    c9.734,29.163-12.805,47.87-30.59,60.569c-1.55-3.189-1.672-7.6,2.447-7.954c0.077,1.098-0.749,1.291-0.612,2.447    c13.018-12.668,35.027-27.354,26.92-53.227c-2.021,3.443,0.385,12.384-3.671,15.295c-1.947-5.541,3.072-9.599,0.611-15.295    c0.157-1.271,2.688-0.167,3.06-1.224c-0.73-2.471-2.095-0.763-3.671-1.835c0-1.428,0-2.855,0-4.283    c-3.984-3.036-8.747-8.007-13.46-10.401c-1.716,0.978,0.859,2.754,0,4.895c-2.86-0.811-1.453-5.889-3.671-7.342    c-2.22,2.471-1.564,7.816-5.506,8.565c-0.995-2.504,4.818-5.908,1.835-10.401c-2.913,4.429-6.906,7.777-9.177,12.848    c-0.188,1.912,1.768-1.555,1.835,0.612c0.063,1.954-3.177,4.114-3.671,1.835c-3.417,3.924-6.823,7.859-11.013,11.012    c4.033-10.65,13.355-16.011,18.967-25.084c-6.94,2.035-8.972,14.276-17.743,16.519c4.648-6.772,10.039-12.803,15.907-18.354    c-14.037,7.111-20.571,26.185-30.591,37.932c5.285-1.853,6.018-8.258,11.625-9.789c-3.966,5.62-9.027,10.144-14.071,14.684    c-3.303-20.154,12.076-27.402,20.801-40.379c-3.094,1.813-3.249,2.641-7.342,1.224c4.605-2.532,9.146-5.129,15.296-6.118    c-0.341-1.495-1.436-2.235-2.447-3.059C277.474,24.201,274.304,35.089,264.338,44.662z M285.751,23.249    c0.779,0.834,2.997,0.945,3.059-0.612C287.895,21.667,286.308,22.187,285.751,23.249z M286.363,36.708    c3.758-2.157,6.343-5.485,9.789-7.954C292.475,28.646,288.586,33.351,286.363,36.708z"/>
		<path fill-rule="evenodd" clip-rule="evenodd" fill="#E31836" d="M310.223,13.46c3.035,1.735-0.696,5.308-3.059,5.506    C306.952,15.898,309.873,15.963,310.223,13.46z"/>
		<path fill-rule="evenodd" clip-rule="evenodd" fill="#E31836" d="M215.393,15.295c-0.801,1.85-2.744,2.558-5.506,2.447    C209.711,15.158,214.249,12.724,215.393,15.295z"/>
		<path fill-rule="evenodd" clip-rule="evenodd" fill="#E31836" d="M253.937,14.071c-1.562,1.292-1.919,3.791-4.282,4.283    C248.806,16.747,251.359,14.194,253.937,14.071z"/>
		<path fill-rule="evenodd" clip-rule="evenodd" fill="#E31836" d="M280.245,14.684c-0.745,1.701-3.758,1.136-6.118,1.224    C274.98,12.972,277.42,15,280.245,14.684z"/>
		<path fill-rule="evenodd" clip-rule="evenodd" fill="#E31836" d="M304.717,18.966c0.014,1.441-1.054,1.802-0.611,3.671    c-2.121-0.122-3.978-0.509-3.671-3.059C301.223,18.735,303.092,18.972,304.717,18.966z"/>
		<path fill-rule="evenodd" clip-rule="evenodd" fill="#E31836" d="M272.292,20.189c-1.567,2.308-3.996,3.754-6.729,4.895    C266.727,22.375,268.986,20.759,272.292,20.189z"/>
		<path fill-rule="evenodd" clip-rule="evenodd" fill="#E31836" d="M215.393,23.249c-1.869-0.442-2.229,0.625-3.671,0.612    C211.59,22.584,215.416,20.553,215.393,23.249z"/>
		<path fill-rule="evenodd" clip-rule="evenodd" fill="#8B0F04" d="M288.81,22.637c-0.062,1.557-2.279,1.446-3.059,0.612    C286.308,22.187,287.895,21.667,288.81,22.637z"/>
		<path fill-rule="evenodd" clip-rule="evenodd" fill="#E31836" d="M274.126,23.249c-0.762,1.685-1.927,2.968-4.282,3.059    C270.769,24.785,271.942,23.511,274.126,23.249z"/>
		<path fill-rule="evenodd" clip-rule="evenodd" fill="#E31836" d="M203.157,24.472c0.596,0.017,0.476,0.749,0.612,1.224    c-0.82,2.239-2.806,3.312-4.895,4.283C199.524,27.365,201.088,25.667,203.157,24.472z"/>
		<path fill-rule="evenodd" clip-rule="evenodd" fill="#E31836" d="M211.111,24.472c-1.418,1.438-2.006,3.705-4.895,3.671    C208.044,27.116,208.23,24.447,211.111,24.472z"/>
		<path fill-rule="evenodd" clip-rule="evenodd" fill="#E31836" d="M161.554,25.696c0.473,2.384-2.023,3.41-3.06,2.447    C158.407,26.22,160.064,26.042,161.554,25.696z"/>
		<path fill-rule="evenodd" clip-rule="evenodd" fill="#E31836" d="M289.422,25.696c-1.345,2.742-8.006,5.449-12.849,6.73    C279.007,28.333,285.492,28.291,289.422,25.696z"/>
		<path fill-rule="evenodd" clip-rule="evenodd" fill="#E31836" d="M173.178,26.919c1.65-1.211,5.467,0.628,5.507,3.059    C176.652,29.156,175.592,27.36,173.178,26.919z"/>
		<path fill-rule="evenodd" clip-rule="evenodd" fill="#E31836" d="M221.511,39.768c0.747,2.924,3.806,3.537,3.671,7.342    c-2.414-1.053-2.729-4.205-4.895-5.506c-2.254,3.056,1.956,6.367,3.671,9.177c2.966,4.859,4.954,10.421,6.118,17.13    c-7.514,0.987-7.583-5.469-9.789-9.789c2.829-1.554,3.427,3.73,5.507,4.895c-2.776-8.848-7.312-15.937-14.072-20.801    c-0.014-1.441,1.054-1.801,0.612-3.671c6.165,1.842,7.899-11.524,11.013-12.236c3.26-0.746,6.348,2.963,6.117,6.118    C229.21,35.926,224.128,37.225,221.511,39.768z"/>
		<path fill-rule="evenodd" clip-rule="evenodd" fill="#E31836" d="M168.896,28.143c1.746,1.999,6.485-0.765,6.729,3.671    c-3.288,0.433-5.013-0.698-7.342-1.224C168.207,29.493,169.033,29.3,168.896,28.143z"/>
		<path fill-rule="evenodd" clip-rule="evenodd" fill="#8B0F04" d="M296.152,28.755c-3.446,2.468-6.031,5.796-9.789,7.954    C288.586,33.351,292.475,28.646,296.152,28.755z"/>
		<path fill-rule="evenodd" clip-rule="evenodd" fill="#E31836" d="M263.115,30.59c1.91,1.364-1.204,2.827-1.224,4.283    C260.097,33.626,262.719,31.671,263.115,30.59z"/>
		<path fill-rule="evenodd" clip-rule="evenodd" fill="#E31836" d="M167.672,31.814c2.164,0.691,5.311,0.399,5.506,3.059    c-2.039,0-4.078,0-6.118,0C166.865,33.454,167.159,32.524,167.672,31.814z"/>
		<path fill-rule="evenodd" clip-rule="evenodd" fill="#E31836" d="M189.085,31.814c2.822,2.072,3.412,6.376,7.953,6.73    c3.069-1.214,4.381-4.185,7.954-4.895c-1.367,2.479-0.048,3.797,1.835,1.835c1.406,2.239-4.497,2.505-1.224,5.506    c-1.952,0.524-1.892-0.963-3.059-1.224c-2.331,0.116-0.375,4.519-1.836,5.506c-1.225-0.814-1.362-2.716-1.835-4.283    c-2.45,2.641-8.494,3.215-10.4-0.612c-3.036-0.565-7.448,0.678-7.954,0.612c0.086-2.77,4.149-1.561,6.73-1.835    C187.506,36.895,186.813,33.907,189.085,31.814z"/>
		<path fill-rule="evenodd" clip-rule="evenodd" fill="#E31836" d="M214.169,31.814c-0.547,3.528-4.92,0.497-6.729,1.835    C208.471,31.826,211.597,32.097,214.169,31.814z"/>
		<path fill-rule="evenodd" clip-rule="evenodd" fill="#E31836" d="M244.148,34.261c1.277,0.967,3.07,1.417,3.06,3.671    C244.294,38.645,243.33,35.386,244.148,34.261z"/>
		<path fill-rule="evenodd" clip-rule="evenodd" fill="#E31836" d="M250.266,36.708c2.851,1.609,5.062,5.112,4.283,8.565    C251.643,44.174,249.583,39.405,250.266,36.708z"/>
		<path fill-rule="evenodd" clip-rule="evenodd" fill="#E31836" d="M307.165,37.32c0.988-0.172,1.054,0.578,1.835,0.612    c-1.592,1.059-0.252,5.049-3.059,4.895c0.1-0.711-0.135-1.089-0.611-1.224C305.641,39.876,306.809,39.004,307.165,37.32z"/>
		<path fill-rule="evenodd" clip-rule="evenodd" fill="#E31836" d="M314.506,37.32c1.852,0.799,2.434,2.869,2.447,5.506    C315.035,42.094,314.687,39.791,314.506,37.32z"/>
		<path fill-rule="evenodd" clip-rule="evenodd" fill="#E31836" d="M205.604,44.05c1.118,1.125,2.419,2.067,3.06,3.671    C207.101,49.216,203.917,45.803,205.604,44.05z"/>
		<path fill-rule="evenodd" clip-rule="evenodd" fill="#E31836" d="M303.494,44.05c0.06,6.182-5.959,11.576-10.4,15.295    C295.243,52.93,299.229,48.351,303.494,44.05z"/>
		<path fill-rule="evenodd" clip-rule="evenodd" fill="#E31836" d="M307.777,44.662c1.673,5.205-4.681,12.255-8.565,15.907    C301.635,54.836,305.569,50.612,307.777,44.662z"/>
		<path fill-rule="evenodd" clip-rule="evenodd" fill="#E31836" d="M310.835,44.662c0.988-0.172,1.053,0.578,1.835,0.612    c-0.61,2.244,0.313,6.023-2.447,6.118C309.632,48.262,309.944,47.357,310.835,44.662z"/>
		<path fill-rule="evenodd" clip-rule="evenodd" fill="#E31836" d="M240.477,45.886c5.603,1.785,7.499,10.386,8.565,14.683    C247.196,54.666,241.592,52.52,240.477,45.886z"/>
		<path fill-rule="evenodd" clip-rule="evenodd" fill="#E31836" d="M195.815,47.109c1.998,0.18,1.52,4.619-0.611,4.283    C194.333,49.512,194.929,48.641,195.815,47.109z"/>
		<path fill-rule="evenodd" clip-rule="evenodd" fill="#8B0F04" d="M156.66,47.721c0.616,1.714-0.888,5.841-4.283,5.506    C150.485,50.237,153.958,48.079,156.66,47.721z"/>
		<path fill-rule="evenodd" clip-rule="evenodd" fill="#E31836" d="M214.169,51.392c-0.752,3.618,2.656,8.349,3.671,12.236    c2.046-1.692-1.17-3.275-0.611-5.506c3.154,1.74,4.247,5.542,5.506,9.177c-13.715,1.886-18.038-10.359-20.189-19.578    c1.601,0.847,0.925,3.97,2.447,4.894c0.533-1.666,1.588-3.585,3.059-1.223c1.78-0.532,0.688-0.916,0.612-2.447    c3.8-0.465,3.488,2.61,6.729,1.224c-0.095,2.949,2.633,3.078,1.836,6.729C215.2,56.072,215.492,52.925,214.169,51.392z"/>
		<path fill-rule="evenodd" clip-rule="evenodd" fill="#E31836" d="M247.819,47.721c1.347,0.896,2.866,1.621,2.447,4.283    C248.897,51.173,246.604,49.242,247.819,47.721z"/>
		<path fill-rule="evenodd" clip-rule="evenodd" fill="#E31836" d="M235.583,48.333c1.729-0.506,1.585,0.862,3.06,0.612    C238.821,50.533,234.505,51.07,235.583,48.333z"/>
		<path fill-rule="evenodd" clip-rule="evenodd" fill="#E31836" d="M94.255,49.557c0.048,2.291-2.399,2.087-4.283,2.447    c-0.455,2.494,1.972,2.106,1.224,4.894c-4.467,0.048-1.61-3.505-3.059-6.118C89.751,49.947,92.309,50.057,94.255,49.557z"/>
		<path fill-rule="evenodd" clip-rule="evenodd" fill="#E31836" d="M228.242,49.557c2.467,1.695,3.302,0.704,6.117,0    c0,0.815,0,1.631,0,2.447C232.093,52.362,228.061,53.186,228.242,49.557z"/>
		<path fill-rule="evenodd" clip-rule="evenodd" fill="#E31836" d="M182.967,51.392c2.793,0.075,0.333,3.471,0,4.282    C181.32,54.951,182.97,52.484,182.967,51.392z"/>
		<path fill-rule="evenodd" clip-rule="evenodd" fill="#E31836" d="M244.148,56.286c-1.479,2.854,0.049,5.12,2.447,5.506    c0.289,1.921-1.646,1.617-1.835,3.059c1.986,0.355,2.846-0.417,4.282-0.612c-1.703,2.341-3.808,3.34-3.671,6.118    c0.093,1.131,2.072,0.375,2.447,1.224c-1.914,4.66-3.191,10.057-3.671,15.907c-2.279,0.647-1.975-1.288-3.059-1.835    c4.094-10.821,2.856-27.235-6.73-31.202C237.495,49.209,240.405,55.337,244.148,56.286z"/>
		<path fill-rule="evenodd" clip-rule="evenodd" fill="#E31836" d="M255.161,52.004c3.885,1.214,3.211,6.985,4.283,11.012    C254.439,63.234,253.905,56.043,255.161,52.004z"/>
		<path fill-rule="evenodd" clip-rule="evenodd" fill="#E31836" d="M230.077,55.674c6.158,0.775,9.125,4.743,9.789,11.013    C233.143,70.757,232.482,59.825,230.077,55.674z M236.806,66.075c-0.642-3.233-0.978-6.772-3.671-7.954    C234.847,60.285,234.66,64.348,236.806,66.075z"/>
		<path fill-rule="evenodd" clip-rule="evenodd" fill="#E31836" d="M41.64,64.24c2.472-6.239,18.45-5.641,26.308-6.73    c4.258,1.044,7.406,3.199,8.565,7.342c-1.752-0.899-2.297-3.005-4.283-3.671c-0.694,0.116-0.34,0.614,0,0.612    C63.799,59.375,49.297,58.293,41.64,64.24z"/>
		<path fill-rule="evenodd" clip-rule="evenodd" fill="#8B0F04" d="M233.135,58.122c2.693,1.182,3.029,4.72,3.671,7.954    C234.66,64.348,234.847,60.285,233.135,58.122z"/>
		<path fill-rule="evenodd" clip-rule="evenodd" fill="#E31836" d="M80.795,59.957c2.327-0.881,4.41,3.734,4.895,6.73    C83.316,65.186,83.18,61.448,80.795,59.957z"/>
		<path fill-rule="evenodd" clip-rule="evenodd" fill="#8B0F04" d="M95.479,59.345c1.725,1.765-1.698,3.574-1.835,5.506    C91.473,62.641,94.762,60.698,95.479,59.345z"/>
		<path fill-rule="evenodd" clip-rule="evenodd" fill="#E31836" d="M91.196,59.957c-2.258,4.121,2.528,11.656-1.835,15.295    c-1.29-2.976,0.511-11.541-1.224-14.072C88.227,59.843,89.678,59.867,91.196,59.957z"/>
		<path fill-rule="evenodd" clip-rule="evenodd" fill="#8B0F04" d="M99.761,63.016c1.017-1.227,1.643-2.844,3.671-3.059    C102.416,61.184,101.79,62.801,99.761,63.016z"/>
		<path fill-rule="evenodd" clip-rule="evenodd" fill="#E31836" d="M302.882,60.569c3.576,9.396-8.035,14.354-10.401,23.249    c5.411-1.523,6.263-7.605,11.013-9.789c-3.028,4.925-6.77,9.138-9.177,14.684c-2.935-1.349-6.012-2.554-6.118-6.73    c6.505-1.652,7.818-8.496,12.236-12.236c-1.986-0.354-2.847,0.417-4.283,0.612C297.625,66.325,301.132,64.326,302.882,60.569z"/>
		<path fill-rule="evenodd" clip-rule="evenodd" fill="#E31836" d="M157.271,62.404c1.784-1.544,3.771,1.914,4.895,3.059    C160.341,67.049,159.147,62.799,157.271,62.404z"/>
		<path fill-rule="evenodd" clip-rule="evenodd" fill="#E31836" d="M164.613,61.792c1.934,0.116,1.419,4.52,0.612,5.506    C163.292,67.183,163.806,62.78,164.613,61.792z"/>
		<path fill-rule="evenodd" clip-rule="evenodd" fill="#E31836" d="M230.077,61.792c1.434,0.927,3.223,3.672,1.835,5.506    C230.232,66.532,230.327,63.99,230.077,61.792z"/>
		<path fill-rule="evenodd" clip-rule="evenodd" fill="#8B0F04" d="M182.967,63.628c0.612,0,1.224,0,1.836,0    c-0.188,5.083,1.9,7.888,2.447,12.236C183.469,74.138,184.307,67.794,182.967,63.628z"/>
		<path fill-rule="evenodd" clip-rule="evenodd" fill="#E31836" d="M328.578,64.852c2.574,0.353,0.538,5.53-1.224,5.506    C326.79,67.55,328.885,67.402,328.578,64.852z"/>
		<path fill-rule="evenodd" clip-rule="evenodd" fill="#E31836" d="M252.713,65.463c2.686-0.442,2.446,2.04,2.447,4.283    c-2.005-0.995-2.339,0.138-4.895,0c0-0.816,0-1.631,0-2.447C252.19,68.127,252.369,67.489,252.713,65.463z"/>
		<path fill-rule="evenodd" clip-rule="evenodd" fill="#E31836" d="M289.422,65.463c-0.25,4.243-3.794,10.477-9.178,11.625    C281.764,71.673,286.909,69.884,289.422,65.463z"/>
		<path fill-rule="evenodd" clip-rule="evenodd" fill="#E31836" d="M68.559,70.358c-7.402-5.489-21.99-2.694-28.755,1.224    c6.584-5.892,26.317-9.062,31.202,0c-5.025-1.331-20.005-3.216-27.531,0.612C48.345,67.593,61.572,67.579,68.559,70.358z"/>
		<path fill-rule="evenodd" clip-rule="evenodd" fill="#E31836" d="M171.343,66.075c2.531,1.339,0.006,6.948,0.611,8.565    C167.725,73.919,170.74,68.829,171.343,66.075z"/>
		<path fill-rule="evenodd" clip-rule="evenodd" fill="#E31836" d="M256.384,66.075c1.961-0.171,2.225,2.68,1.224,3.671    C256.045,69.678,256.394,67.697,256.384,66.075z"/>
		<path fill-rule="evenodd" clip-rule="evenodd" fill="#E31836" d="M178.073,66.687c2.282-0.243,0.257,3.822,1.836,4.283    C178.515,72.716,177.866,68.566,178.073,66.687z"/>
		<path fill-rule="evenodd" clip-rule="evenodd" fill="#E31836" d="M311.447,66.687c1.386,5.31-6.939,11.377-10.4,15.907    c-2.264-0.363,2.061-3.81,3.06-4.895C303.278,70.754,309.95,71.308,311.447,66.687z"/>
		<path fill-rule="evenodd" clip-rule="evenodd" fill="#E31836" d="M240.477,69.746c0.515,1.525,0.802,3.278,0.612,5.506    c-1.348,0.552-2.628-0.087-4.895,0.612c-0.443,1.871,1.056,1.799,0.611,3.671c-5.565-5.659-17.382-6.988-25.695-5.506    c1.912,2.778,9.435-0.054,9.789,4.283c-4.458,0.644-11.638-2.73-17.131-1.224c-1.715,0.601,0.889,1.632-0.612,2.447    c-10.631,2.013-17.039,8.249-20.801,17.13c-1.912-1.351-1.712-4.814-3.06-6.729c8.159-10.406,15.934-19.204,29.367-21.414    C217.994,66.987,228.264,72.088,240.477,69.746z"/>
		<path fill-rule="evenodd" clip-rule="evenodd" fill="#E31836" d="M119.951,69.134c2.844,2.663,6.257,4.755,7.342,9.177    C124.684,75.415,121.387,73.205,119.951,69.134z"/>
		<path fill-rule="evenodd" clip-rule="evenodd" fill="#E31836" d="M133.411,81.982c-3.894-3.856-7.467-8.032-10.4-12.848    C127.54,72.354,131.006,76.638,133.411,81.982z"/>
		<path fill-rule="evenodd" clip-rule="evenodd" fill="#E31836" d="M126.069,69.746c5.059,4.118,9.208,9.146,11.625,15.907    C133.871,80.299,130.021,74.972,126.069,69.746z"/>
		<path fill-rule="evenodd" clip-rule="evenodd" fill="#E31836" d="M69.783,74.641c-6.038-2.418-12.653-3.599-20.801-2.447    C54.652,69.24,66.526,69.823,69.783,74.641z"/>
		<path fill-rule="evenodd" clip-rule="evenodd" fill="#E31836" d="M321.236,70.358c3.071,1.692,0.141,7.298-2.447,7.342    C317.89,75.703,319.693,71.875,321.236,70.358z"/>
		<path fill-rule="evenodd" clip-rule="evenodd" fill="#E31836" d="M118.728,72.193c1.831-0.99,4.427,2.488,4.895,4.895    C121.619,75.828,120.262,73.922,118.728,72.193z"/>
		<path fill-rule="evenodd" clip-rule="evenodd" fill="#E31836" d="M290.034,71.582c-1.005,3.686-3.641,5.74-6.729,7.342    C283.201,76.423,287.242,73.184,290.034,71.582z"/>
		<path fill-rule="evenodd" clip-rule="evenodd" fill="#E31836" d="M48.37,72.193c-1.692,0.959-3.402,1.9-5.506,2.447    C43.663,72.789,45.732,72.207,48.37,72.193z"/>
		<path fill-rule="evenodd" clip-rule="evenodd" fill="#E31836" d="M42.251,72.805c-7.177,4.855-14.148,9.917-20.802,15.295    C26.166,80.784,33.318,75.904,42.251,72.805z"/>
		<path fill-rule="evenodd" clip-rule="evenodd" fill="#E31836" d="M134.634,75.252c5.928,1.621,9.398,10.993,10.401,19.578    C142.081,87.792,140.436,79.444,134.634,75.252z"/>
		<path fill-rule="evenodd" clip-rule="evenodd" fill="#E31836" d="M291.257,75.252c-0.257,3.414-2.354,4.987-4.895,6.118    C285.622,79.173,288.309,75.736,291.257,75.252z"/>
		<path fill-rule="evenodd" clip-rule="evenodd" fill="#E31836" d="M325.519,75.252c-1.654,2.22-2.056,5.694-4.895,6.73    C322.288,79.771,322.136,75.745,325.519,75.252z"/>
		<path fill-rule="evenodd" clip-rule="evenodd" fill="#E31836" d="M312.67,75.864c0.988-0.172,1.054,0.578,1.836,0.612    c-1.99,7.798-8.887,10.691-13.46,15.907C301.479,85.878,310.765,82.934,312.67,75.864z"/>
		<path fill-rule="evenodd" clip-rule="evenodd" fill="#E31836" d="M153.6,77.088c5.265,4.071,9.644,11.757,8.565,20.189    C160.768,89.09,157.393,82.881,153.6,77.088z"/>
		<path fill-rule="evenodd" clip-rule="evenodd" fill="#E31836" d="M170.731,77.088c9.678,13.375,16.998,33.874,15.907,58.122    c-0.543,12.074-0.98,21.79-4.282,31.203c-0.946,2.695-1.829,6.674-4.895,7.342c4.32-15.358,9.175-35.405,7.342-55.063    C183.279,102.358,175.668,88.487,170.731,77.088z"/>
		<path fill-rule="evenodd" clip-rule="evenodd" fill="#E31836" d="M178.073,77.088c1.423,0.616,1.973,2.106,1.836,4.283    C177.47,81.77,178.156,79.044,178.073,77.088z"/>
		<path fill-rule="evenodd" clip-rule="evenodd" fill="#E31836" d="M214.782,78.923c-2.772,1.864-5.589,0.379-7.342,0    C208.433,76.665,213.658,79.09,214.782,78.923z"/>
		<path fill-rule="evenodd" clip-rule="evenodd" fill="#8B0F04" d="M108.327,78.312c1.97,1.497,1.604,5.33,1.835,8.565    C109.079,84.493,108.708,81.397,108.327,78.312z"/>
		<path fill-rule="evenodd" clip-rule="evenodd" fill="#E31836" d="M157.883,78.923c3.973,4.223,7.531,11.995,6.729,18.966    C163.177,90.76,160.757,84.615,157.883,78.923z"/>
		<path fill-rule="evenodd" clip-rule="evenodd" fill="#E31836" d="M209.275,81.371c-2.735,2.567-7.246,3.359-10.4,5.506    C200.449,83.149,204.357,81.754,209.275,81.371z"/>
		<path fill-rule="evenodd" clip-rule="evenodd" fill="#E31836" d="M297.988,83.818c1.171,1.203,3.769,3.13,4.282,0    c2.189,1.991-4.051,5.033-5.506,7.341c-0.137,1.826,2.259,2.081,0.611,3.671c-2.918,0.063-2.724-2.987-3.671-4.894    C295.741,88.504,297.635,86.933,297.988,83.818z"/>
		<path fill-rule="evenodd" clip-rule="evenodd" fill="#E31836" d="M191.533,88.101c0.325,2.176-2.427,6.535-5.506,7.341    C186.583,91.716,189.639,90.49,191.533,88.101z"/>
		<path fill-rule="evenodd" clip-rule="evenodd" fill="#E31836" d="M164.613,88.712c8.461,12.021,11.579,35.36,8.565,53.227    c-0.823-13.842-0.36-33.654-5.506-46.498c-1.38,0.456-0.239,3.432-0.612,4.895C165.427,97.279,165.659,92.357,164.613,88.712z"/>
		<path fill-rule="evenodd" clip-rule="evenodd" fill="#E31836" d="M308.388,88.712c-0.787,1.048-1.265,2.406-3.059,2.447    C305.444,89.438,306.393,88.553,308.388,88.712z"/>
		<path fill-rule="evenodd" clip-rule="evenodd" fill="#E31836" d="M198.875,89.324c-0.346,1.49-0.523,3.147-2.447,3.059    C196.773,90.893,196.951,89.236,198.875,89.324z"/>
		<path fill-rule="evenodd" clip-rule="evenodd" fill="#E31836" d="M96.09,89.936c0.711-0.1,1.089,0.135,1.224,0.612    c-0.794,6.959-0.625,18.133-1.835,22.637c0-1.02,0-2.04,0-3.059C95.084,102.797,96.007,96.787,96.09,89.936z"/>
		<path fill-rule="evenodd" clip-rule="evenodd" fill="#E31836" d="M200.098,92.383c-1.226,1.222-1.787,3.107-3.671,3.671    C197.538,94.717,197.43,92.162,200.098,92.383z"/>
		<path fill-rule="evenodd" clip-rule="evenodd" fill="#E31836" d="M308.388,92.383c-2.854,3.061-6.076,5.752-9.789,7.954    C300.443,96.266,303.839,93.749,308.388,92.383z"/>
		<path fill-rule="evenodd" clip-rule="evenodd" fill="#E31836" d="M301.659,92.995c0.356,2.804-2.043,2.852-3.06,4.282    C296.079,96.299,299.872,93.471,301.659,92.995z"/>
		<path fill-rule="evenodd" clip-rule="evenodd" fill="#E31836" d="M75.901,98.501c-2.804,14.86-7.804,35.669-6.118,55.062    c-2.441-8.48-1.251-21.178,0-31.813c-6.242,22.599-1.35,50.684,7.954,67.911c-2.864-1.841-4.161-6.121-5.506-9.789    c-7.378-20.114-9.95-49.033-1.224-70.97c0.903,2.754-2.002,6.959-1.224,11.625C71.846,113.208,73.007,104.989,75.901,98.501z"/>
		<path fill-rule="evenodd" clip-rule="evenodd" fill="#8B0F04" d="M239.866,98.501c2.151,2.419,2.26,9.168,1.224,12.848    c-1.295-1.399,0.272-2.167-0.612-4.283c-8.247,15.523-6.276,37.497-14.071,53.228c0.86-11.172,5.287-18.777,6.118-29.979    c-3.166,1.058-0.508,5.53-2.447,8.565c-1.221-4.811-1.028-9.7,3.059-11.012C233.236,115.936,239.211,109.88,239.866,98.501z"/>
		<path fill-rule="evenodd" clip-rule="evenodd" fill="#E31836" d="M222.735,99.725c2.291,3.941-1.914,11.384-2.447,16.519    C218.999,111.072,220.261,103.171,222.735,99.725z"/>
		<path fill-rule="evenodd" clip-rule="evenodd" fill="#8B0F04" d="M231.3,99.725c1.36,7.17-3.227,18.462-4.895,26.308    C226.182,117.853,229.668,108.087,231.3,99.725z"/>
		<path fill-rule="evenodd" clip-rule="evenodd" fill="#8B0F04" d="M234.971,99.725c1.715,7.257-2.69,18.9-4.282,26.92    C231.18,116.735,234.175,109.33,234.971,99.725z"/>
		<path fill-rule="evenodd" clip-rule="evenodd" fill="#E31836" d="M301.659,99.725c1.888,1.342-0.861,3.17-2.447,3.059    C298.75,100.488,301.548,101.45,301.659,99.725z"/>
		<path fill-rule="evenodd" clip-rule="evenodd" fill="#8B0F04" d="M25.732,102.172c-0.899,8.484-2.699,21.364-1.835,33.649    C21.393,125.648,22.831,111.909,25.732,102.172z"/>
		<path fill-rule="evenodd" clip-rule="evenodd" fill="#E31836" d="M257.608,102.172c1.399-0.368,2.224,4.234,0,3.671    C257.664,103.557,258.293,104.099,257.608,102.172z"/>
		<path fill-rule="evenodd" clip-rule="evenodd" fill="#8B0F04" d="M30.627,104.619c0.504,7.645-1.354,18.221-0.612,28.144    C27.783,124.859,28.548,111.987,30.627,104.619z"/>
		<path fill-rule="evenodd" clip-rule="evenodd" fill="#E31836" d="M279.021,105.231c1.912-0.28,1.956,1.307,1.836,3.059    C278.945,108.57,278.901,106.983,279.021,105.231z"/>
		<path fill-rule="evenodd" clip-rule="evenodd" fill="#E31836" d="M268.009,108.29c2.533-0.086,0.637,4.257,1.223,6.118    C266.699,114.495,268.595,110.151,268.009,108.29z"/>
		<path fill-rule="evenodd" clip-rule="evenodd" fill="#E31836" d="M264.338,108.902c2.211-0.58,0.853,2.41,1.224,3.671    C263.999,112.504,264.347,110.524,264.338,108.902z"/>
		<path fill-rule="evenodd" clip-rule="evenodd" fill="#E31836" d="M211.722,110.125c0.622,0.397,0.633,1.407,1.836,1.224    c-2.468,5.078-3.267,11.825-4.895,17.743C207.435,121.606,210.415,116.732,211.722,110.125z"/>
		<path fill-rule="evenodd" clip-rule="evenodd" fill="#E31836" d="M75.901,111.349c1.588,5.267-1.721,10.917-0.612,17.743    C72.859,125.007,75.318,116.378,75.901,111.349z"/>
		<path fill-rule="evenodd" clip-rule="evenodd" fill="#E31836" d="M132.799,111.349c3.138,0.787,5.043,9.63,0,9.789    c0.331,5.022-2.442,6.938-4.895,9.177c2.351-5.822-0.248-10.831-1.224-16.519c1.079,0.534,1.894,2.047,2.447,0    c1.612,0.427,1.293,2.785,3.059,3.059c-0.034-2.209-1.525-2.961-1.835-4.895c2.842,0.829,3.272,4.069,3.671,7.342    C135.971,116.715,133.107,113.713,132.799,111.349z M129.74,118.691c-3.4-8.978,2.529,13.467,1.224,2.447    C129.795,119.321,129.938,119.213,129.74,118.691z"/>
		<path fill-rule="evenodd" clip-rule="evenodd" fill="#E31836" d="M199.486,111.349c0.612,0,1.224,0,1.836,0    c0.442,3.093-0.896,4.407-2.447,5.506C196.323,116.029,199.016,112.882,199.486,111.349z"/>
		<path fill-rule="evenodd" clip-rule="evenodd" fill="#E31836" d="M214.782,111.349c0.711-0.1,1.088,0.135,1.224,0.612    c-2.443,8.365-3.198,18.42-6.73,25.696C209.853,128.253,212.081,120.032,214.782,111.349z"/>
		<path fill-rule="evenodd" clip-rule="evenodd" fill="#E31836" d="M217.84,111.349c2.948,1.047-0.591,5.279-0.611,7.342    C215.614,116.837,217.773,113.551,217.84,111.349z"/>
		<path fill-rule="evenodd" clip-rule="evenodd" fill="#E31836" d="M124.234,113.185c3.784,4.218,5.95,17.851,0,21.413    C127.391,128.082,126.393,119.986,124.234,113.185z"/>
		<path fill-rule="evenodd" clip-rule="evenodd" fill="#E31836" d="M72.842,116.855c1.904,4.017-1.459,13.169-0.612,20.189    C69.256,131.255,72.57,123.246,72.842,116.855z"/>
		<path fill-rule="evenodd" clip-rule="evenodd" fill="#E31836" d="M278.41,116.855c1.271,0.971,3.255,1.231,4.895,1.835    c-0.294,7.864-5.253,11.062-7.342,17.13C277.692,127.749,277.41,125.189,278.41,116.855z"/>
		<path fill-rule="evenodd" clip-rule="evenodd" fill="#8B0F04" d="M17.779,121.138c1.889,12.183,3.843,24.3,6.118,36.096    C20.255,146.806,18.024,134.964,17.779,121.138z"/>
		<path fill-rule="evenodd" clip-rule="evenodd" fill="#E31836" d="M79.572,126.033c1.419,3.067,0.21,8.763,0.612,12.848    C78.274,136.165,78.812,129.611,79.572,126.033z"/>
		<path fill-rule="evenodd" clip-rule="evenodd" fill="#8B0F04" d="M36.745,130.927c0.855-0.014,0.935,5.98,1.224,8.565    C36.202,137.996,36.869,134.066,36.745,130.927z"/>
		<path fill-rule="evenodd" clip-rule="evenodd" fill="#8B0F04" d="M56.323,131.539c1.148,4.417,0.639,12.755,1.224,18.966    C55.49,145.832,56.609,137.982,56.323,131.539z"/>
		<path fill-rule="evenodd" clip-rule="evenodd" fill="#E31836" d="M283.304,133.374c-0.194,2.458-1.105,4.197-3.06,4.895    C281.375,136.748,280.937,133.658,283.304,133.374z"/>
		<path fill-rule="evenodd" clip-rule="evenodd" fill="#8B0F04" d="M31.239,134.598c1.597-1.556-0.431,5.703,1.224,6.118    C30.375,142.763,31.52,136.386,31.239,134.598z"/>
		<path fill-rule="evenodd" clip-rule="evenodd" fill="#8B0F04" d="M39.192,157.234c-3.788-5.186-2.99-14.956-4.283-22.637    c2.309-0.929,1.043,4.27,1.224,5.507C36.924,145.523,38.11,152.786,39.192,157.234z"/>
		<path fill-rule="evenodd" clip-rule="evenodd" fill="#8B0F04" d="M223.958,135.821c1.689,1.436,1.125,10.801-1.224,12.236    C222.62,143.456,224.195,140.544,223.958,135.821z"/>
		<path fill-rule="evenodd" clip-rule="evenodd" fill="#8B0F04" d="M243.537,136.433c1.149,5.364-3.219,14.275-4.283,20.19    C238.375,150.028,242.339,142.989,243.537,136.433z"/>
		<path fill-rule="evenodd" clip-rule="evenodd" fill="#8B0F04" d="M28.18,137.657c2.675,2.832,0.538,10.475,1.224,15.295    C27.227,149.623,28.538,142.806,28.18,137.657z"/>
		<path fill-rule="evenodd" clip-rule="evenodd" fill="#8B0F04" d="M37.357,140.716c1.869,2.21,1.463,6.694,1.835,10.4    C37.744,148.486,38.031,144.12,37.357,140.716z"/>
		<path fill-rule="evenodd" clip-rule="evenodd" fill="#E31836" d="M260.667,141.328c1.429,3.233-1.119,9.027-2.447,13.459    C255.259,150.591,259.919,145.645,260.667,141.328z"/>
		<path fill-rule="evenodd" clip-rule="evenodd" fill="#8B0F04" d="M248.431,142.552c-1.732,10.505-8.007,21.767-12.236,31.813    c-2.871-1.173-1.466-5.682-1.224-8.565c1.964-0.536,1.269,1.587,2.447,1.836C242.039,160.224,244.517,150.67,248.431,142.552z"/>
		<path fill-rule="evenodd" clip-rule="evenodd" fill="#E31836" d="M286.363,143.775c0.816,0,1.632,0,2.447,0    c0.073,3.948-2.909,4.84-3.671,7.953C282.235,149.985,286.042,146.175,286.363,143.775z"/>
		<path fill-rule="evenodd" clip-rule="evenodd" fill="#8B0F04" d="M30.627,148.058c1.295,2.987,1.558,7.008,1.835,11.013    C30.766,156.483,30.526,152.441,30.627,148.058z"/>
		<path fill-rule="evenodd" clip-rule="evenodd" fill="#E31836" d="M282.081,148.67c-2.241,4.896-2.705,11.569-7.342,14.071    C277.712,158.577,276.247,149.974,282.081,148.67z"/>
		<path fill-rule="evenodd" clip-rule="evenodd" fill="#8B0F04" d="M213.558,149.894c1.495,0.605,1.644,3.727-0.612,3.67    C213.86,151.701,212.745,151.185,213.558,149.894z"/>
		<path fill-rule="evenodd" clip-rule="evenodd" fill="#8B0F04" d="M56.935,151.116c2.27,2.625,1.545,8.244,3.059,11.625    C57.265,160.576,57.892,155.054,56.935,151.116z"/>
		<path fill-rule="evenodd" clip-rule="evenodd" fill="#8B0F04" d="M39.192,151.729c0.966,1.277,1.269,3.218,1.224,5.506    C39.45,155.958,39.147,154.017,39.192,151.729z"/>
		<path fill-rule="evenodd" clip-rule="evenodd" fill="#E31836" d="M283.916,152.952c1.74,0.816-0.472,2.721-0.611,3.671    C281.527,155.771,283.477,153.604,283.916,152.952z"/>
		<path fill-rule="evenodd" clip-rule="evenodd" fill="#E31836" d="M252.102,173.142c-1.768-3.09-0.957,2.33-3.671,1.836    c2.082-6.891,5.117-12.829,7.953-18.967C259.161,161.266,251.377,167.745,252.102,173.142z"/>
		<path fill-rule="evenodd" clip-rule="evenodd" fill="#E31836" d="M260.055,162.741c-0.777,2.893-2.929,4.413-3.671,7.342    c-1.729,0.506-1.585-0.862-3.059-0.612C254.308,165.968,256.968,164.141,260.055,162.741z"/>
		<path fill-rule="evenodd" clip-rule="evenodd" fill="#E31836" d="M274.126,163.353c1.41,0.863-0.045,3.985-1.835,3.671    C272.264,165.161,273.583,164.645,274.126,163.353z"/>
		<path fill-rule="evenodd" clip-rule="evenodd" fill="#E31836" d="M265.562,173.142c2.171,2.894-3.972,7.776-6.73,9.789    C259.633,178.226,263.758,176.845,265.562,173.142z"/>
		<path fill-rule="evenodd" clip-rule="evenodd" fill="#E31836" d="M42.251,186.602c3.254,1.955-2.922,3.082-3.059,5.507    C36.768,189.245,41.079,187.899,42.251,186.602z"/>
		<path fill-rule="evenodd" clip-rule="evenodd" fill="#E31836" d="M84.466,196.391c1.118,1.554,2.3,3.407,1.224,5.506    c-1.683-0.764-1.312-3.582-3.059-4.282c-1.963,1.509,2.32,4.137,0,6.118C79.322,202.83,79.157,195.271,84.466,196.391z"/>
		<path fill-rule="evenodd" clip-rule="evenodd" fill="#E31836" d="M95.479,203.732c0.229,1.402,2.447,0.815,3.059,1.835    c-1.168,1.623-5.592,0.981-7.342,2.447C90.784,204.748,95.746,206.854,95.479,203.732z"/>
		<path fill-rule="evenodd" clip-rule="evenodd" fill="#E31836" d="M138.917,212.298c-1.826-2.465,3.94-2.564,4.282-4.895    C145.222,210.064,139.954,210.662,138.917,212.298z"/>
		<path fill-rule="evenodd" clip-rule="evenodd" fill="#8B0F04" d="M172.567,182.931c-2.76,1.931-4.318,5.063-5.507,8.565    c0.544,1.468,1.863-1.33,1.836-2.447c1.632,1.279-1.524,2.922-1.224,4.895c-3.448-0.299-2.103,2.388-5.507,3.059    c-8.35,13.444-18.692,24.226-37.932,25.696c-9.727,0.744-16.35,5.641-26.308,6.73c-9.038,0.988-18.969-0.65-27.531-1.836    c-7.106-0.984-17.282-5.436-23.249-9.177c-8.41-5.272-18.659-14.817-26.308-23.861C10.634,182.49,5.256,167.914,1.872,149.894    c-4.977-26.506,0.122-53.961,13.459-71.582c7.562-9.991,27.994-23.562,40.379-25.084c8.675-1.066,20.218,3.905,29.979,2.447    c0.664-0.151,0.415-1.216,1.224-1.223c0.327-2.367-1.092-2.987-0.612-5.506c2.835-1.154,6.949-1.784,9.789-1.224    c1.247,2.269-0.476,3.582-1.224,5.506c1.54,1.093,3.199-1.784,4.895-2.447c12.883-1.754,30.194-1.982,41.604,3.671    c1.046,0.026,1.584-0.455,1.835-1.224c1.62,4.585,8.433,1.739,9.789,5.506c3.941,0.067,2.526-5.224,6.118-5.506    c3.188,2.637-0.399,8.662,3.059,10.4c1.187-0.853,0.913-3.167,1.836-4.283c2.091,0.25,0.777,1.652,3.059,0.612    c1.544,2.716-2.013,6.713,0,9.789c2.833-1.337,1.008-6.686,1.836-8.565c1.861,0.586,3.659,1.235,5.506,1.835    c-1.086,4.677-2.322,9.513,0.612,12.236c1.531-3.053,2.141-7.11,1.224-11.013c1.279-0.352,1.746-1.517,3.671-1.224    c3.462,4.588-0.829,13.143,4.282,15.907c2.898-0.569,4.236-2.698,6.118-4.283c-0.901-3.993-2.999-6.79-3.671-11.013    c3.807,1.292,2.49,7.707,4.895,10.401c1.406-0.633,2.815-1.264,3.671-2.447c-0.663-3.15-5.48-4.93-3.671-8.565    c2.624,1.659,2.342,6.223,4.895,7.954c4.539-1.203-0.854-4.192,0-7.342c2.01,1.253,2.049,4.477,3.671,6.118    c0.905-0.318,1.542-0.905,2.447-1.224c-0.191-2.46-2.88-2.422-2.447-5.506c1.872,0.779,1.799,3.503,3.671,4.283    c2.813-1.387-1.816-3.729-1.224-6.73c2.679,0.788,1.418,5.516,4.895,5.506c1.24-5.044-5.426-12.423-7.954-17.742    c-4.317,2.635,4.182,7.29,0.612,9.177c-2.346,0.111-0.222-0.5-0.612-1.835c-2.518,0.133-1.706,3.596-5.506,2.447    c-0.833-1.614-0.723-4.171-1.224-6.118c-3.374-0.519-0.79,4.92-2.447,6.118c-1.927-4.046,1.803-9.682,0-12.236    c-3.464,2.042-1.466,9.547-4.282,12.236c-0.452-2.899,0.688-4.206,0.611-6.729c-2.254,0.601-1.661,4.048-1.835,6.729    c-1.924,1.622-2.582-1.728-4.895,0c-0.037-2.28,0.616-3.87,1.224-5.506c-3.42,0.048-2.271,4.664-6.118,4.283    c2.415-4.314,6.516-6.944,9.177-11.012c-4.81-0.247-6.52,7.7-11.624,9.177c1.024-3.462,4.674-4.299,6.118-7.341    c0.455-1.883-1.68-1.176-1.224-3.059c-1.757,0.283-3.371,0.708-3.671,2.447c0.067,1.498,2.022,0.13,1.835-0.612    c0.87,2.114-3.342,4.393-4.282,6.73c-1.916-0.328-2.205-2.282-2.447-4.283c2.925-2.582,6.469-4.544,9.177-7.342    c-5.276-0.382-5.663,4.125-10.4,4.283c2.921-4.632,8.016-4.297,11.624-7.342c-4.413-0.978-10.229,4.628-14.684,3.671    c0.375-4.448-1.359-7.259,1.224-9.177c-0.116-0.496-0.613-0.61-0.611-1.224c-5.019-1.295-14.995,0.715-15.907,7.342    c2.782-0.48,3.571-2.955,6.729-3.059c0.373,2.819-2.712,2.183-3.671,3.671c0.424,1.918,1.633,0.797,3.06,0.612    c-0.108,1.931-0.43,3.649-2.447,3.671c0.166,2.145,2.709-1.105,2.447,0.612c-0.327,2.639-2.282,1.324-4.282,1.224    c-1.68,1.32,0.608,2.81-0.612,4.283c-2.52-0.48-3.14,0.939-5.506,0.612c0.999-2.01,0.529-3.007-1.224-3.671    c1.361-12.506,7.978-19.758,16.519-25.084c0.821-0.402,1.14-1.308,1.224-2.447c5.73,0.428,9.101-1.504,10.4-5.506    c7.723-1.658,13.572-5.19,21.413-6.729C193.22,4.135,193.85,1.706,195.204,0c1.632,0,3.263,0,4.895,0    c-2.245,8.67-13.788,26.095-3.06,35.485c0.762-1.602-1.938-4.976-2.447-7.342c1.411-0.187,0.68,1.768,1.836,1.835    c1.722-1.794-0.965-2.631-1.836-3.671c0.027-9.354,3.095-15.668,7.342-20.801c-0.484-3.541,0.936-6.349,3.671-4.895    c-0.253,2.601-1.738,3.971-2.447,6.118c5.671-0.897,16.518-3.651,25.085-1.835c2.397,2.701,6.307,3.889,9.788,5.506    c5.063-3.738,13.697-12.197,22.025-6.73c-8.665,0.104-13.585,3.954-17.742,8.565c0.151,0.664,1.217,0.415,1.224,1.224    c6.604-4.395,15.576-9.042,25.084-8.565c0.242-1.466-2.787,0.339-1.835-1.835c13.199-3.688,21.751,6.412,28.755,12.848    c2.534,0.334,2.071-4.353,4.282-2.447c0.233,2.273-2.479,1.599-1.835,4.282c4.5,0.014,6.872-2.1,9.789-3.671    c-0.045-2.601-0.768-3.971,0-6.118c3.549,0.938,8.042,0.93,10.4,3.059c0.863,6.519-3.72,7.649-6.118,12.236    c-1.836,0-3.671,0-5.506,0c4.474,5.811,12.965,6.286,18.354,11.013c2.701,2.369,3.198,6.05,6.73,7.342    c2.093,5.657,3.937,11.562,4.895,18.354c-0.714,1.734-0.849,4.046-2.447,4.895c0.18,1.248,1.655,1.2,1.835,2.447    c-2.078,19.403-16.079,31.444-26.92,44.05c-3.326-0.064-2.867,3.658-6.729,3.059c-2.27,24.917-9.602,49.9-24.473,64.24    c-0.549,2.51-1.871,4.246-3.059,6.118c-1.522-0.067-1.894-1.146-3.06,0c-7.68,13.765-31.655,12.266-50.779,14.071    c0.323-0.492,0.638-0.993,0.611-1.836c-18.309,3.47-29.82-13.684-39.768-24.472c-1.446,0.797-1.18,3.307-1.835,4.895    c-3.5-0.849-3.9,1.402-6.118,1.835c1.487,3.462-1.211,6.558-3.671,7.954C170.828,185.679,172.557,185.165,172.567,182.931z     M182.356,144.999c6.483-38.522-11.281-73.492-34.873-87.489c-5.811-0.924-11.57-5.147-17.131-4.282    c4.289,0.288,7.85,6.05,12.236,7.341c1.017,0.3,1.578-1.054,2.447-0.612c12.372,6.292,24.763,27.608,29.366,42.215    c0.971,3.079,2.878,9.274,3.06,12.236c0.025,0.417-1.208,1.986-1.224,2.447c-0.394,11.122,2.546,23.829-2.447,35.485    c-0.064-2.949,2.014-8.791,0-9.789c-1.401,11.651-5.052,24.313-10.401,29.979c4.004-7.826,8.511-18.407,8.565-28.144    c-4.822,19.243-12.555,35.574-26.308,45.886c10.031-4.113,16.535-10.982,22.637-20.189c-0.353,0.371-1.432,2.902,0,3.059    c6.784-10.229,8.786-28.212,10.401-41.603c1.324,15.279-4.097,24.366-5.507,34.873c1.965-4.154,4.447-7.79,5.507-12.849    c-1.059,21.171-11.791,32.668-20.802,45.886C172.539,188.489,178.892,165.576,182.356,144.999z M217.229,56.898    c0.797-3.652-1.931-3.78-1.836-6.729c-3.241,1.386-2.93-1.689-6.729-1.224c0.076,1.531,1.168,1.915-0.612,2.447    c-1.471-2.362-2.525-0.442-3.059,1.223c-1.522-0.924-0.847-4.047-2.447-4.894c2.151,9.218,6.475,21.463,20.189,19.578    c-1.259-3.636-2.352-7.437-5.506-9.177c-0.559,2.231,2.657,3.814,0.611,5.506c-1.015-3.887-4.423-8.618-3.671-12.236    C215.492,52.925,215.2,56.072,217.229,56.898z M272.903,9.177c5.951-1.056,7.389,2.4,11.625,3.059    c-2.188-4.95-7.458-6.818-14.072-7.342C270.046,7.547,273.534,6.303,272.903,9.177z M200.709,11.013    c-1.793,4.47-6.812,13.272-1.835,17.13c-0.508-6.218,1.099-10.322,3.059-14.072c6.756-1.07,14.887-7.093,20.19-2.447    c12.8,1.312,22.878,10.537,28.755,20.802c0.796,1.243,2.617,1.461,3.671,2.447c-2.415,4.504,4.799,8.737,3.671,15.907    c2.662,2.439,3.322,7.702,3.671,12.848c0.18,2.662-2.192,7.445,1.835,7.342C268.866,33.236,240.612-2.096,200.709,11.013z     M266.173,10.401c2.288,0.045,4.229-0.257,5.506-1.224C270.571,8.374,266.502,8.53,266.173,10.401z M255.161,15.907    c3.988-1.519,7.816-3.196,10.401-6.118C260.296,10.03,257.997,13.237,255.161,15.907z M163.389,23.86    c5.859,0.478,9.437-4.323,14.684-2.447c1.292-0.544,1.062-2.608,3.06-2.447c2.129,0.318,1.218,3.676,4.282,3.059    c-0.091-2.652-0.979-4.235,1.224-5.506c1.051,0.785,0.013,3.659,1.836,3.671c0.874-2.708,4.553-8.053,2.447-9.789    C181.405,14.548,170.31,17.118,163.389,23.86z M293.093,23.86c1.012,0.824,2.106,1.564,2.447,3.059    c-6.149,0.989-10.69,3.586-15.296,6.118c4.093,1.417,4.248,0.59,7.342-1.224c-8.725,12.978-24.104,20.226-20.801,40.379    c5.044-4.54,10.105-9.064,14.071-14.684c-5.607,1.531-6.34,7.937-11.625,9.789c10.02-11.747,16.554-30.821,30.591-37.932    c-5.868,5.552-11.259,11.582-15.907,18.354c8.771-2.243,10.803-14.484,17.743-16.519c-5.611,9.073-14.934,14.434-18.967,25.084    c4.189-3.153,7.596-7.088,11.013-11.012c0.494,2.279,3.734,0.119,3.671-1.835c-0.067-2.167-2.022,1.3-1.835-0.612    c2.271-5.071,6.264-8.419,9.177-12.848c2.983,4.493-2.83,7.896-1.835,10.401c3.941-0.749,3.286-6.095,5.506-8.565    c2.218,1.453,0.811,6.531,3.671,7.342c0.859-2.141-1.716-3.917,0-4.895c4.713,2.394,9.476,7.365,13.46,10.401    c0,1.427,0,2.855,0,4.283c1.576,1.073,2.94-0.635,3.671,1.835c-0.371,1.056-2.902-0.047-3.06,1.224    c2.461,5.696-2.559,9.754-0.611,15.295c4.056-2.911,1.65-11.852,3.671-15.295c8.107,25.874-13.902,40.559-26.92,53.227    c-0.137-1.157,0.689-1.35,0.612-2.447c-4.119,0.354-3.997,4.765-2.447,7.954c17.785-12.699,40.324-31.406,30.59-60.569    c-2.899-6.478-5.858-12.631-11.624-16.519c-7.061-4.761-15.878-7.116-22.637-12.848c-3.905-3.311-6.372-7.496-11.013-9.789    c-0.263,1.165-1.318,1.537-1.224,3.059c0.43,1.813,3.517,0.97,3.671,3.059c-2.345,2.074-0.864,0.981,0,3.671    c-3.338,0.687-3.427-1.875-5.507-2.447c-2.857,0.405-5.371,1.154-6.729,3.059c2.183,0.707,4.201-1.852,4.895-0.612    c-0.257,2.191-3.556,1.339-3.671,3.671c2.542,0.272,5.278-2.435,7.342-0.612c-4.872,0.234-9.188,4.263-11.013,5.506    c-0.011-0.896,2.58-1.939,0-1.835c-4.669,2.876-8.335,6.756-10.4,12.236c4.281-1.435,6.312-8.364,9.788-8.565    c-2.766,4.219-9.336,7.726-8.564,13.46C274.304,35.089,277.474,24.201,293.093,23.86z M260.667,16.519    c1.892-0.759,3.793-1.509,4.895-3.059c-2.238-0.403-2.348,1.324-4.283,1.224c0.002-0.34-0.495-0.695-0.611,0    C261.71,14.934,260.539,15.472,260.667,16.519z M307.165,18.966c2.362-0.198,6.094-3.771,3.059-5.506    C309.873,15.963,306.952,15.898,307.165,18.966z M209.887,17.742c2.762,0.111,4.705-0.597,5.506-2.447    C214.249,12.724,209.711,15.158,209.887,17.742z M249.655,18.354c2.363-0.492,2.72-2.99,4.282-4.283    C251.359,14.194,248.806,16.747,249.655,18.354z M274.126,15.907c2.36-0.087,5.373,0.478,6.118-1.224    C277.42,15,274.98,12.972,274.126,15.907z M300.435,19.578c-0.307,2.55,1.55,2.937,3.671,3.059    c-0.442-1.869,0.625-2.229,0.611-3.671C303.092,18.972,301.223,18.735,300.435,19.578z M265.562,25.084    c2.733-1.141,5.162-2.587,6.729-4.895C268.986,20.759,266.727,22.375,265.562,25.084z M211.722,23.86    c1.441,0.014,1.802-1.054,3.671-0.612C215.416,20.553,211.59,22.584,211.722,23.86z M269.844,26.308    c2.355-0.091,3.521-1.374,4.282-3.059C271.942,23.511,270.769,24.785,269.844,26.308z M198.875,29.979    c2.089-0.97,4.074-2.043,4.895-4.283c-0.137-0.475-0.017-1.207-0.612-1.224C201.088,25.667,199.524,27.365,198.875,29.979z     M206.216,28.143c2.889,0.034,3.477-2.233,4.895-3.671C208.23,24.447,208.044,27.116,206.216,28.143z M158.495,28.143    c1.036,0.963,3.532-0.063,3.06-2.447C160.064,26.042,158.407,26.22,158.495,28.143z M276.574,32.426    c4.843-1.281,11.504-3.988,12.849-6.73C285.492,28.291,279.007,28.333,276.574,32.426z M178.685,29.979    c-0.04-2.431-3.856-4.27-5.507-3.059C175.592,27.36,176.652,29.156,178.685,29.979z M229.464,32.426    c0.23-3.155-2.857-6.864-6.117-6.118c-3.113,0.712-4.848,14.078-11.013,12.236c0.441,1.87-0.626,2.229-0.612,3.671    c6.76,4.865,11.296,11.953,14.072,20.801c-2.08-1.165-2.678-6.448-5.507-4.895c2.206,4.32,2.275,10.776,9.789,9.789    c-1.164-6.709-3.152-12.271-6.118-17.13c-1.715-2.81-5.925-6.122-3.671-9.177c2.166,1.301,2.48,4.454,4.895,5.506    c0.135-3.805-2.924-4.418-3.671-7.342C224.128,37.225,229.21,35.926,229.464,32.426z M168.284,30.59    c2.329,0.526,4.054,1.657,7.342,1.224c-0.244-4.436-4.983-1.672-6.729-3.671C169.033,29.3,168.207,29.493,168.284,30.59z     M261.891,34.873c0.02-1.456,3.134-2.918,1.224-4.283C262.719,31.671,260.097,33.626,261.891,34.873z M167.06,34.873    c2.04,0,4.079,0,6.118,0c-0.195-2.66-3.342-2.368-5.506-3.059C167.159,32.524,166.865,33.454,167.06,34.873z M187.25,39.156    c-2.581,0.274-6.645-0.934-6.73,1.835c0.506,0.066,4.918-1.177,7.954-0.612c1.906,3.827,7.95,3.252,10.4,0.612    c0.473,1.567,0.61,3.468,1.835,4.283c1.461-0.987-0.495-5.39,1.836-5.506c1.167,0.261,1.106,1.748,3.059,1.224    c-3.273-3.001,2.63-3.267,1.224-5.506c-1.883,1.962-3.202,0.643-1.835-1.835c-3.573,0.709-4.885,3.68-7.954,4.895    c-4.541-0.354-5.131-4.658-7.953-6.73C186.813,33.907,187.506,36.895,187.25,39.156z M207.44,33.649    c1.81-1.339,6.183,1.693,6.729-1.835C211.597,32.097,208.471,31.826,207.44,33.649z M264.95,45.886    c-0.241,4.32,0.594,7.564,3.06,9.177c2.661-6.923,7.728-11.441,11.012-17.742c-4.047,2.274-5.928,6.716-9.177,9.789    c-0.012-5.376,7.871-7.99,9.789-13.46C271.511,34.188,271.811,46.091,264.95,45.886z M247.208,37.932    c0.011-2.254-1.782-2.704-3.06-3.671C243.33,35.386,244.294,38.645,247.208,37.932z M166.449,40.379    c2.647-0.004,3.882-1.42,6.729-1.224c-1.541-2.637,1.154-0.758,1.224-3.059c-1.835,0-3.671,0-5.506,0    c-0.453,2.084,2.254,1.008,2.447,2.447C169.055,39.391,166.776,38.886,166.449,40.379z M254.549,45.274    c0.779-3.453-1.433-6.957-4.283-8.565C249.583,39.405,251.643,44.174,254.549,45.274z M305.33,41.603    c0.477,0.135,0.711,0.512,0.611,1.224c2.807,0.155,1.467-3.835,3.059-4.895c-0.781-0.034-0.847-0.784-1.835-0.612    C306.809,39.004,305.641,39.876,305.33,41.603z M316.954,42.827c-0.014-2.638-0.596-4.707-2.447-5.506    C314.687,39.791,315.035,42.094,316.954,42.827z M208.664,47.721c-0.641-1.604-1.941-2.546-3.06-3.671    C203.917,45.803,207.101,49.216,208.664,47.721z M293.093,59.345c4.441-3.719,10.46-9.113,10.4-15.295    C299.229,48.351,295.243,52.93,293.093,59.345z M283.304,62.404c-1.028-2.172,2.071-4.929-0.612-4.895    c-3.447,5.934-10.055,8.707-12.848,15.295c5.159,0.405,8.339-9.559,12.848-9.789c-2.879,3.646-6.634,6.418-9.177,10.401    c0.61,0.817,1.653,1.202,1.835,2.447c7.612,1.178,8.812-10.211,12.236-15.295c4.075-6.051,10.754-10.755,12.236-15.907    C293.064,49.324,290.147,57.827,283.304,62.404z M299.211,60.569c3.885-3.652,10.238-10.702,8.565-15.907    C305.569,50.612,301.635,54.836,299.211,60.569z M310.223,51.392c2.761-0.095,1.837-3.875,2.447-6.118    c-0.782-0.034-0.847-0.784-1.835-0.612C309.944,47.357,309.632,48.262,310.223,51.392z M249.042,60.569    c-1.066-4.297-2.963-12.898-8.565-14.683C241.592,52.52,247.196,54.666,249.042,60.569z M195.204,51.392    c2.131,0.336,2.609-4.103,0.611-4.283C194.929,48.641,194.333,49.512,195.204,51.392z M250.266,52.004    c0.419-2.662-1.101-3.386-2.447-4.283C246.604,49.242,248.897,51.173,250.266,52.004z M238.642,48.945    c-1.475,0.25-1.33-1.118-3.06-0.612C234.505,51.07,238.821,50.533,238.642,48.945z M88.137,50.78    c1.449,2.612-1.409,6.166,3.059,6.118c0.749-2.788-1.678-2.4-1.224-4.894c1.883-0.36,4.331-0.157,4.283-2.447    C92.309,50.057,89.751,49.947,88.137,50.78z M234.359,52.004c0-0.816,0-1.632,0-2.447c-2.815,0.704-3.65,1.695-6.117,0    C228.061,53.186,232.093,52.362,234.359,52.004z M182.967,55.674c0.333-0.811,2.793-4.207,0-4.282    C182.97,52.484,181.32,54.951,182.967,55.674z M234.359,54.451c9.587,3.967,10.824,20.381,6.73,31.202    c1.084,0.547,0.779,2.483,3.059,1.835c0.479-5.851,1.757-11.247,3.671-15.907c-0.375-0.848-2.354-0.092-2.447-1.224    c-0.137-2.778,1.968-3.777,3.671-6.118c-1.437,0.195-2.296,0.967-4.282,0.612c0.188-1.442,2.124-1.138,1.835-3.059    c-2.398-0.386-3.927-2.652-2.447-5.506C240.405,55.337,237.495,49.209,234.359,54.451z M259.444,63.016    c-1.072-4.027-0.398-9.798-4.283-11.012C253.905,56.043,254.439,63.234,259.444,63.016z M93.031,60.569    c-0.39-2.261,0.792-6.094-0.612-7.341c-1.913,6.73,1.297,12.066-0.611,18.966c2.981-0.077-0.503-6.621,3.059-6.118    c0.16,1.791-1.383,1.88-1.224,3.671c2.408,0.98,0.213-2.642,1.835-2.447c0.806,1.896-1.813,3.394,0,4.283    c-0.033-1.053,0.471-1.568,1.224-1.835c-0.061,1.896,0.277,3.394,1.224,4.283c0.615-0.813,0.579-2.276,1.835-2.447    c0.133,6.393,8.053,1.156,6.73-1.224c3.782,0.713,8.751-2.662,11.013-5.506c6.238-0.312,9.708-1.005,14.072-0.612    c-7.384-4.702-21.209-0.066-25.696,1.835c3.084-3.85,9.3-4.567,15.295-5.506c-7.459-1.477-13.468,2.507-18.966,4.895    c3.508-3.426,7.46-6.407,14.684-6.118c-5.659-3.545-11.698,2.931-15.907,4.895c1.828-4.698,8.356-4.695,12.236-7.342    c-2.059-0.386-4.46,2.011-5.506,0.612c0.987-0.848,3.154-0.517,3.671-1.835c-5.023-2.023-8.494,1.86-11.625,3.671    c0.697-2.362,3.813-2.305,4.895-4.283C99.475,56.786,96.958,57.489,93.031,60.569z M239.866,66.687    c-0.664-6.27-3.631-10.237-9.789-11.013C232.482,59.825,233.143,70.757,239.866,66.687z M81.407,67.299    c0.108-3.924,0.43,0.608,2.447,0c-1.716-3.79-3.813-7.2-7.342-9.177c-0.808,1.531,2.419,1.916,0.612,2.447    c-1.368-2.003-5.06-4.242-6.118-3.059C75.564,59.682,78.286,63.69,81.407,67.299z M31.239,70.97    c2.863-4.07,9.538-4.33,14.072-6.73C25.94,65.971,10.016,85.752,4.319,105.231c-2.139,7.313-3.188,19.996-1.224,26.308    c-2.038,9.336,2.352,22.409,6.73,29.366c-0.483-4.615-1.899-8.298-2.447-12.848c0.809,0.007,0.559,1.072,1.224,1.224    c-3.611-15.861-2.369-43.079,6.729-56.286c-0.57,2.592-1.721,4.337,0,6.118c-8.274,9.547-7.503,33.971-1.835,45.886    c-5.472-17.79-3.683-39.58,7.342-50.169c-9.252,10.792-13.263,36.093-4.895,50.78c-2.407-9.58-5.973-24.051-1.224-33.649    c0.224,4.141-1.185,8.605-1.224,13.46c-0.067,8.427,1.5,18.782,5.506,21.413c-4.122-13.302-6.015-26.013-0.612-39.768    c-4.507,19.086-0.753,43.735,8.565,57.51c-0.858-3.23-2.89-8.517-1.835-11.624c0.307,3.16,0.815,6.119,2.447,7.953    c-3.375-18.289-4.503-44.987,2.447-62.404c-4.669,17.317-5.317,50.904,1.224,69.135c-0.491-5.205-2.704-9.271-1.224-13.46    c0.422,5.695,2.135,10.102,4.283,14.071c0.878-2.749-2.081-4.806-0.612-6.118c2.031,1.247,1.707,8.062,4.283,6.73    c-3.024-7.334-7.37-18.63-5.506-26.92c1.378,11.266,3.388,21.9,8.565,29.367c-4.692-13.052-9.642-29.105-7.954-46.498    c-0.095,2.97,0.032,4.566,1.224,1.835c-1.217,16.792,2.317,29.246,6.118,39.768c1.829,5.062,2.904,10.779,6.73,12.848    c-2.965-5.808-6.951-13.847-7.342-20.189c2.969,6.208,5.071,13.283,8.565,18.966c-5.62-15.375-10.935-33.683-8.565-52.615    c0.661,7.904,0.153,16.978,2.447,23.249c-0.097-7.075-1.563-14.369,0-22.025c0.974,14.784-0.061,28.479,6.118,38.544    c-1.984-7.732-3.773-16.078-4.283-25.084c-0.239-4.218-1.137-11.83,1.224-14.684c-0.617,15.135,1.27,32.962,6.73,44.05    c-2.697-13.632-7.213-28.193-4.283-42.826c0.173,19.2,2.735,36.013,9.177,48.944c-3.247-13.681-8.711-28.404-6.729-45.273    c2.107,16.858,3.055,34.877,9.789,47.109c-3.737-14.233-9.174-33.213-5.506-50.78c-0.31,15.197,0.134,29.641,4.895,39.768    c0.335-0.89-0.715-3.162,0.612-3.06c1.191,2.888,0.797,7.36,3.671,8.565c-3.151-10.086-5.403-21.005-5.506-31.813    c-0.184-19.306,9.535-37.005,15.295-49.557c-7.835,9.907-12.515,22.97-16.519,36.708c1.345-15.787,10.009-27.515,15.295-37.32    c-0.171,1.257-1.634,1.221-2.447,1.835c0.174-2.096,5.22-2.494,3.059-4.895c-9.193,7.733-14.709,19.144-19.578,31.202    c2.397-14.122,9.17-23.868,18.354-31.202c-14.513,4.249-18.542,18.982-24.472,31.814c2.554-9.097,6.005-18.537,11.012-24.473    c2.254-2.672,7.311-4.655,6.118-6.729c-6.598-1.312-16.577,11.399-21.413,19.578c3.248-8.784,9.961-14.104,15.907-20.189    c-9.122,4.541-14.044,13.283-20.189,20.801c3.314-5.613,6.153-11.331,11.013-15.907c3.644-3.431,10.802-4.338,11.012-9.789    c-1.029,0.447-3.511,2.542-4.283,1.224c2.172-0.887,4.766-1.353,6.118-3.059c-4.07,0.229-6.63,2.769-8.565,1.835    c0.18-1.248,1.656-1.2,1.835-2.447c-7.84-1.419-15.314,4.556-21.413,8.565c3.942-5.032,10.38-7.566,16.519-10.401    c-22.89,3.016-30.671,26.427-29.979,55.063c-1.826-12.312,0.198-23.231,1.835-31.814c-1.989,4.333-2.878,9.766-4.283,14.684    c1.663-16.553,11.586-34.329,26.308-38.544c13.116-3.755,26.127,0.528,35.485,6.73c-0.278,3-4.005,5.764-2.447,8.565    c1.215-1.843,0.923-5.195,3.059-6.118c0.486,4.982-3.743,8.481-1.835,12.848c1.512-4.198,1.379-10.041,4.283-12.848    c-1.105,5.269-4.493,14.607-1.224,20.189c-0.207-8.933,0.417-13.725,3.059-20.189c-1.825,12.445-3.162,31.8-0.612,41.603    c0.322-15.717-0.889-29.271,2.447-41.603c-0.805,6.669-1.192,15.167-1.224,20.801c3.185-5.176-0.72-17.443,3.671-21.413    c-0.472,3.821-1.393,10.423,0,14.071c1.728-4.874-1.23-10.645,1.835-14.071c0.412,3.195-0.225,10.282-0.611,14.683    c2.851-1.292,0.186-12.121,3.059-15.295c-0.295,1.927,1.878,1.385,1.224,3.671c-2.378-0.109-2.434,5.28-1.224,6.729    c2.305-0.822,0.879-8.838,3.059-11.624c0.364,1.268-0.756,4.019,0.612,4.283c1.72-0.728-0.897-5.792,1.835-5.506    c-1.194,15.3-0.514,36.423,0.612,53.839c2.359-14.063-2.504-38.411,1.224-52.615c0.364,1.268-0.756,4.019,0.612,4.283    c1.118-1.421-1.195-4.95,0.612-6.73c1.234,2.641,0.252,7.498,1.835,9.789c2.16-2.814-1.202-7.989,0.612-10.4    c0.601,2.663,0.707,5.82,1.835,7.954c0.352-1.076-0.739-3.595,0.612-3.671c-0.216,4.149,1.521,9.545,1.224,10.4    c0.609-1.755-0.937-4.213,0.612-6.729c0.084,1.139,0.402,2.044,1.224,2.447c1.577-4.417-0.29-8.015,0.612-12.236    c1.002,3.28,1.167,7.398,2.447,10.401c0.798-5.497-3.349-9.285-1.224-14.072c0.793,1.858,0.396,4.906,1.835,6.118    c0.452-2.722-2.079-5.635-0.612-7.342c0.161,1.709,1.151,5.736,1.835,4.895c0.107-1.779-2.149-4.322-0.612-5.506    c0.175,0.915,0.787,4.42,1.835,2.447c0.36-1.366-0.931-3.84,0.612-4.895c0.86,0.812,0.848,5.624,1.835,4.283    c0.164-2.203-1.13-2.949-1.224-4.895c0.544-1.292,2.608-1.062,2.447-3.059c-13.479,4.161-21.439,17.642-40.991,14.072    c-7.049-1.287-12.415-6.573-18.966-7.342c-25.002-2.934-35.112,17.091-44.662,35.485c2.301-12.383,12.593-20.036,17.131-28.143    c-6.16,4.445-11.328,9.881-16.519,15.295c2.231-5.195,4.5-7.004,3.671-9.177c5.1-6.729,12.197-11.46,19.578-15.907    c-5.415-0.862-10.41,7.078-15.295,6.73c9.139-8.116,27.681-15.885,42.827-12.848c1.744,0.35,4.5,3.683,6.118,1.224    c-4.183-1.935-9.264-2.972-14.684-3.671c6.248-1.396,11.069,1.308,15.907,3.059C61.768,53.565,41.594,67.35,31.239,70.97z     M61.217,136.433c2.139-15.807,6.248-29.645,12.236-41.603c-13.705,17.848-19.465,58.044-6.118,80.759    c-1.622-11.445-8.821-23.787-4.895-36.708c-0.008,15.376,2.875,29.694,8.565,40.992c-10.212-24.627-6.895-57.323,1.224-80.147    C66.832,110.234,65.658,124.967,61.217,136.433z M72.23,61.792c-0.34,0.002-0.694-0.496,0-0.612    c1.986,0.666,2.531,2.771,4.283,3.671c-1.16-4.143-4.307-6.297-8.565-7.342c-7.858,1.089-23.835,0.491-26.308,6.73    C49.297,58.293,63.799,59.375,72.23,61.792z M85.69,66.687c-0.485-2.996-2.568-7.611-4.895-6.73    C83.18,61.448,83.316,65.186,85.69,66.687z M88.137,61.181c1.735,2.531-0.066,11.096,1.224,14.072    c4.363-3.639-0.423-11.175,1.835-15.295C89.678,59.867,88.227,59.843,88.137,61.181z M296.152,70.358    c1.437-0.195,2.297-0.966,4.283-0.612c-4.418,3.74-5.731,10.584-12.236,12.236c0.106,4.176,3.184,5.381,6.118,6.73    c2.407-5.546,6.148-9.758,9.177-14.684c-4.75,2.184-5.602,8.266-11.013,9.789c2.366-8.895,13.978-13.853,10.401-23.249    C301.132,64.326,297.625,66.325,296.152,70.358z M162.166,65.463c-1.124-1.146-3.11-4.604-4.895-3.059    C159.147,62.799,160.341,67.049,162.166,65.463z M165.225,67.299c0.807-0.987,1.321-5.39-0.612-5.506    C163.806,62.78,163.292,67.183,165.225,67.299z M231.912,67.299c1.388-1.834-0.401-4.58-1.835-5.506    C230.327,63.99,230.232,66.532,231.912,67.299z M327.354,70.358c1.762,0.024,3.798-5.153,1.224-5.506    C328.885,67.402,326.79,67.55,327.354,70.358z M250.266,67.299c0,0.816,0,1.631,0,2.447c2.556,0.138,2.89-0.995,4.895,0    c-0.001-2.243,0.238-4.725-2.447-4.283C252.369,67.489,252.19,68.127,250.266,67.299z M280.245,77.088    c5.384-1.147,8.928-7.381,9.178-11.625C286.909,69.884,281.764,71.673,280.245,77.088z M43.475,72.193    c7.526-3.828,22.506-1.942,27.531-0.612c-4.885-9.062-24.618-5.892-31.202,0c6.765-3.917,21.353-6.712,28.755-1.224    C61.572,67.579,48.345,67.593,43.475,72.193z M171.955,74.641c-0.605-1.618,1.92-7.226-0.611-8.565    C170.74,68.829,167.725,73.919,171.955,74.641z M257.608,69.746c1.001-0.991,0.737-3.842-1.224-3.671    C256.394,67.697,256.045,69.678,257.608,69.746z M179.909,70.97c-1.579-0.461,0.446-4.525-1.836-4.283    C177.866,68.566,178.515,72.716,179.909,70.97z M304.106,77.7c-0.999,1.085-5.323,4.532-3.06,4.895    c3.461-4.53,11.786-10.598,10.4-15.907C309.95,71.308,303.278,70.754,304.106,77.7z M208.664,68.522    c-13.434,2.21-21.208,11.007-29.367,21.414c1.348,1.916,1.147,5.378,3.06,6.729c3.762-8.881,10.17-15.118,20.801-17.13    c1.501-0.815-1.103-1.847,0.612-2.447c5.493-1.507,12.673,1.867,17.131,1.224c-0.354-4.336-7.877-1.505-9.789-4.283    c8.313-1.482,20.13-0.153,25.695,5.506c0.444-1.872-1.055-1.8-0.611-3.671c2.267-0.699,3.547-0.06,4.895-0.612    c0.189-2.229-0.098-3.981-0.612-5.506C228.264,72.088,217.994,66.987,208.664,68.522z M127.293,78.312    c-1.084-4.422-4.498-6.515-7.342-9.177C121.387,73.205,124.684,75.415,127.293,78.312z M137.694,85.653    c-2.417-6.761-6.565-11.789-11.625-15.907C130.021,74.972,133.871,80.299,137.694,85.653z M123.01,69.134    c2.933,4.816,6.507,8.992,10.4,12.848C131.006,76.638,127.54,72.354,123.01,69.134z M48.981,72.193    c8.148-1.151,14.764,0.029,20.801,2.447C66.526,69.823,54.652,69.24,48.981,72.193z M318.789,77.7    c2.588-0.043,5.519-5.649,2.447-7.342C319.693,71.875,317.89,75.703,318.789,77.7z M250.266,142.552    c-0.056-0.965-1.561-0.479-1.224-1.836c3.935-13.798,7.361-27.391,4.895-42.215c0.873-0.146,1.032-1.007,1.836-1.224    c0.857,1.513,2.107,1.08,3.671,0.612c-0.03,1.865,0.556,3.115,1.835,3.671c0.364-1.268-0.756-4.019,0.612-4.283    c3.586,1.9,6.341-2.341,7.953,1.835c0.806-1.896-1.813-3.394,0-4.283c6.895,0.369,9.862-3.189,15.295-4.282    c6.913,5.074,12.164,22.665,8.565,34.873c-0.05,0.168-1.18-0.629-1.224-0.612c-0.756,1.979,1.979,0.467,1.224,2.447    c-0.873-0.239-1.031-0.734-1.835,0c2.148,20.159-10.647,35.803-19.578,48.945c0.369-2.282,2.301-3.002,2.447-5.507    c-4.938,3.064-2.791,10.128-9.789,11.625c0-0.816,0-1.632,0-2.447c-4.184,4.789-9.383,8.562-15.295,11.624    c-2.982-2.291-8.243-1.758-9.789,1.835c13.235,3.776,23.185-2.902,29.979-8.564c13.648-11.374,19.085-34.808,26.92-49.557    c-0.834-11.536,1.446-20.44-0.612-29.979c-4.768-22.098-20.243-31.609-45.273-34.261c-1.786,5.556-2.38,12.304-3.671,18.354    c5.912,2.524,11.862-3.523,17.131-5.506c-1.924-0.616-3.331-0.424-5.507-1.835c1.098-1.146,3.756-0.731,4.283-2.447    c-2.471-1.825-5.479,3.054-7.342,1.835c-2.048-0.553-0.534-1.369,0-2.447c-1.838,0.032-3.614,3.273-4.895,1.835    c-0.674-3.121,1.8-3.095,3.059-4.283c-0.179,0.375-1.521,2.355,0,2.447c1.803-2.921,4.847-3.403,9.178-2.447    c-0.089,0.723-1.09,1.387,0,1.835c1.783-1.679,2.413,0.027,2.447,1.224c2.822,0.129-0.976-2.87,2.447-2.447    c2.535,3.25,4.503,3.537,9.177,4.895c-4.599,0.35-9.707-1.53-12.236,1.835c5.522-1.642,16.063-0.312,16.519,3.059    c-14.55-6.623-26.917,11.293-37.932,2.447c-9.507-3.419-20.724,6.446-26.92-1.835c1.396-2.938,4.851,0.228,6.73,0.612    c5.336-0.986,10.617-2.027,16.519-2.447c0.296-2.335-0.174-3.905-1.224-4.895c-3.237,2.148-3.226-1.328-5.507-1.835    c-0.446,1.389-2.586,1.084-3.671,1.835c-0.827-1.212-2.133-1.945-3.67-2.447c-0.303,1.921,2.108,1.616,0.611,3.059    c-1.214-1.829-3.235-2.459-4.282,0c-1.153-0.718-3.997-2.89-5.507-1.224c1.601-0.172,2.632,0.223,2.447,1.835    c-5.694-0.524-15.416,2.185-15.907,6.73c1.957-1.658,9.018-6.109,10.401-2.447c-12.618,1.695-19.15,12.612-20.19,23.86    c1.14,0.585,2.045-1.833,2.447,0c-2.28,5.174-0.726,15.937-1.224,19.578c5.093-7.275-0.131-20.666,4.895-27.532    c0.679-2.367-2.162-2.176-0.611-3.671c4.18,1.69,6.844-9.643,12.236-8.565c-2.438,2.049-3.294,5.679-5.507,7.953    c4.38,0.301,3.114-5.043,7.342-4.894c0.55,1.791,0.55,1.879,0,3.67c2.056,0.775,3.236-2.396,4.283-0.612    c-1.576,1.279-2.242,3.469-1.836,6.73c3.113,0.054,1.627-4.491,4.283-4.895c0.002,1.093-1.648,3.56,0,4.283    c1.371-1.892,1.649-4.876,5.506-4.283c-0.052,8.106-3.504,12.811-4.282,20.19c-6.996,6.056-4.086,22.018-8.565,30.591    c0.17-8.193,3.011-17.407,1.835-23.249c-2.061,9.031-3.354,20.478-3.671,29.979c-0.098,2.936,1.737,5.757-1.224,7.342    c-0.462-7.548,2.826-16,0-23.249c-0.76,1.881,0.111,5.855-1.835,7.954c0.601-3.682,0.937-7.629,1.224-11.625    c-4.793,1.224,0.184-3.738-3.06-4.282c-1.056,0.371,0.047,2.902-1.224,3.059c1.076-4.917-0.567-8.293,0.612-12.236    c-1.053-0.242-1.568,0.908-1.836,0c0.216-3.67,2.253-8.745,1.224-11.625c-3.443,12.636-2.027,33.084-3.059,47.109    c-1.051-2.793-0.524-7.71-3.06-7.342c0.743-2.562-0.452-6.875,0-11.013c-2.344,3.264-1.56,13.72,0,17.131    c-0.032-1.053,0.472-1.568,1.224-1.836c-1.655,6.357,3.261,11.943,1.224,14.684c-1.365-1.897-0.55-5.976-2.447-7.342    c-0.759,4.646,2.432,8.566,1.224,11.625c-3.39-7.649-2.625-18.054-3.671-29.367c-3.296-0.237-0.695,5.423-2.447,6.729    c-2.057-8.378,1.718-22.575-1.835-26.307c0.172,0.181-0.264,1.442-0.611,1.224c0.158-2.808,0.65-2.956,0-5.506    c-5.375-1.008-3.083,8.781-1.225,9.789c-0.726,8.214,0.414,14.537,0.612,20.189c-0.838-2.222-0.37-5.748-2.447-6.729    c-0.59,15.885,8.442,22.147,10.4,35.484c-4.221-0.433-7.512-6.111-7.341-10.4c0.973,2.697,1.921,5.42,4.282,6.729    c-1.325-3.568-1.554-8.235-4.895-9.789c-1.912-0.187,1.555,1.768-0.612,1.836c-1.706-2.169-0.662-7.088-3.67-7.954    c-0.867,4.068-0.039,5.496,1.224,8.565c-1.662-0.387-1.762-4.177-3.671-2.447c2.053,7.329,9.064,15.735,15.906,20.802    c9.098,6.736,20.307,10.533,35.485,7.342c3.056-2.858,5.226-6.603,7.953-9.789c5.489,0.187,8.678-1.928,8.565-7.342    c-2.175,0.951-0.369-2.078-1.835-1.835c-0.364,1.507-2.65,4.236-3.671,3.059c0.6-4.302,4.861-8.18,3.671-12.236    c-3.302,4.245-3.641,11.451-8.565,14.072c1.132-2.6,3.39-4.675,1.224-7.342c10.687-13.989,14.561-34.792,20.802-53.228    c-1.001-3.859-1.149-7.631-1.224-11.013c-3.617,1.889-1.012,10.001-3.671,12.848c-0.14-1.084,0.616-3.064-1.224-2.447    c-3.048,11.229-4.239,27.574-9.789,34.261C248.347,149.605,250.046,146.818,250.266,142.552z M256.384,156.011    c-2.836,6.138-5.871,12.076-7.953,18.967c2.714,0.494,1.903-4.926,3.671-1.836C251.377,167.745,259.161,161.266,256.384,156.011z     M253.326,169.471c1.474-0.25,1.329,1.118,3.059,0.612c0.742-2.929,2.894-4.449,3.671-7.342    C256.968,164.141,254.308,165.968,253.326,169.471z M123.622,77.088c-0.467-2.407-3.064-5.885-4.895-4.895    C120.262,73.922,121.619,75.828,123.622,77.088z M130.352,72.193c4.509,4.668,7.647,10.707,11.013,16.519    C139.509,81.795,134.922,74.356,130.352,72.193z M145.036,94.83c-1.003-8.585-4.474-17.957-10.401-19.578    C140.436,79.444,142.081,87.792,145.036,94.83z M283.304,78.923c3.089-1.602,5.725-3.656,6.729-7.342    C287.242,73.184,283.201,76.423,283.304,78.923z M42.863,74.641c2.104-0.547,3.814-1.488,5.506-2.447    C45.732,72.207,43.663,72.789,42.863,74.641z M21.45,88.101c6.654-5.379,13.625-10.44,20.802-15.295    C33.318,75.904,26.166,80.784,21.45,88.101z M286.363,81.371c2.54-1.131,4.638-2.705,4.895-6.118    C288.309,75.736,285.622,79.173,286.363,81.371z M320.625,81.982c2.839-1.036,3.24-4.51,4.895-6.73    C322.136,75.745,322.288,79.771,320.625,81.982z M162.166,97.277c1.078-8.433-3.301-16.119-8.565-20.189    C157.393,82.881,160.768,89.09,162.166,97.277z M143.2,75.864c4.83,5.163,10.255,9.731,12.236,17.742    c1.798,5.817-0.978-6.598-0.612-6.729c2.39,1.077,0.745,6.189,3.06,7.341c0.352-1.075-0.739-3.594,0.611-3.67    c0.405,1.635,0.257,3.822,1.224,4.894c0.851-7.828-4.134-15.003-9.177-18.966c-0.585,1.14,1.832,2.045,0,2.447    c-0.061-1.415-2.69-3.363-3.671-1.835c1.482,0.965,2.706,2.188,3.671,3.671C148.026,79.195,146.548,76.594,143.2,75.864z     M301.046,92.383c4.573-5.215,11.47-8.108,13.46-15.907c-0.782-0.034-0.848-0.784-1.836-0.612    C310.765,82.934,301.479,85.878,301.046,92.383z M184.803,118.691c1.833,19.658-3.021,39.705-7.342,55.063    c3.065-0.668,3.948-4.646,4.895-7.342c3.302-9.413,3.739-19.129,4.282-31.203c1.091-24.248-6.229-44.747-15.907-58.122    C175.668,88.487,183.279,102.358,184.803,118.691z M179.909,81.371c0.137-2.177-0.413-3.667-1.836-4.283    C178.156,79.044,177.47,81.77,179.909,81.371z M207.44,78.923c1.753,0.379,4.569,1.864,7.342,0    C213.658,79.09,208.433,76.665,207.44,78.923z M164.613,97.889c0.802-6.971-2.757-14.743-6.729-18.966    C160.757,84.615,163.177,90.76,164.613,97.889z M198.875,86.877c3.154-2.147,7.665-2.939,10.4-5.506    C204.357,81.754,200.449,83.149,198.875,86.877z M293.705,89.936c0.947,1.907,0.753,4.958,3.671,4.894    c1.647-1.59-0.748-1.845-0.611-3.671c1.455-2.309,7.695-5.351,5.506-7.341c-0.514,3.13-3.111,1.203-4.282,0    C297.635,86.933,295.741,88.504,293.705,89.936z M186.027,95.442c3.079-0.806,5.831-5.166,5.506-7.341    C189.639,90.49,186.583,91.716,186.027,95.442z M167.06,100.336c0.373-1.463-0.768-4.439,0.612-4.895    c5.146,12.844,4.683,32.656,5.506,46.498c3.014-17.867-0.104-41.207-8.565-53.227C165.659,92.357,165.427,97.279,167.06,100.336z     M305.33,91.159c1.794-0.041,2.271-1.398,3.059-2.447C306.393,88.553,305.444,89.438,305.33,91.159z M196.427,92.383    c1.924,0.088,2.102-1.569,2.447-3.059C196.951,89.236,196.773,90.893,196.427,92.383z M95.479,110.125c0,1.02,0,2.04,0,3.059    c1.211-4.504,1.042-15.678,1.835-22.637c-0.135-0.477-0.512-0.711-1.224-0.612C96.007,96.787,95.084,102.797,95.479,110.125z     M196.427,96.054c1.884-0.563,2.445-2.449,3.671-3.671C197.43,92.162,197.538,94.717,196.427,96.054z M298.599,100.336    c3.713-2.201,6.936-4.893,9.789-7.954C303.839,93.749,300.443,96.266,298.599,100.336z M298.599,97.277    c1.017-1.43,3.416-1.478,3.06-4.282C299.872,93.471,296.079,96.299,298.599,97.277z M69.783,120.526    c-0.779-4.665,2.127-8.87,1.224-11.625c-8.726,21.938-6.155,50.856,1.224,70.97c1.346,3.668,2.643,7.948,5.506,9.789    c-9.303-17.228-14.196-45.312-7.954-67.911c-1.251,10.636-2.441,23.333,0,31.813c-1.686-19.394,3.314-40.203,6.118-55.062    C73.007,104.989,71.846,113.208,69.783,120.526z M220.288,116.244c0.533-5.135,4.738-12.578,2.447-16.519    C220.261,103.171,218.999,111.072,220.288,116.244z M299.211,102.784c1.586,0.111,4.335-1.717,2.447-3.059    C301.548,101.45,298.75,100.488,299.211,102.784z M257.608,105.843c2.224,0.563,1.399-4.039,0-3.671    C258.293,104.099,257.664,103.557,257.608,105.843z M280.857,108.29c0.12-1.752,0.076-3.339-1.836-3.059    C278.901,106.983,278.945,108.57,280.857,108.29z M269.232,114.408c-0.586-1.861,1.311-6.205-1.223-6.118    C268.595,110.151,266.699,114.495,269.232,114.408z M265.562,112.573c-0.371-1.261,0.987-4.25-1.224-3.671    C264.347,110.524,263.999,112.504,265.562,112.573z M261.891,157.234c2.65-1.224,2.454-5.295,3.671-7.953    c0.09,4.137,3.152-1.264,4.282-1.835c0.1,5.34-2.164,6.69-4.282,8.564c-0.109,3.437,2.066-2.126,2.447,0    c-0.995,3.271-8.234,4.099-4.283,8.565c-6.127,7.944-11.479,16.665-17.742,24.473c10.798-6.537,14.499-20.17,24.472-27.531    c-1.815-10.874,3.96-17.575,4.283-28.144c-3.021,1.263-0.943,7.623-4.283,8.565c-0.067-2.167-2.022,1.3-1.835-0.611    c0.789-2.312-0.884-3.29,1.835-3.671c-0.352,0.371-1.432,2.902,0,3.059c1.011-5.591-1.916-12.92,1.836-16.519    c0.22,3.687-1.443,5.49-1.224,9.177c4.79-4.176,7.439-18.943,2.447-23.86c0,1.835,0,3.671,0,5.506    c-1.165,1.146-1.537,0.067-3.06,0c1.18,6.51-2.213,11.473-5.506,15.295c-0.652-3.56,2.403-11.43-0.611-15.907    c-2.132,14.649-7.766,30.385-12.849,44.05c6.4-6.245,6.86-21.688,14.684-24.472c-1.917,7.668-3.885,15.285-6.118,22.637    c2.429-0.427,1.35-4.36,3.671-4.895C263.371,153.82,261.679,154.576,261.891,157.234z M208.664,129.092    c1.628-5.917,2.427-12.665,4.895-17.743c-1.203,0.183-1.214-0.826-1.836-1.224C210.415,116.732,207.435,121.606,208.664,129.092z     M75.289,129.092c-1.109-6.826,2.2-12.476,0.612-17.743C75.318,116.378,72.859,125.007,75.289,129.092z M134.023,119.303    c-0.398-3.273-0.829-6.513-3.671-7.342c0.31,1.933,1.801,2.686,1.835,4.895c-1.766-0.274-1.446-2.632-3.059-3.059    c-0.553,2.047-1.369,0.534-2.447,0c0.976,5.688,3.575,10.697,1.224,16.519c2.452-2.239,5.226-4.155,4.895-9.177    c5.043-0.159,3.138-9.002,0-9.789C133.107,113.713,135.971,116.715,134.023,119.303z M198.875,116.855    c1.552-1.1,2.89-2.413,2.447-5.506c-0.612,0-1.224,0-1.836,0C199.016,112.882,196.323,116.029,198.875,116.855z M209.275,137.657    c3.532-7.276,4.287-17.331,6.73-25.696c-0.136-0.477-0.513-0.711-1.224-0.612C212.081,120.032,209.853,128.253,209.275,137.657z     M217.229,118.691c0.021-2.063,3.56-6.295,0.611-7.342C217.773,113.551,215.614,116.837,217.229,118.691z M124.234,134.598    c5.95-3.562,3.784-17.195,0-21.413C126.393,119.986,127.391,128.082,124.234,134.598z M72.23,137.045    c-0.848-7.021,2.516-16.172,0.612-20.189C72.57,123.246,69.256,131.255,72.23,137.045z M275.962,135.821    c2.089-6.068,7.048-9.267,7.342-17.13c-1.64-0.604-3.623-0.864-4.895-1.835C277.41,125.189,277.692,127.749,275.962,135.821z     M80.184,138.88c-0.402-4.085,0.807-9.78-0.612-12.848C78.812,129.611,78.274,136.165,80.184,138.88z M280.245,138.269    c1.954-0.697,2.865-2.437,3.06-4.895C280.937,133.658,281.375,136.748,280.245,138.269z M258.22,154.787    c1.328-4.432,3.876-10.226,2.447-13.459C259.919,145.645,255.259,150.591,258.22,154.787z M285.139,151.729    c0.762-3.113,3.744-4.005,3.671-7.953c-0.815,0-1.631,0-2.447,0C286.042,146.175,282.235,149.985,285.139,151.729z     M274.739,162.741c4.637-2.502,5.101-9.175,7.342-14.071C276.247,149.974,277.712,158.577,274.739,162.741z M283.304,156.623    c0.14-0.95,2.352-2.854,0.611-3.671C283.477,153.604,281.527,155.771,283.304,156.623z M272.292,167.023    c1.79,0.314,3.245-2.808,1.835-3.671C273.583,164.645,272.264,165.161,272.292,167.023z M258.832,182.931    c2.759-2.013,8.901-6.896,6.73-9.789C263.758,176.845,259.633,178.226,258.832,182.931z M39.192,192.108    c0.137-2.425,6.313-3.552,3.059-5.507C41.079,187.899,36.768,189.245,39.192,192.108z M82.631,203.732    c2.32-1.981-1.963-4.609,0-6.118c1.747,0.7,1.376,3.519,3.059,4.282c1.076-2.099-0.106-3.952-1.224-5.506    C79.157,195.271,79.322,202.83,82.631,203.732z M143.2,207.403c-0.342,2.33-6.108,2.43-4.282,4.895    C139.954,210.662,145.222,210.064,143.2,207.403z M137.082,212.909c-4.131-0.18-9.388,6.868-14.683,5.507    c4.418-1.088,8.061-2.952,11.012-5.507c-5.584,2.555-15.514,5.03-17.742,8.565c3.339,0.661,8.955-2.146,11.625-1.835    c-0.995-0.184-1.65,0.826-0.612,1.224c10.596-3.264,22.088-7.676,28.143-17.131c-3.965,0.733-5.574,7.059-9.177,6.118    c3.377-1.11,4.638-4.336,6.729-6.73c-6.787,4.635-13.595,12.507-22.024,13.46C133.045,215.807,134.957,214.251,137.082,212.909z     M91.196,208.015c1.75-1.466,6.173-0.824,7.342-2.447c-0.612-1.02-2.83-0.433-3.059-1.835    C95.746,206.854,90.784,204.748,91.196,208.015z"/>
		<path fill-rule="evenodd" clip-rule="evenodd" fill="#E31836" d="M260.667,14.684c0.116-0.695,0.613-0.34,0.611,0    c1.936,0.1,2.045-1.626,4.283-1.224c-1.102,1.55-3.003,2.299-4.895,3.059C260.539,15.472,261.71,14.934,260.667,14.684z"/>
		<path fill-rule="evenodd" clip-rule="evenodd" fill="#E31836" d="M279.633,33.649c-1.918,5.47-9.801,8.084-9.789,13.46    c3.249-3.073,5.13-7.515,9.177-9.789c-3.284,6.301-8.351,10.819-11.012,17.742c-2.466-1.613-3.301-4.856-3.06-9.177    C271.811,46.091,271.511,34.188,279.633,33.649z"/>
		<path fill-rule="evenodd" clip-rule="evenodd" fill="#E31836" d="M171.343,38.544c-0.193-1.439-2.9-0.363-2.447-2.447    c1.835,0,3.671,0,5.506,0c-0.069,2.301-2.765,0.422-1.224,3.059c-2.848-0.197-4.082,1.22-6.729,1.224    C166.776,38.886,169.055,39.391,171.343,38.544z"/>
		<path fill-rule="evenodd" clip-rule="evenodd" fill="#E31836" d="M299.823,44.662c-1.482,5.151-8.161,9.856-12.236,15.907    c-3.424,5.084-4.624,16.473-12.236,15.295c-0.182-1.246-1.225-1.63-1.835-2.447c2.543-3.982,6.298-6.754,9.177-10.401    c-4.509,0.23-7.688,10.194-12.848,9.789c2.793-6.588,9.4-9.362,12.848-15.295c2.684-0.034-0.416,2.722,0.612,4.895    C290.147,57.827,293.064,49.324,299.823,44.662z"/>
		<path fill-rule="evenodd" clip-rule="evenodd" fill="#E31836" d="M104.656,55.062c-1.081,1.978-4.198,1.92-4.895,4.283    c3.131-1.811,6.601-5.694,11.625-3.671c-0.517,1.318-2.684,0.987-3.671,1.835c1.046,1.399,3.448-0.998,5.506-0.612    c-3.88,2.646-10.409,2.644-12.236,7.342c4.209-1.964,10.248-8.44,15.907-4.895c-7.223-0.289-11.176,2.692-14.684,6.118    c5.498-2.388,11.507-6.371,18.966-4.895c-5.996,0.939-12.211,1.657-15.295,5.506c4.487-1.901,18.312-6.538,25.696-1.835    c-4.364-0.393-7.834,0.3-14.072,0.612c-2.262,2.844-7.231,6.219-11.013,5.506c1.323,2.38-6.597,7.617-6.73,1.224    c-1.257,0.171-1.221,1.634-1.835,2.447c-0.946-0.889-1.284-2.386-1.224-4.283c-0.752,0.267-1.256,0.783-1.224,1.835    c-1.813-0.889,0.806-2.386,0-4.283c-1.623-0.195,0.572,3.427-1.835,2.447c-0.159-1.791,1.383-1.88,1.224-3.671    c-3.562-0.503-0.077,6.041-3.059,6.118c1.909-6.899-1.301-12.235,0.611-18.966c1.404,1.247,0.222,5.081,0.612,7.341    C96.958,57.489,99.475,56.786,104.656,55.062z M93.643,64.852c0.138-1.932,3.56-3.741,1.835-5.506    C94.762,60.698,91.473,62.641,93.643,64.852z M103.432,59.957c-2.028,0.215-2.654,1.833-3.671,3.059    C101.79,62.801,102.416,61.184,103.432,59.957z M104.656,69.746c3.568-1.53,7.465-2.732,11.013-4.283    C111.228,66.122,106.808,66.8,104.656,69.746z"/>
		<path fill-rule="evenodd" clip-rule="evenodd" fill="#E31836" d="M71.006,57.51c1.058-1.183,4.75,1.056,6.118,3.059    c1.807-0.532-1.419-0.916-0.612-2.447c3.529,1.978,5.625,5.387,7.342,9.177c-2.018,0.608-2.339-3.924-2.447,0    C78.286,63.69,75.564,59.682,71.006,57.51z"/>
		<path fill-rule="evenodd" clip-rule="evenodd" fill="#E31836" d="M74.065,66.075c-4.838-1.751-9.66-4.456-15.907-3.059    c5.42,0.699,10.5,1.736,14.684,3.671c-1.618,2.459-4.375-0.874-6.118-1.224c-15.146-3.037-33.688,4.732-42.827,12.848    c4.886,0.348,9.881-7.592,15.295-6.73c-7.381,4.447-14.478,9.179-19.578,15.907c0.829,2.172-1.44,3.981-3.671,9.177    c5.191-5.414,10.359-10.85,16.519-15.295c-4.538,8.107-14.83,15.76-17.131,28.143c9.55-18.394,19.66-38.418,44.662-35.485    c6.552,0.769,11.917,6.055,18.966,7.342c19.552,3.57,27.512-9.911,40.991-14.072c0.161,1.997-1.903,1.768-2.447,3.059    c0.093,1.946,1.387,2.691,1.224,4.895c-0.988,1.341-0.975-3.471-1.835-4.283c-1.542,1.055-0.251,3.528-0.612,4.895    c-1.048,1.973-1.66-1.532-1.835-2.447c-1.538,1.185,0.719,3.727,0.612,5.506c-0.685,0.841-1.674-3.185-1.835-4.895    c-1.467,1.707,1.064,4.62,0.612,7.342c-1.439-1.212-1.042-4.26-1.835-6.118c-2.125,4.787,2.022,8.575,1.224,14.072    c-1.28-3.003-1.445-7.121-2.447-10.401c-0.901,4.221,0.965,7.819-0.612,12.236c-0.821-0.402-1.14-1.308-1.224-2.447    c-1.548,2.517-0.002,4.975-0.612,6.729c0.297-0.855-1.44-6.251-1.224-10.4c-1.351,0.076-0.26,2.595-0.612,3.671    c-1.129-2.134-1.235-5.291-1.835-7.954c-1.814,2.411,1.548,7.586-0.612,10.4c-1.583-2.291-0.602-7.147-1.835-9.789    c-1.807,1.78,0.506,5.309-0.612,6.73c-1.368-0.264-0.248-3.015-0.612-4.283c-3.728,14.205,1.135,38.552-1.224,52.615    c-1.125-17.416-1.806-38.539-0.612-53.839c-2.732-0.286-0.115,4.779-1.835,5.506c-1.368-0.264-0.248-3.015-0.612-4.283    c-2.18,2.786-0.754,10.802-3.059,11.624c-1.21-1.45-1.155-6.838,1.224-6.729c0.654-2.286-1.519-1.744-1.224-3.671    c-2.873,3.174-0.208,14.003-3.059,15.295c0.386-4.401,1.023-11.488,0.611-14.683c-3.065,3.426-0.107,9.197-1.835,14.071    c-1.393-3.648-0.472-10.25,0-14.071c-4.391,3.97-0.486,16.237-3.671,21.413c0.031-5.634,0.418-14.132,1.224-20.801    c-3.336,12.333-2.125,25.886-2.447,41.603c-2.55-9.803-1.213-29.158,0.612-41.603c-2.642,6.465-3.266,11.256-3.059,20.189    c-3.269-5.583,0.118-14.921,1.224-20.189c-2.904,2.807-2.771,8.65-4.283,12.848c-1.907-4.366,2.322-7.866,1.835-12.848    c-2.136,0.922-1.844,4.274-3.059,6.118c-1.558-2.801,2.169-5.564,2.447-8.565c-9.357-6.202-22.369-10.485-35.485-6.73    c-14.722,4.215-24.645,21.991-26.308,38.544c1.404-4.918,2.294-10.35,4.283-14.684c-1.638,8.583-3.661,19.502-1.835,31.814    c-0.692-28.636,7.089-52.047,29.979-55.063c-6.139,2.834-12.577,5.369-16.519,10.401c6.099-4.01,13.573-9.985,21.413-8.565    c-0.18,1.248-1.655,1.2-1.835,2.447c1.935,0.933,4.496-1.606,8.565-1.835c-1.353,1.707-3.946,2.172-6.118,3.059    c0.772,1.318,3.254-0.777,4.283-1.224c-0.21,5.451-7.369,6.358-11.012,9.789c-4.86,4.576-7.699,10.294-11.013,15.907    c6.146-7.518,11.067-16.26,20.189-20.801c-5.946,6.086-12.659,11.405-15.907,20.189c4.836-8.178,14.815-20.889,21.413-19.578    c1.192,2.074-3.864,4.058-6.118,6.729c-5.007,5.936-8.458,15.375-11.012,24.473c5.931-12.832,9.959-27.565,24.472-31.814    c-9.184,7.334-15.957,17.081-18.354,31.202c4.869-12.058,10.385-23.469,19.578-31.202c2.161,2.4-2.885,2.798-3.059,4.895    c0.813-0.615,2.276-0.579,2.447-1.835c-5.286,9.806-13.95,21.534-15.295,37.32c4.004-13.739,8.684-26.802,16.519-36.708    c-5.76,12.552-15.479,30.25-15.295,49.557c0.103,10.809,2.355,21.728,5.506,31.813c-2.874-1.205-2.48-5.678-3.671-8.565    c-1.327-0.103-0.277,2.17-0.612,3.06c-4.76-10.127-5.204-24.57-4.895-39.768c-3.667,17.567,1.769,36.547,5.506,50.78    c-6.734-12.232-7.682-30.251-9.789-47.109c-1.981,16.869,3.483,31.593,6.729,45.273c-6.442-12.932-9.003-29.744-9.177-48.944    c-2.931,14.633,1.586,29.194,4.283,42.826c-5.46-11.088-7.347-28.915-6.73-44.05c-2.361,2.854-1.462,10.465-1.224,14.684    c0.51,9.006,2.298,17.352,4.283,25.084c-6.179-10.065-5.144-23.76-6.118-38.544c-1.563,7.657-0.097,14.95,0,22.025    c-2.294-6.271-1.787-15.345-2.447-23.249c-2.369,18.933,2.946,37.24,8.565,52.615c-3.494-5.683-5.596-12.758-8.565-18.966    c0.391,6.343,4.377,14.382,7.342,20.189c-3.826-2.068-4.901-7.786-6.73-12.848c-3.801-10.521-7.335-22.976-6.118-39.768    c-1.192,2.73-1.319,1.134-1.224-1.835c-1.688,17.392,3.262,33.446,7.954,46.498c-5.177-7.467-7.187-18.102-8.565-29.367    c-1.863,8.29,2.482,19.586,5.506,26.92c-2.576,1.332-2.251-5.483-4.283-6.73c-1.469,1.312,1.49,3.369,0.612,6.118    c-2.148-3.97-3.86-8.376-4.283-14.071c-1.48,4.189,0.733,8.255,1.224,13.46c-6.541-18.23-5.893-51.817-1.224-69.135    c-6.95,17.417-5.823,44.115-2.447,62.404c-1.632-1.834-2.14-4.793-2.447-7.953c-1.054,3.107,0.977,8.394,1.835,11.624    c-9.318-13.774-13.072-38.424-8.565-57.51c-5.403,13.754-3.51,26.465,0.612,39.768c-4.006-2.631-5.573-12.986-5.506-21.413    c0.039-4.854,1.447-9.319,1.224-13.46c-4.75,9.599-1.183,24.07,1.224,33.649c-8.369-14.688-4.358-39.989,4.895-50.78    c-11.024,10.589-12.814,32.379-7.342,50.169c-5.667-11.916-6.439-36.339,1.835-45.886c-1.721-1.781-0.57-3.525,0-6.118    c-9.099,13.208-10.341,40.425-6.729,56.286c-0.665-0.151-0.415-1.217-1.224-1.224c0.548,4.55,1.964,8.232,2.447,12.848    c-4.378-6.957-8.768-20.03-6.73-29.366c-1.965-6.312-0.915-18.995,1.224-26.308c5.696-19.479,21.621-39.26,40.991-40.991    c-4.534,2.4-11.208,2.66-14.072,6.73C41.594,67.35,61.768,53.565,74.065,66.075z M110.162,86.877    c-0.232-3.235,0.135-7.069-1.835-8.565C108.708,81.397,109.079,84.493,110.162,86.877z M35.521,91.159    c1.9-1.62,9.801-7.698,14.684-10.4C43.994,82.909,39.246,86.522,35.521,91.159z M37.357,93.606    c4.307-4.666,9.824-8.122,15.295-11.624C46.408,84.306,39.495,89.215,37.357,93.606z M36.745,104.007    c5.691-7.77,15.183-14.998,21.413-20.189C49.918,89.446,40.884,94.279,36.745,104.007z M37.969,96.054    c3.357-4.396,10.762-7.996,12.848-11.624C46.89,88.256,38.936,91.306,37.969,96.054z M55.099,95.442    c2.604-1.08,6.056-4.532,6.118-6.118C59.028,91.213,56.806,93.069,55.099,95.442z M57.546,115.632    c2.758-8.053,8.227-16.651,11.013-22.637C63.511,98.757,58.574,107.887,57.546,115.632z M50.817,118.079    c2.252-8.558,7.602-17.276,10.4-23.249C56.743,101.166,50.614,109.104,50.817,118.079z M44.087,117.467    c3.818-5.882,8.457-15.678,9.177-20.802C51.314,102.882,46.301,109.658,44.087,117.467z M23.897,135.821    c-0.864-12.286,0.937-25.165,1.835-33.649C22.831,111.909,21.393,125.648,23.897,135.821z M30.015,132.763    c-0.743-9.923,1.116-20.499,0.612-28.144C28.548,111.987,27.783,124.859,30.015,132.763z M47.146,106.455    c1.32-1.376-3.883,3.591-1.835,4.895C45.395,109.19,47.061,108.613,47.146,106.455z M23.897,157.234    c-2.275-11.796-4.229-23.913-6.118-36.096C18.024,134.964,20.255,146.806,23.897,157.234z M37.969,139.492    c-0.289-2.585-0.369-8.58-1.224-8.565C36.869,134.066,36.202,137.996,37.969,139.492z M57.546,150.505    c-0.585-6.211-0.075-14.549-1.224-18.966C56.609,137.982,55.49,145.832,57.546,150.505z M32.462,140.716    c-1.655-0.415,0.374-7.674-1.224-6.118C31.52,136.386,30.375,142.763,32.462,140.716z M36.133,140.104    c-0.181-1.237,1.085-6.436-1.224-5.507c1.292,7.681,0.495,17.451,4.283,22.637C38.11,152.786,36.924,145.523,36.133,140.104z     M29.403,152.952c-0.686-4.82,1.452-12.464-1.224-15.295C28.538,142.806,27.227,149.623,29.403,152.952z M39.192,151.116    c-0.372-3.706,0.034-8.19-1.835-10.4C38.031,144.12,37.744,148.486,39.192,151.116z M32.462,159.07    c-0.278-4.005-0.54-8.025-1.835-11.013C30.526,152.441,30.766,156.483,32.462,159.07z M59.994,162.741    c-1.514-3.381-0.789-9-3.059-11.625C57.892,155.054,57.265,160.576,59.994,162.741z M40.416,157.234    c0.045-2.288-0.257-4.229-1.224-5.506C39.147,154.017,39.45,155.958,40.416,157.234z"/>
		<path fill-rule="evenodd" clip-rule="evenodd" fill="#E31836" d="M72.23,99.725c-8.118,22.824-11.436,55.521-1.224,80.147    c-5.69-11.298-8.574-25.615-8.565-40.992c-3.927,12.921,3.272,25.263,4.895,36.708c-13.347-22.715-7.586-62.911,6.118-80.759    c-5.989,11.958-10.097,25.796-12.236,41.603C65.658,124.967,66.832,110.234,72.23,99.725z"/>
		<path fill-rule="evenodd" clip-rule="evenodd" fill="#8B0F04" d="M115.668,65.463c-3.548,1.551-7.445,2.752-11.013,4.283    C106.808,66.8,111.228,66.122,115.668,65.463z"/>
		<path fill-rule="evenodd" clip-rule="evenodd" fill="#E31836" d="M141.365,88.712C138,82.9,134.861,76.861,130.352,72.193    C134.922,74.356,139.509,81.795,141.365,88.712z"/>
		<path fill-rule="evenodd" clip-rule="evenodd" fill="#8B0F04" d="M165.836,80.147c2.075,0.384,4.664,5.524,5.507,9.177    C168.958,86.814,167.753,83.125,165.836,80.147z"/>
		<path fill-rule="evenodd" clip-rule="evenodd" fill="#8B0F04" d="M50.205,80.759c-4.883,2.703-12.783,8.781-14.684,10.4    C39.246,86.522,43.994,82.909,50.205,80.759z"/>
		<path fill-rule="evenodd" clip-rule="evenodd" fill="#E31836" d="M150.542,80.759c-0.965-1.482-2.188-2.706-3.671-3.671    c0.98-1.527,3.61,0.42,3.671,1.835c1.832-0.402-0.585-1.308,0-2.447c5.043,3.962,10.027,11.138,9.177,18.966    c-0.967-1.072-0.818-3.259-1.224-4.894c-1.351,0.076-0.26,2.595-0.611,3.67c-2.314-1.152-0.67-6.264-3.06-7.341    c-0.365,0.132,2.41,12.546,0.612,6.729c-1.981-8.011-7.406-12.579-12.236-17.742C146.548,76.594,148.026,79.195,150.542,80.759z"/>
		<path fill-rule="evenodd" clip-rule="evenodd" fill="#8B0F04" d="M52.652,81.982c-5.471,3.502-10.988,6.958-15.295,11.624    C39.495,89.215,46.408,84.306,52.652,81.982z"/>
		<path fill-rule="evenodd" clip-rule="evenodd" fill="#8B0F04" d="M58.158,83.818c-6.23,5.192-15.722,12.419-21.413,20.189    C40.884,94.279,49.918,89.446,58.158,83.818z"/>
		<path fill-rule="evenodd" clip-rule="evenodd" fill="#8B0F04" d="M50.817,84.43c-2.086,3.628-9.491,7.229-12.848,11.624    C38.936,91.306,46.89,88.256,50.817,84.43z"/>
		<path fill-rule="evenodd" clip-rule="evenodd" fill="#8B0F04" d="M61.217,89.324c-0.062,1.585-3.515,5.038-6.118,6.118    C56.806,93.069,59.028,91.213,61.217,89.324z"/>
		<path fill-rule="evenodd" clip-rule="evenodd" fill="#8B0F04" d="M205.604,89.936c0.617,1.86-3.749,3.985-4.282,6.729    C200.7,94.8,204.105,91.714,205.604,89.936z"/>
		<path fill-rule="evenodd" clip-rule="evenodd" fill="#8B0F04" d="M68.559,92.995c-2.786,5.985-8.254,14.584-11.013,22.637    C58.574,107.887,63.511,98.757,68.559,92.995z"/>
		<path fill-rule="evenodd" clip-rule="evenodd" fill="#8B0F04" d="M173.178,94.83c7.951,11.73,10.61,39.856,5.507,58.122    C182.261,132.764,179.987,109.82,173.178,94.83z"/>
		<path fill-rule="evenodd" clip-rule="evenodd" fill="#8B0F04" d="M61.217,94.83c-2.798,5.973-8.148,14.691-10.4,23.249    C50.614,109.104,56.743,101.166,61.217,94.83z"/>
		<path fill-rule="evenodd" clip-rule="evenodd" fill="#8B0F04" d="M53.264,96.666c-0.72,5.124-5.358,14.92-9.177,20.802    C46.301,109.658,51.314,102.882,53.264,96.666z"/>
		<path fill-rule="evenodd" clip-rule="evenodd" fill="#8B0F04" d="M250.878,98.501c4.106,7.126,2.052,16.176,1.224,25.696    c-1.661,0.438,0.438-2.885-1.224-2.447c-2.414,5.708-1.487,13.819-4.283,17.742C249.024,126.886,251.778,112.538,250.878,98.501z"/>
		<path fill-rule="evenodd" clip-rule="evenodd" fill="#8B0F04" d="M45.311,111.349c-2.048-1.303,3.156-6.271,1.835-4.895    C47.061,108.613,45.395,109.19,45.311,111.349z"/>
		<path fill-rule="evenodd" clip-rule="evenodd" fill="#8B0F04" d="M130.963,121.138c1.306,11.02-4.624-11.425-1.224-2.447    C129.938,119.213,129.795,119.321,130.963,121.138z"/>
		<path fill-rule="evenodd" clip-rule="evenodd" fill="#8B0F04" d="M193.98,162.129c-1.312-2.155-1.282-5.651-1.224-9.177    C194.463,150.173,193.049,158.987,193.98,162.129z"/>
		<path fill-rule="evenodd" clip-rule="evenodd" fill="#E31836" d="M130.352,216.58c8.43-0.953,15.237-8.825,22.024-13.46    c-2.092,2.395-3.353,5.62-6.729,6.73c3.603,0.94,5.212-5.385,9.177-6.118c-6.055,9.455-17.547,13.867-28.143,17.131    c-1.039-0.397-0.383-1.407,0.612-1.224c-2.669-0.312-8.285,2.496-11.625,1.835c2.229-3.535,12.158-6.011,17.742-8.565    c-2.951,2.555-6.594,4.419-11.012,5.507c5.295,1.361,10.552-5.687,14.683-5.507C134.957,214.251,133.045,215.807,130.352,216.58z     M135.858,216.58c3.12-1.173,8.43-3.386,8.565-5.506C142.395,213.736,137.603,213.634,135.858,216.58z"/>
		<path fill-rule="evenodd" clip-rule="evenodd" fill="#8B0F04" d="M144.423,211.074c-0.136,2.12-5.445,4.333-8.565,5.506    C137.603,213.634,142.395,213.736,144.423,211.074z"/>
		<path fill-rule="evenodd" clip-rule="evenodd" fill="#E31836" d="M157.883,199.449c9.011-13.218,19.743-24.715,20.802-45.886    c-1.06,5.059-3.542,8.694-5.507,12.849c1.41-10.507,6.831-19.594,5.507-34.873c-1.615,13.391-3.617,31.373-10.401,41.603    c-1.432-0.156-0.353-2.688,0-3.059c-6.102,9.207-12.605,16.076-22.637,20.189c13.753-10.312,21.485-26.643,26.308-45.886    c-0.055,9.736-4.562,20.317-8.565,28.144c5.35-5.665,9-18.327,10.401-29.979c2.014,0.998-0.064,6.84,0,9.789    c4.993-11.656,2.054-24.364,2.447-35.485c0.016-0.461,1.249-2.03,1.224-2.447c-0.182-2.962-2.089-9.158-3.06-12.236    c-4.604-14.606-16.994-35.922-29.366-42.215c-0.869-0.442-1.431,0.912-2.447,0.612c-4.387-1.291-7.947-7.053-12.236-7.341    c5.561-0.865,11.32,3.358,17.131,4.282c23.592,13.997,41.356,48.967,34.873,87.489    C178.892,165.576,172.539,188.489,157.883,199.449z M171.343,89.324c-0.843-3.653-3.432-8.793-5.507-9.177    C167.753,83.125,168.958,86.814,171.343,89.324z M178.685,152.952c5.104-18.266,2.444-46.392-5.507-58.122    C179.987,109.82,182.261,132.764,178.685,152.952z"/>
		<path fill-rule="evenodd" clip-rule="evenodd" fill="#E31836" d="M247.208,152.952c5.55-6.688,6.741-23.032,9.789-34.261    c1.84-0.617,1.084,1.363,1.224,2.447c2.659-2.847,0.054-10.959,3.671-12.848c0.074,3.382,0.223,7.154,1.224,11.013    c-6.241,18.436-10.115,39.238-20.802,53.228c2.166,2.667-0.092,4.742-1.224,7.342c4.925-2.621,5.264-9.827,8.565-14.072    c1.19,4.057-3.071,7.935-3.671,12.236c1.021,1.178,3.307-1.552,3.671-3.059c1.466-0.243-0.34,2.786,1.835,1.835    c0.112,5.414-3.076,7.528-8.565,7.342c-2.728,3.187-4.897,6.931-7.953,9.789c-15.179,3.191-26.388-0.605-35.485-7.342    c-6.842-5.066-13.854-13.473-15.906-20.802c1.909-1.729,2.009,2.061,3.671,2.447c-1.263-3.069-2.091-4.497-1.224-8.565    c3.008,0.866,1.964,5.785,3.67,7.954c2.167-0.068-1.3-2.022,0.612-1.836c3.341,1.554,3.569,6.221,4.895,9.789    c-2.361-1.31-3.31-4.032-4.282-6.729c-0.171,4.289,3.12,9.968,7.341,10.4c-1.958-13.337-10.99-19.6-10.4-35.484    c2.077,0.981,1.609,4.508,2.447,6.729c-0.198-5.652-1.338-11.975-0.612-20.189c-1.858-1.008-4.15-10.797,1.225-9.789    c0.65,2.55,0.158,2.698,0,5.506c0.348,0.218,0.783-1.043,0.611-1.224c3.553,3.732-0.222,17.929,1.835,26.307    c1.752-1.307-0.849-6.967,2.447-6.729c1.046,11.313,0.281,21.718,3.671,29.367c1.208-3.059-1.982-6.979-1.224-11.625    c1.897,1.366,1.082,5.444,2.447,7.342c2.037-2.74-2.879-8.326-1.224-14.684c-0.752,0.268-1.256,0.783-1.224,1.836    c-1.56-3.411-2.344-13.867,0-17.131c-0.452,4.138,0.743,8.45,0,11.013c2.535-0.368,2.009,4.549,3.06,7.342    c1.031-14.025-0.385-34.473,3.059-47.109c1.029,2.88-1.008,7.954-1.224,11.625c0.268,0.908,0.783-0.242,1.836,0    c-1.18,3.943,0.464,7.319-0.612,12.236c1.271-0.157,0.168-2.688,1.224-3.059c3.243,0.544-1.733,5.506,3.06,4.282    c-0.287,3.996-0.623,7.943-1.224,11.625c1.946-2.099,1.075-6.073,1.835-7.954c2.826,7.249-0.462,15.701,0,23.249    c2.961-1.585,1.126-4.406,1.224-7.342c0.316-9.501,1.61-20.947,3.671-29.979c1.176,5.842-1.665,15.056-1.835,23.249    c4.479-8.573,1.569-24.535,8.565-30.591c0.778-7.379,4.23-12.083,4.282-20.19c-3.856-0.594-4.135,2.391-5.506,4.283    c-1.648-0.723,0.002-3.19,0-4.283c-2.656,0.403-1.17,4.948-4.283,4.895c-0.406-3.261,0.26-5.451,1.836-6.73    c-1.047-1.784-2.228,1.387-4.283,0.612c0.55-1.791,0.55-1.879,0-3.67c-4.228-0.149-2.962,5.195-7.342,4.894    c2.213-2.274,3.069-5.904,5.507-7.953c-5.393-1.078-8.057,10.255-12.236,8.565c-1.551,1.495,1.29,1.304,0.611,3.671    c-5.025,6.866,0.198,20.256-4.895,27.532c0.498-3.642-1.057-14.404,1.224-19.578c-0.402-1.833-1.308,0.585-2.447,0    c1.04-11.249,7.572-22.165,20.19-23.86c-1.384-3.662-8.444,0.789-10.401,2.447c0.491-4.545,10.213-7.254,15.907-6.73    c0.185-1.612-0.847-2.008-2.447-1.835c1.51-1.667,4.354,0.506,5.507,1.224c1.047-2.459,3.068-1.829,4.282,0    c1.497-1.443-0.914-1.138-0.611-3.059c1.537,0.502,2.843,1.235,3.67,2.447c1.085-0.751,3.225-0.446,3.671-1.835    c2.281,0.507,2.27,3.983,5.507,1.835c1.05,0.989,1.52,2.559,1.224,4.895c-5.901,0.42-11.183,1.461-16.519,2.447    c-1.88-0.384-5.335-3.55-6.73-0.612c6.196,8.282,17.413-1.583,26.92,1.835c11.015,8.846,23.382-9.07,37.932-2.447    c-0.455-3.371-10.996-4.701-16.519-3.059c2.529-3.366,7.638-1.485,12.236-1.835c-4.674-1.357-6.642-1.644-9.177-4.895    c-3.423-0.423,0.375,2.576-2.447,2.447c-0.034-1.197-0.664-2.903-2.447-1.224c-1.09-0.449-0.089-1.112,0-1.835    c-4.331-0.956-7.375-0.474-9.178,2.447c-1.521-0.092-0.179-2.072,0-2.447c-1.259,1.188-3.732,1.162-3.059,4.283    c1.28,1.438,3.057-1.803,4.895-1.835c-0.534,1.079-2.048,1.895,0,2.447c1.863,1.219,4.871-3.661,7.342-1.835    c-0.527,1.716-3.186,1.301-4.283,2.447c2.176,1.411,3.583,1.22,5.507,1.835c-5.269,1.983-11.219,8.031-17.131,5.506    c1.291-6.05,1.885-12.799,3.671-18.354c25.03,2.652,40.506,12.164,45.273,34.261c2.059,9.539-0.222,18.443,0.612,29.979    c-7.835,14.75-13.271,38.183-26.92,49.557c-6.794,5.662-16.743,12.341-29.979,8.564c1.546-3.593,6.807-4.126,9.789-1.835    c5.912-3.062,11.111-6.835,15.295-11.624c0,0.815,0,1.631,0,2.447c6.998-1.497,4.851-8.561,9.789-11.625    c-0.146,2.505-2.078,3.225-2.447,5.507c8.931-13.142,21.727-28.786,19.578-48.945c0.804-0.734,0.962-0.239,1.835,0    c0.756-1.98-1.979-0.468-1.224-2.447c0.044-0.017,1.174,0.78,1.224,0.612c3.599-12.208-1.652-29.799-8.565-34.873    c-5.433,1.093-8.4,4.651-15.295,4.282c-1.813,0.889,0.806,2.387,0,4.283c-1.612-4.177-4.367,0.064-7.953-1.835    c-1.368,0.264-0.248,3.015-0.612,4.283c-1.279-0.556-1.865-1.806-1.835-3.671c-1.563,0.468-2.813,0.901-3.671-0.612    c-0.804,0.216-0.963,1.077-1.836,1.224c2.467,14.824-0.96,28.417-4.895,42.215c-0.337,1.356,1.168,0.871,1.224,1.836    C250.046,146.818,248.347,149.605,247.208,152.952z M201.322,96.666c0.533-2.745,4.899-4.869,4.282-6.729    C204.105,91.714,200.7,94.8,201.322,96.666z M220.9,126.033c2.86-0.198-0.201-6.319,3.059-6.118    c0.389,5.759-5.957,11.081-3.059,15.295c0.104-1.73-0.526-4.197,1.224-4.283c0.429,2.672-1.041,3.446-0.612,6.118    c-1.72-1.776-1.675,0.919-3.059,1.224c-0.86-2.532,1.745-4.726,0-6.118c-1.146,3.137-0.085,8.481-1.836,11.013    c3.004-0.556,2.33,2.564,4.895,2.447c-0.361-2.604,0.44-4.047,0.612-6.118c-1.59,0.366-2.202-0.245-1.836-1.835    c0.873,0.147,1.032,1.008,1.836,1.224c1.574-14.74,3.811-28.818,7.341-41.603c-0.135-0.477-0.512-0.711-1.223-0.612    C227.153,107.814,221.533,114.429,220.9,126.033z M233.135,127.868c-4.087,1.312-4.279,6.201-3.059,11.012    c1.939-3.035-0.719-7.507,2.447-8.565c-0.831,11.201-5.258,18.807-6.118,29.979c7.795-15.73,5.824-37.705,14.071-53.228    c0.885,2.115-0.683,2.883,0.612,4.283c1.036-3.68,0.928-10.429-1.224-12.848C239.211,109.88,233.236,115.936,233.135,127.868z     M242.313,113.796c-1.335,0.39-1.946-1.734-1.836,0.612c-2.688,18.246-8.948,39.471-11.624,57.51    c5.649-11.073,4.981-28.464,10.4-39.768c-0.065-3.328,0.178-6.348,1.224-8.565c2.341,1.179,1.137,7.593,0.612,9.789    c2.917,0.878-0.47-4.548,2.447-3.67c1.159,1.401-1.193,4.449,0.611,6.118c3.486-6.106,3.236-16.956,3.671-26.308    c0.185-3.961,2.416-8.449-1.224-10.401c-0.846,10.371-1.191,21.241-3.671,29.979c-0.633-10.9,1.993-21.569,1.224-30.591    c-0.611,0-1.224,0-1.835,0C243.455,103.788,242.55,109.631,242.313,113.796z M246.595,139.492    c2.796-3.923,1.869-12.035,4.283-17.742c1.661-0.438-0.438,2.885,1.224,2.447c0.828-9.521,2.883-18.57-1.224-25.696    C251.778,112.538,249.024,126.886,246.595,139.492z M226.406,126.033c1.668-7.846,6.255-19.138,4.895-26.308    C229.668,108.087,226.182,117.853,226.406,126.033z M230.689,126.645c1.592-8.02,5.997-19.663,4.282-26.92    C234.175,109.33,231.18,116.735,230.689,126.645z M222.735,148.058c2.349-1.436,2.913-10.8,1.224-12.236    C224.195,140.544,222.62,143.456,222.735,148.058z M205.604,170.083c0.146-5.825,4.757-7.859,1.224-12.849    c-0.146,0.665-1.007,1.47-1.224,0.612c-0.738-5.479,0.234-12.759,0.612-18.966c-1.185,0.089-0.854-1.059-1.836-2.447    C203.808,147.106,203.322,160.509,205.604,170.083z M239.253,156.623c1.064-5.915,5.433-14.826,4.283-20.19    C242.339,142.989,238.375,150.028,239.253,156.623z M237.418,167.636c-1.179-0.249-0.483-2.372-2.447-1.836    c-0.242,2.884-1.647,7.393,1.224,8.565c4.229-10.047,10.504-21.309,12.236-31.813C244.517,150.67,242.039,160.224,237.418,167.636    z M212.946,153.563c2.256,0.057,2.107-3.064,0.612-3.67C212.745,151.185,213.86,151.701,212.946,153.563z M192.756,152.952    c-0.059,3.525-0.088,7.021,1.224,9.177C193.049,158.987,194.463,150.173,192.756,152.952z"/>
		<path fill-rule="evenodd" clip-rule="evenodd" fill="#8B0F04" d="M242.313,98.501c0.611,0,1.224,0,1.835,0    c0.77,9.022-1.856,19.69-1.224,30.591c2.479-8.738,2.825-19.608,3.671-29.979c3.64,1.952,1.408,6.439,1.224,10.401    c-0.435,9.352-0.185,20.201-3.671,26.308c-1.805-1.668,0.548-4.716-0.611-6.118c-2.917-0.878,0.47,4.548-2.447,3.67    c0.524-2.195,1.729-8.61-0.612-9.789c-1.046,2.217-1.289,5.237-1.224,8.565c-5.419,11.304-4.751,28.694-10.4,39.768    c2.676-18.039,8.937-39.264,11.624-57.51c-0.11-2.346,0.501-0.222,1.836-0.612C242.55,109.631,243.455,103.788,242.313,98.501z"/>
		<path fill-rule="evenodd" clip-rule="evenodd" fill="#E31836" d="M263.726,151.729c-2.321,0.534-1.242,4.468-3.671,4.895    c2.233-7.353,4.201-14.969,6.118-22.637c-7.823,2.784-8.283,18.227-14.684,24.472c5.083-13.665,10.717-29.4,12.849-44.05    c3.015,4.477-0.041,12.347,0.611,15.907c3.293-3.823,6.686-8.785,5.506-15.295c1.522,0.067,1.895,1.146,3.06,0    c0-1.835,0-3.671,0-5.506c4.992,4.917,2.343,19.684-2.447,23.86c-0.22-3.687,1.443-5.49,1.224-9.177    c-3.752,3.599-0.825,10.927-1.836,16.519c-1.432-0.157-0.352-2.688,0-3.059c-2.719,0.381-1.046,1.359-1.835,3.671    c-0.188,1.911,1.768-1.556,1.835,0.611c3.34-0.942,1.263-7.303,4.283-8.565c-0.323,10.568-6.099,17.27-4.283,28.144    c-9.973,7.361-13.674,20.994-24.472,27.531c6.264-7.808,11.615-16.528,17.742-24.473c-3.951-4.467,3.288-5.294,4.283-8.565    c-0.381-2.126-2.557,3.437-2.447,0c2.118-1.874,4.382-3.225,4.282-8.564c-1.13,0.571-4.192,5.972-4.282,1.835    c-1.217,2.658-1.021,6.729-3.671,7.953C261.679,154.576,263.371,153.82,263.726,151.729z"/>
		<path fill-rule="evenodd" clip-rule="evenodd" fill="#8B0F04" d="M228.242,96.666c0.711-0.099,1.088,0.135,1.223,0.612    c-3.53,12.785-5.767,26.863-7.341,41.603c-0.804-0.216-0.963-1.077-1.836-1.224c-0.366,1.59,0.246,2.202,1.836,1.835    c-0.172,2.071-0.974,3.514-0.612,6.118c-2.564,0.117-1.891-3.003-4.895-2.447c1.751-2.531,0.689-7.875,1.836-11.013    c1.745,1.393-0.86,3.586,0,6.118c1.384-0.305,1.339-3,3.059-1.224c-0.429-2.672,1.041-3.446,0.612-6.118    c-1.75,0.086-1.119,2.552-1.224,4.283c-2.898-4.214,3.447-9.536,3.059-15.295c-3.26-0.201-0.198,5.92-3.059,6.118    C221.533,114.429,227.153,107.814,228.242,96.666z"/>
		<path fill-rule="evenodd" clip-rule="evenodd" fill="#8B0F04" d="M204.38,136.433c0.982,1.389,0.651,2.536,1.836,2.447    c-0.378,6.208-1.351,13.488-0.612,18.966c0.217,0.857,1.077,0.053,1.224-0.612c3.533,4.989-1.077,7.023-1.224,12.849    C203.322,160.509,203.808,147.106,204.38,136.433z"/>
	</g>
</g>
<metadata><rdf:RDF><cc:Work><dc:format>image/svg+xml</dc:format><dc:type rdf:resource="http://purl.org/dc/dcmitype/StillImage"/><cc:license rdf:resource="http://creativecommons.org/licenses/publicdomain/"/><dc:publisher><cc:Agent rdf:about="http://openclipart.org/"><dc:title>Open Clip Art Library</dc:title></cc:Agent></dc:publisher><dc:title>four apples</dc:title><dc:date>2006-10-11T20:30:46</dc:date><dc:description>four red apples</dc:description><dc:source>http://openclipart.org/detail/517/four-apples-by-johnny_automatic</dc:source><dc:creator><cc:Agent><dc:title>johnny_automatic</dc:title></cc:Agent></dc:creator><dc:subject><rdf:Bag><rdf:li>apples</rdf:li><rdf:li>apples</rdf:li><rdf:li>clip art</rdf:li><rdf:li>clipart</rdf:li><rdf:li>food</rdf:li><rdf:li>food</rdf:li><rdf:li>four</rdf:li><rdf:li>four</rdf:li><rdf:li>fruit</rdf:li><rdf:li>fruit</rdf:li><rdf:li>image</rdf:li><rdf:li>media</rdf:li><rdf:li>png</rdf:li><rdf:li>public domain</rdf:li><rdf:li>red</rdf:li><rdf:li>red</rdf:li><rdf:li>svg</rdf:li></rdf:Bag></dc:subject></cc:Work><cc:License rdf:about="http://creativecommons.org/licenses/publicdomain/"><cc:permits rdf:resource="http://creativecommons.org/ns#Reproduction"/><cc:permits rdf:resource="http://creativecommons.org/ns#Distribution"/><cc:permits rdf:resource="http://creativecommons.org/ns#DerivativeWorks"/></cc:License></rdf:RDF></metadata></svg>
