<?xml version="1.0" encoding="utf-8"?>
<!-- Generator: Adobe Illustrator 24.0.3, SVG Export Plug-In . SVG Version: 6.00 Build 0)  -->
<svg version="1.1" xmlns="http://www.w3.org/2000/svg" xmlns:xlink="http://www.w3.org/1999/xlink" x="0px" y="0px"
	 viewBox="0 0 127.9 240" style="enable-background:new 0 0 127.9 240;" xml:space="preserve">
<style type="text/css">
	.st0{fill:#FEE4CD;}
	.st1{fill:none;stroke:#000000;stroke-width:0.733;stroke-miterlimit:19.8119;}
	.st2{fill:none;stroke:#000000;stroke-width:0.733;stroke-miterlimit:30.9561;}
	.st3{fill:none;stroke:#000000;stroke-width:1.0401;stroke-miterlimit:19.8119;}
	.st4{fill:#047CC1;}
	.st5{fill:#FFFFFF;}
	.st6{fill:none;stroke:#000000;stroke-width:0.6043;stroke-miterlimit:19.8119;}
	.st7{fill:#A64239;}
	.st8{fill:#F79C85;}
	.st9{fill:none;stroke:#000000;stroke-width:0.4012;stroke-miterlimit:19.8119;}
	.st10{fill:#EF3F42;}
</style>
<g id="porky" xmlns:cc="http://creativecommons.org/ns#" xmlns:dc="http://purl.org/dc/elements/1.1/" xmlns:rdf="http://www.w3.org/1999/02/22-rdf-syntax-ns#" xmlns:svg="http://www.w3.org/2000/svg">
	<g id="tail">
		<g id="g8652" transform="translate(496.5591,43.3021)">
			<path id="path8654" class="st0" d="M-385.3,148.5c0,0,2.6-0.5,1.9,2.4c0,0-0.5,2.6-2.2,4.6c0,0-1.7,0.7-2.1-1.7
				C-387.6,153.8-385.4,148.7-385.3,148.5"/>
		</g>
		<g id="g8656" transform="translate(496.5591,43.3021)">
			<path id="path8658" class="st1" d="M-385.3,148.5c0,0,2.6-0.5,1.9,2.4c0,0-0.5,2.6-2.2,4.6c0,0-1.7,0.7-2.1-1.7
				C-387.6,153.8-385.4,148.7-385.3,148.5z"/>
		</g>
		<g id="g8660" transform="translate(496.2047,42.0486)">
			<path id="path8662" class="st0" d="M-386.7,156c0,0,4,1.8,8.2-2.5c0,0-3.1,7.7-9.7,5.1C-388.2,158.5-387.4,156.7-386.7,156"/>
		</g>
		<g id="g8664" transform="translate(496.2047,42.0486)">
			<path id="path8666" class="st2" d="M-386.7,156c0,0,4,1.8,8.2-2.5c0,0-3.1,7.7-9.7,5.1C-388.2,158.5-387.4,156.7-386.7,156z"/>
		</g>
	</g>
	<g id="g8672" transform="translate(486.4725,35.6042)">
		<path id="path8674" class="st3" d="M-425.2,194.3c0,0-1.8,2.8-2.3,4.5c0,0-0.4,0.9,0.1,1.6c0,0,1,1.8,7.1,2.1c0,0,3.6,0.5,7.4-1
			c0,0,3.3-1.3,6.7-4.8C-406.1,196.8-423.4,194.3-425.2,194.3z"/>
	</g>
	<g id="shoes">
		<g id="g8668" transform="translate(486.4725,35.6042)">
			<path id="path8670" d="M-425.2,194.3c0,0-1.8,2.8-2.3,4.5c0,0-0.4,0.9,0.1,1.6c0,0,1,1.8,7.1,2.1c0,0,3.6,0.5,7.4-1
				c0,0,3.3-1.3,6.7-4.8C-406.1,196.8-423.4,194.3-425.2,194.3"/>
		</g>
		<g id="g8676" transform="translate(491.5322,35.4664)">
			<path id="path8678" d="M-405.1,195.2c0,0-1.3,2-1.9,4.7c0,0-0.5,2.3,0.6,3.1c0,0,1.2,1.1,7.7,1c0,0,4.4,0,7.8-1.5
				c0,0,2.7-1.1,6.3-4.7C-384.6,197.9-404.1,194.7-405.1,195.2"/>
		</g>
	</g>
	<g id="g8680" transform="translate(491.5322,35.4664)">
		<path id="path8682" class="st3" d="M-405.1,195.2c0,0-1.3,2-1.9,4.7c0,0-0.5,2.3,0.6,3.1c0,0,1.2,1.1,7.7,1c0,0,4.4,0,7.8-1.5
			c0,0,2.7-1.1,6.3-4.7C-384.6,197.9-404.1,194.7-405.1,195.2z"/>
	</g>
	<g id="g8684" transform="translate(484.0951,46.685)">
		<path id="path8686" class="st0" d="M-434.5,128.4c0,0-0.2,10.7,5.1,18.7c0,0-0.3,13.3,6.7,22.3c0,0,3,4,7.1,5.6
			c0,0-5.4,3.8-8.4,10.5c0,0,1,4,8.9,4.2c0,0,6.7,0.5,10.5-3.1c0,0,3.6-3,5.2-7.2c0,0,1.4-3,0-5.1c0,0-0.6-1-1.9-1.9
			c0,0-2-1.3-2.7-2.5c0,0-0.1-3.2,1.2-6.6c0,0,1.7,4.3,4.1,7.8c0,0,2,3.2,7.3,4.7c0,0-4.6,3.7-6.9,9c0,0,0.5,4.3,5.7,5.3
			c0,0,3.8,1,8.4,0.2c0,0,3.2-0.3,7.2-3.8c0,0,3.8-3.7,5.4-8.8c0,0,1-3.1-0.3-4.9c0,0-0.3-0.8-2.7-2.6c0,0-2.1-1.6-4.4-3.7
			c0,0-0.5-3.2,0.6-7c0,0,5-7.8,5.7-12.7c0,0,1-4.9,0.3-12c0,0-17.2-39.3-21.6-48.5c0,0-11.8-2.9-21.5,1.7c0,0-19.2,18.2-22.8,35.5
			C-438.1,123.6-435.7,127.7-434.5,128.4"/>
	</g>
	<g id="g8688" transform="translate(484.0951,46.685)">
		<path id="path8690" class="st3" d="M-434.5,128.4c0,0-0.2,10.7,5.1,18.7c0,0-0.3,13.3,6.7,22.3c0,0,3,4,7.1,5.6
			c0,0-5.4,3.8-8.4,10.5c0,0,1,4,8.9,4.2c0,0,6.7,0.5,10.5-3.1c0,0,3.6-3,5.2-7.2c0,0,1.4-3,0-5.1c0,0-0.6-1-1.9-1.9
			c0,0-2-1.3-2.7-2.5c0,0-0.1-3.2,1.2-6.6c0,0,1.7,4.3,4.1,7.8c0,0,2,3.2,7.3,4.7c0,0-4.6,3.7-6.9,9c0,0,0.5,4.3,5.7,5.3
			c0,0,3.8,1,8.4,0.2c0,0,3.2-0.3,7.2-3.8c0,0,3.8-3.7,5.4-8.8c0,0,1-3.1-0.3-4.9c0,0-0.3-0.8-2.7-2.6c0,0-2.1-1.6-4.4-3.7
			c0,0-0.5-3.2,0.6-7c0,0,5-7.8,5.7-12.7c0,0,1-4.9,0.3-12c0,0-17.2-39.3-21.6-48.5c0,0-11.8-2.9-21.5,1.7c0,0-19.2,18.2-22.8,35.5
			C-438.1,123.6-435.7,127.7-434.5,128.4L-434.5,128.4z"/>
	</g>
	<g id="g8712" transform="translate(487.575,58.9733)">
		<path id="path8714" class="st3" d="M-420.8,55.2c0,0-10.3-2.1-19.4-14.2c0,0-1.3-7-10.7,1.8c0,0-4.1,3.3-5.7,6.9
			c0,0-1.4,8.9,1.3,11.4c0,0,0.6,0.7,2.2,0.7c0,0,11.3,8.2,22.3,21.6c0,0-9.9,11.2-15.5,23.5c0,0-1.3,2.5-1,4c0,0,0.6,3.8,9.3,6.1
			c0,0,0-4.3,0.2-10.4c0,0,3.5-0.6,4.8-1.8c0,0,0.7-0.6,1.7-3.9c0,0,5.3-14,12.2-22.6C-419.1,78.3-410.9,57.6-420.8,55.2z"/>
	</g>
	<g id="shirt">
		<g id="g8708" transform="translate(487.575,58.9733)">
			<path id="path8710" class="st4" d="M-420.8,55.2c0,0-10.3-2.1-19.4-14.2c0,0-1.3-7-10.7,1.8c0,0-4.1,3.3-5.7,6.9
				c0,0-1.4,8.9,1.3,11.4c0,0,0.6,0.7,2.2,0.7c0,0,11.3,8.2,22.3,21.6c0,0-9.9,11.2-15.5,23.5c0,0-1.3,2.5-1,4c0,0,0.6,3.8,9.3,6.1
				c0,0,0-4.3,0.2-10.4c0,0,3.5-0.6,4.8-1.8c0,0,0.7-0.6,1.7-3.9c0,0,5.3-14,12.2-22.6C-419.1,78.3-410.9,57.6-420.8,55.2"/>
		</g>
		<g id="g8912" transform="translate(494.0391,57.0177)">
			<path id="path8914" class="st4" d="M-395.2,66.9c0,0,2.8-5.5,7.2-6.2c0,0,5.2-0.9,9.8,8.1c0,0,5.8,10.1,8.4,21.2
				c0,0,2.5,8.7-2.2,18.7c0,0-2.6,5.6-8.4,9.1c0,0,1.4,2.9,4.9,4.9c0,0-3.1,4.6-16.3,3.8c0,0-9.5,0-16.7-4.9c0,0-3.1-1.8-4.5-4.6
				c0,0-2.3-3.3-1.7-14.9c0,0,0.6-14.6,7.2-23.4c0,0,6.2-9.1,6.5-10.4C-401.1,68.2-398.5,68-395.2,66.9"/>
		</g>
	</g>
	<g id="g8916" transform="translate(494.0391,57.0177)">
		<path id="path8918" class="st3" d="M-395.2,66.9c0,0,2.8-5.5,7.2-6.2c0,0,5.2-0.9,9.8,8.1c0,0,5.8,10.1,8.4,21.2
			c0,0,2.5,8.7-2.2,18.7c0,0-2.6,5.6-8.4,9.1c0,0,1.4,2.9,4.9,4.9c0,0-3.1,4.6-16.3,3.8c0,0-9.5,0-16.7-4.9c0,0-3.1-1.8-4.5-4.6
			c0,0-2.3-3.3-1.7-14.9c0,0,0.6-14.6,7.2-23.4c0,0,6.2-9.1,6.5-10.4C-401.1,68.2-398.5,68-395.2,66.9z"/>
	</g>
	<g id="g8940" transform="translate(494.144,56.998)">
		<path id="path8942" d="M-394.8,67c0,0-1.9,3.5-3,8.1c0,0-0.5-2.8,1.8-7.9C-396,67.2-394.9,66.4-394.8,67"/>
	</g>
	<g id="g8944" transform="translate(496.9462,46.813)">
		<path id="path8946" d="M-383.7,127.6c0,0-1.2,0.6-1.7,0.4c0,0-5.3-1.1-5.2-32.1c0,0-1.6,27.6,4,32.6c0,0,0.8,0.7,1.5,0.6
			c0,0,0.7,0,1.9-0.6C-383.2,128.5-383.5,127.6-383.7,127.6"/>
	</g>
	<g id="g8952" transform="translate(485.685,53.2442)">
		<path id="path8954" d="M-428.3,89.3c0,0,5-5.6,7.6-7.8c0,0-3,1-8.5,7.3C-429.1,88.8-428.8,89.7-428.3,89.3"/>
	</g>
	<g id="g8956" transform="translate(483.6637,61.3752)">
		<path id="path8958" class="st5" d="M-436.3,40.9c0,0-1.7-2-2.7-3.2c0,0-8.1,3.2-11.7,10.2c0,0-1.2,3.4,0.1,4.5c0,0,0.4,0.4,1,0.5
			c0,0,1.6,2.3,4.3,4.5C-445.2,57.4-437.7,51.3-436.3,40.9"/>
	</g>
	<g id="g8960" transform="translate(483.6637,61.3752)">
		<path id="path8962" class="st6" d="M-436.3,40.9c0,0-1.7-2-2.7-3.2c0,0-8.1,3.2-11.7,10.2c0,0-1.2,3.4,0.1,4.5c0,0,0.4,0.4,1,0.5
			c0,0,1.6,2.3,4.3,4.5C-445.2,57.4-437.7,51.3-436.3,40.9z"/>
	</g>
	<g id="g8964" transform="translate(480.9862,58.9602)">
		<path id="path8966" class="st6" d="M-446.8,55.3c0,0,2.7,0.2,6.6-4.7c0,0,4.2-5,4.9-9.3"/>
	</g>
	<g id="hand" transform="translate(483.3223,61.7757)">
		<path id="path8970" class="st0" d="M-437.6,38.5c0,0-1.1-1.3-1.6-1.9c0,0,0.5-5.4-0.9-11.7c0,0-1.2-6.2-4.7-9c0,0-1.6-1.4-3.9-1
			c0,0-4.4,0.7-7.5,6.4c0,0-1.7,3-2.1,7c0,0-4.6-2.3-8.4-10.5c0,0-1.5,0.4-1.4,4.9c0,0,0,2.1,0.4,3.7c0,0-2.4,0.5-0.3,6.9
			c0,0,2.1,5.9,6.8,7.6c0,0,1.4,0.7,3.5,0.7c0,0,1.2,3.1,3.8,4.6c0,0,1.5,1,3.7,0.8c0,0,1.9,2.5,4.1,4.5
			C-446.4,51.4-440.1,47.4-437.6,38.5"/>
	</g>
	<g id="g8972" transform="translate(483.3223,61.7757)">
		<path id="path8974" class="st6" d="M-437.6,38.5c0,0-1.1-1.3-1.6-1.9c0,0,0.5-5.4-0.9-11.7c0,0-1.2-6.2-4.7-9c0,0-1.6-1.4-3.9-1
			c0,0-4.4,0.7-7.5,6.4c0,0-1.7,3-2.1,7c0,0-4.6-2.3-8.4-10.5c0,0-1.5,0.4-1.4,4.9c0,0,0,2.1,0.4,3.7c0,0-2.4,0.5-0.3,6.9
			c0,0,2.1,5.9,6.8,7.6c0,0,1.4,0.7,3.5,0.7c0,0,1.2,3.1,3.8,4.6c0,0,1.5,1,3.7,0.8c0,0,1.9,2.5,4.1,4.5
			C-446.4,51.4-440.1,47.4-437.6,38.5z"/>
	</g>
	<g id="g8976" transform="translate(481.0584,57.6346)">
		<path id="path8978" class="st3" d="M-446.6,63.2c0,0,2.9,0,7.1-5.5c0,0,3.7-4.2,5.4-10.9c0,0,0.7-2.7,0.4-4.4"/>
	</g>
	<g id="g8980" transform="translate(482.9374,62.1804)">
		<path id="path8982" d="M-439.1,36.1c0,0-0.2,1.3-0.2,2.2c0,0,0.8-0.8,0.8-2C-438.5,36.3-439,36-439.1,36.1"/>
	</g>
	<g id="g8984" transform="translate(479.1094,63.8427)">
		<path id="path8986" class="st6" d="M-454.3,26.2c0,0-0.4,3.1,0.6,5.2c0,0,0.6,1.5,1.8,1.7c0,0,1.4,0.5,2.7-1.8
			c0,0,0.4-0.7,0.6-1.2c0,0,0.7-1.4,1.1-2.1"/>
	</g>
	<g id="g8988" transform="translate(480.4981,63.4093)">
		<path id="path8990" d="M-448.8,28.8c0,0,2.5-4.6,5.8-7.9c0,0-3.3,2-6.5,7.8C-449.4,28.7-449.1,29-448.8,28.8"/>
	</g>
	<g id="g8992" transform="translate(477.1866,64.2299)">
		<path id="path8994" class="st6" d="M-461.9,23.9c0,0,0.8,4.7,3.5,7.7c0,0,3.6,4.1,6.1,2.3c0,0,1-0.8,0.6-2.7"/>
	</g>
	<g id="g8996" transform="translate(479.2012,61.1652)">
		<path id="path8998" class="st6" d="M-453.9,42.2c0,0,4-0.1,4.8-3.2c0,0,0.6-2.3-1.3-3.6"/>
	</g>
	<g id="g9000" transform="translate(480.5269,63.4883)">
		<path id="path9002" d="M-448.7,28.4c0,0-0.8,7.2,4.2,11.2c0,0-4.8-2.3-4.9-10.4C-449.3,29.2-448.8,28.4-448.7,28.4"/>
	</g>
	<g id="g9004" transform="translate(477.3637,66.0542)">
		<path id="path9006" class="st3" d="M-461.2,13.1c0,0,3.2,7.7,8.6,11"/>
	</g>
	<g id="g9032" transform="translate(495.3882,40.4786)">
		<path id="path9034" d="M-389.9,165.3c0,0-1.2,1.7-2.2,3c0,0,0.9,0.1,2.5-1.6C-389.7,166.7-389.7,165.4-389.9,165.3"/>
	</g>
	<g id="g9036" transform="translate(495.2257,38.99)">
		<path id="path9038" d="M-390.5,174.2c0,0,0.3,3,1.1,3.6c0,0,0-1.8-0.1-3.3C-389.5,174.5-390.5,174-390.5,174.2"/>
	</g>
	<g id="g9040" transform="translate(492.9266,37.1711)">
		<path id="path9042" d="M-399.6,185c0,0,2.4,0.7,6,1c0,0-2.2,1-7.3-0.2C-400.8,185.8-399.9,185.1-399.6,185"/>
	</g>
	<g id="g9044" transform="translate(490.6266,39.5959)">
		<path id="path9046" d="M-408.7,170.6c0,0-1.7-4.5-2.1-5.7c0,0-0.4,2.2,1.2,6.3C-409.6,171.1-408.6,170.8-408.7,170.6"/>
	</g>
	<g id="g9048" transform="translate(490.4373,39.8425)">
		<path id="path9050" d="M-409.5,169.1c0,0-4.7,0-10.1-2.5c0,0,3.3,3.2,10.5,3.5C-409.1,170.1-409.3,169.3-409.5,169.1"/>
	</g>
	<g id="g9052" transform="translate(490.1606,38.3075)">
		<path id="path9054" d="M-410.6,178.3c0,0,0,2.7,0.4,3.8c0,0,0.5-0.8,0.6-3C-409.5,179-410.4,178-410.6,178.3"/>
	</g>
	<g id="g9056" transform="translate(488.0245,37.3521)">
		<path id="path9058" d="M-419,183.9c0,0,2,0.9,5.9,0.9c0,0-2.9,1.4-6.9-0.1C-420,184.7-419.3,184.1-419,183.9"/>
	</g>
	<g id="g9060" transform="translate(485.2256,42.9543)">
		<path id="path9062" d="M-430.1,150.6c0,0,3.6,6,7.3,9.5c0,0-3.9-1.9-7.8-8.3C-430.5,151.8-430.3,150.4-430.1,150.6"/>
	</g>
	<g id="g9064" transform="translate(484.1685,48.6044)">
		<path id="path9066" class="st3" d="M-434.3,117c0,0-2.6,0.5-4.1,0.9c0,0-3.5,0.8-4.8,2.2c0,0-1,0.9-0.4,2.3"/>
	</g>
	<g id="g9068" transform="translate(480.7148,60.1347)">
		<path id="path9070" d="M-447.9,48.3c0,0,1-0.1,1.7-0.2c0,0-0.7,0.7-1.7,0.8C-447.9,48.9-448,48.6-447.9,48.3"/>
	</g>
	<g id="head">
		<g id="g8732" transform="translate(485.6259,71.3699)">
			<path id="path8734" class="st0" d="M-428.5-18.6c0,0-1.9-0.4-4.1,0c0,0-0.8-0.6-2.1-1.2c0,0-2.4-1-3.7,0.2c0,0-1.1,0.8-0.3,3.8
				c0,0,1.1,3.7,4,6.3C-434.6-9.6-425.3-16.8-428.5-18.6"/>
		</g>
		<g id="g8736" transform="translate(485.6259,71.3699)">
			<path id="path8738" class="st3" d="M-428.5-18.6c0,0-1.9-0.4-4.1,0c0,0-0.8-0.6-2.1-1.2c0,0-2.4-1-3.7,0.2c0,0-1.1,0.8-0.3,3.8
				c0,0,1.1,3.7,4,6.3C-434.6-9.6-425.3-16.8-428.5-18.6z"/>
		</g>
		<g id="g8740" transform="translate(494.1375,74.5658)">
			<path id="path8742" class="st0" d="M-394.9-37.6c0,0-17.2-4.8-32.5,6.1c0,0-13.1,8.3-19,24.1c0,0-4.6,10.5,0.1,21.2
				c0,0,2.6,7,10.4,13.5c0,0,5.8,4.9,8,7.6c0,0-0.1,2.7-0.7,5.2c0,0-0.7,2.4-0.7,3.6c0,0-0.9,4.7,4,7.2c0,0,9.2,5.1,21.8,0.1
				c0,0,7.9-0.4,17-5.3c0,0,9.7-4.3,12.6-15.1c0,0,1.2-3.6,0.9-10.1c0,0,7.7-8.6,6-24.1c0,0-1-14.4-11.6-23.5c0,0-0.5-6.6-3.6-10.1
				c0,0,1.4-6.5-1.2-7.3c0,0-2.3-1.1-5.7,4C-389.1-40.4-392.2-40.3-394.9-37.6"/>
		</g>
		<g id="g8744" transform="translate(494.1375,74.5658)">
			<path id="path8746" class="st3" d="M-394.9-37.6c0,0-17.2-4.8-32.5,6.1c0,0-13.1,8.3-19,24.1c0,0-4.6,10.5,0.1,21.2
				c0,0,2.6,7,10.4,13.5c0,0,5.8,4.9,8,7.6c0,0-0.1,2.7-0.7,5.2c0,0-0.7,2.4-0.7,3.6c0,0-0.9,4.7,4,7.2c0,0,9.2,5.1,21.8,0.1
				c0,0,7.9-0.4,17-5.3c0,0,9.7-4.3,12.6-15.1c0,0,1.2-3.6,0.9-10.1c0,0,7.7-8.6,6-24.1c0,0-1-14.4-11.6-23.5c0,0-0.5-6.6-3.6-10.1
				c0,0,1.4-6.5-1.2-7.3c0,0-2.3-1.1-5.7,4C-389.1-40.4-392.2-40.3-394.9-37.6z"/>
		</g>
		<g id="g8748" transform="translate(492.4641,56.8011)">
			<path id="path8750" d="M-401.5,68.2c0,0-3.5,0.1-5.7-0.4c0,0,1.8,1.3,4.3,1.4C-402.9,69.2-401.3,68.4-401.5,68.2"/>
		</g>
		<g id="g8752" transform="translate(498.4425,62.8649)">
			<path id="path8754" d="M-377.8,32.1c0,0-0.1-1.8-0.1-2.1c0,0,1,0.4,1,1.8C-376.9,31.8-377.5,32.4-377.8,32.1"/>
		</g>
		<g id="g8756" transform="translate(497.3137,72.433)">
			<path id="path8758" d="M-382.3-24.9c0,0,0.3,3.7,0.1,5.9c0,0,1.1-0.9,0.9-5.5C-381.3-24.5-382.1-25.1-382.3-24.9"/>
		</g>
		<g id="g8760" transform="translate(496.6075,74.4165)">
			<path id="path8762" d="M-385.1-36.7c0,0-0.4-0.3-0.7-0.8c0,0,0.8-0.4,1.3,0.1C-384.5-37.4-384.9-36.6-385.1-36.7"/>
		</g>
		<g id="g8764" transform="translate(495.3823,75.0908)">
			<path id="path8766" d="M-389.9-40.7c0,0-0.5,0.9-0.9,1.4c0,0-0.5-0.6,0-1.6C-390.9-40.9-390.1-40.9-389.9-40.7"/>
		</g>
		<g id="g8768" transform="translate(494.2256,74.5052)">
			<path id="path8770" d="M-394.5-37.2c0,0-3.6,3.5-5.3,7.2c0,0,0.1-2.8,4.4-7.7C-395.4-37.8-394.5-37.8-394.5-37.2"/>
		</g>
		<g id="g8772" transform="translate(496.1456,74.2508)">
			<path id="path8774" d="M-386.9-35.7c0,0-3.4,4.1-4.8,10.5C-391.7-25.3-392.3-31.2-386.9-35.7"/>
		</g>
		<g id="g8776" transform="translate(495.7125,73.6471)">
			<path id="path8778" d="M-388.6-32.1c0,0,2.2,2,1.4,9.1c0,0,1.8-7-1-9.8C-388.2-32.8-388.7-32.3-388.6-32.1"/>
		</g>
		<g id="g8780" transform="translate(484.8056,71.278)">
			<path id="path8782" d="M-431.7-18c0,0-1,0.1-2.1,0.2c0,0,0.3-0.7,1.7-1C-432.2-18.8-431.5-18.2-431.7-18"/>
		</g>
		<g id="g8784" transform="translate(485.4881,67.6621)">
			<path id="path8786" d="M-429,3.5c0,0-2.5-0.6-3,0.6c0,0-0.7,1.1-0.3,4.7c0,0-1.3-3.9-0.2-5.4C-432.5,3.5-431.6,2.2-429,3.5"/>
		</g>
		<g id="g8788" transform="translate(489.8062,70.1624)">
			<path id="path8790" d="M-412-11.4c0,0,0.1-5.3,2.7-5.8c0,0,2.9-0.9,7.1,6.7c0,0-4.7-6.6-7.1-5.8C-409.3-16.3-411.1-16-412-11.4"
				/>
		</g>
		<g id="g8792" transform="translate(490.3837,72.0655)">
			<path id="path8794" d="M-409.7-22.7c0,0,2.5,0.2,3.8,1.4C-405.9-21.3-406.8-23.9-409.7-22.7"/>
		</g>
		<g id="g8796" transform="translate(489.5306,59.9839)">
			<path id="path8798" class="st5" d="M-413.1,49.2c0,0-0.4-6.3-5.1-14.1c0,0-5.7-9.7-10.1-10.9c0,0-2.1-0.1-1.6,4.2
				c0,0,0.6,5.1,3.2,9.8c0,0,1.5,3.1,4.6,6.1c0,0,4,4.4,8.3,6.6C-413.7,50.9-412.8,49.6-413.1,49.2"/>
		</g>
		<g id="g8800" transform="translate(489.5306,59.9839)">
			<path id="path8802" class="st1" d="M-413.1,49.2c0,0-0.4-6.3-5.1-14.1c0,0-5.7-9.7-10.1-10.9c0,0-2.1-0.1-1.6,4.2
				c0,0,0.6,5.1,3.2,9.8c0,0,1.5,3.1,4.6,6.1c0,0,4,4.4,8.3,6.6C-413.7,50.9-412.8,49.6-413.1,49.2z"/>
		</g>
		<g id="g8804" transform="translate(486.6628,65.0371)">
			<path id="path8806" d="M-424.4,19.1c0,0-2.8-1.5-4.3-1.2c0,0,1.2,0.4,2.8,1.3C-425.9,19.3-424.3,19.5-424.4,19.1"/>
		</g>
		<g id="g8808" transform="translate(488.6184,61.6246)">
			<path id="path8810" d="M-416.7,39.4c0,0-1.4,0.9,0.4,4.4c0,0,1.8,3.3,3.6,4.1c0,0,0.4-0.5,0.5-0.8c0,0-0.3-3.5-1.8-7
				C-414,40.1-415.7,38.7-416.7,39.4"/>
		</g>
		<g id="g8812" transform="translate(492.5756,61.3358)">
			<path id="path8814" class="st5" d="M-401,41.2c0,0-4-3-6.4-10.5c0,0-1.8-3.9-1.6-10.7c0,0,0.1-4,1.1-7.1c0,0,1.2-3.7,2.7-3.7
				c0,0,2-0.5,5.2,6.4c0,0,1.4,2.6,2.3,6c0,0,1.5,3.7,1.6,14.9C-396.2,36.7-398.8,38.4-401,41.2"/>
		</g>
		<g id="g8816" transform="translate(492.5756,61.3358)">
			<path id="path8818" class="st1" d="M-401,41.2c0,0-4-3-6.4-10.5c0,0-1.8-3.9-1.6-10.7c0,0,0.1-4,1.1-7.1c0,0,1.2-3.7,2.7-3.7
				c0,0,2-0.5,5.2,6.4c0,0,1.4,2.6,2.3,6c0,0,1.5,3.7,1.6,14.9C-396.2,36.7-398.8,38.4-401,41.2z"/>
		</g>
		<g id="g8820" transform="translate(492.615,61.2702)">
			<path id="path8822" d="M-400.9,41.6c0,0-1,1.3-1.5,1.9c0,0-0.2-0.8,1-2.4C-401.4,41-400.9,41.3-400.9,41.6"/>
		</g>
		<g id="g8824" transform="translate(493.6125,62.1889)">
			<path id="path8826" d="M-396.9,36.1c0,0,2.6-2,4.9-3.5c0,0-2.3,0.6-5.3,2.8C-397.3,35.4-397.3,36-396.9,36.1"/>
		</g>
		<g id="g8828" transform="translate(492.8119,64.0199)">
			<path id="path8830" d="M-400.1,25.2c0,0-2,0.6-0.4,5.4c0,0,1,3,2.8,4.4c0,0,1.2-0.7,1.3-1c0,0,0-2.6-0.2-5.2
				C-396.6,28.8-398,24.6-400.1,25.2"/>
		</g>
		<g id="g8832" transform="translate(489.9966,60.9158)">
			<path id="path8834" class="st0" d="M-411.2,43.7c0,0-1.8,0.3-3.3,3.8c0,0-1.2,2.8-1.1,5.2c0,0,0,1.5,0.8,1.9c0,0,1.5,0.9,5.9,0.1
				c0,0,3.7-0.7,5.9-2.7c0,0,1.3-1.1,1.1-2.1c0,0,0.2-1.2-2.2-3.1c0,0-2-1.6-4.2-2.6C-408.3,44.2-410,43.3-411.2,43.7"/>
		</g>
		<g id="g8836" transform="translate(489.9966,60.9158)">
			<path id="path8838" class="st6" d="M-411.2,43.7c0,0-1.8,0.3-3.3,3.8c0,0-1.2,2.8-1.1,5.2c0,0,0,1.5,0.8,1.9c0,0,1.5,0.9,5.9,0.1
				c0,0,3.7-0.7,5.9-2.7c0,0,1.3-1.1,1.1-2.1c0,0,0.2-1.2-2.2-3.1c0,0-2-1.6-4.2-2.6C-408.3,44.2-410,43.3-411.2,43.7z"/>
		</g>
		<g id="g8840" transform="translate(490.3509,60.8961)">
			<path id="path8842" d="M-409.8,43.8c0,0,1.7-0.6,3.2-1.8c0,0-0.2,1.3-2.2,2.3C-408.8,44.2-409.7,43.8-409.8,43.8"/>
		</g>
		<g id="g8844" transform="translate(489.6947,58.6058)">
			<path id="path8846" d="M-412.4,57.4c0,0-0.9,1.6-3.8,2.9c0,0,3.2-0.2,4.9-2.9C-411.4,57.4-412.2,57.1-412.4,57.4"/>
		</g>
		<g id="g8848" transform="translate(491.0197,58.5624)">
			<path id="path8850" class="st7" d="M-407.2,57.7c0,0,7.8-0.5,10.3-7.2c0,0,2.8,0.3,6.3-0.5c0,0-2.3,14.5-13.1,13.6
				C-403.6,63.4-404.6,60.4-407.2,57.7"/>
		</g>
		<g id="g8852" transform="translate(491.0197,58.5624)">
			<path id="path8854" class="st1" d="M-407.2,57.7c0,0,7.8-0.5,10.3-7.2c0,0,2.8,0.3,6.3-0.5c0,0-2.3,14.5-13.1,13.6
				C-403.6,63.4-404.6,60.4-407.2,57.7z"/>
		</g>
		<g id="g8856" transform="translate(491.0353,58.5644)">
			<path id="path8858" class="st1" d="M-407.1,57.7c0,0-3.6,0.3-5.5-0.2"/>
		</g>
		<g id="g8860" transform="translate(491.7422,57.3261)">
			<path id="path8862" d="M-404.3,65c0,0-1.2-0.1-1.7-0.3c0,0,0.5-0.3,1.6-0.4C-404.4,64.4-404.2,64.8-404.3,65"/>
		</g>
		<g id="g8864" transform="translate(494.2622,59.6296)">
			<path id="path8866" class="st8" d="M-394.4,51.3c0,0-1.7,0-3.3,1.7c0,0-2.2-0.7-4.4,2.4c0,0-2.6,3.5-1.8,6.8
				C-403.9,62.2-397.4,61.7-394.4,51.3"/>
		</g>
		<g id="g8868" transform="translate(494.2622,59.6296)">
			<path id="path8870" class="st1" d="M-394.4,51.3c0,0-1.7,0-3.3,1.7c0,0-2.2-0.7-4.4,2.4c0,0-2.6,3.5-1.8,6.8
				C-403.9,62.2-397.4,61.7-394.4,51.3z"/>
		</g>
		<g id="g8872" transform="translate(493.6125,59.2096)">
			<path id="path8874" d="M-396.9,53.8c0,0-1.5,1.7-2.6,4.2c0,0,0-2.1,2.1-4.6C-397.4,53.4-396.8,53.6-396.9,53.8"/>
		</g>
		<g id="g8876" transform="translate(493.0875,60.0955)">
			<path id="path8878" d="M-399,48.5c0,0-1-0.1-1.9-0.4c0,0,0.3,0.9,1.9,1.1C-399,49.3-398.9,48.7-399,48.5"/>
		</g>
		<g id="g8880" transform="translate(494.3934,60.2071)">
			<path id="path8882" d="M-393.8,47.9c0,0,2.7-0.6,5.4-2.2c0,0-1.6,2.1-5.3,3C-393.8,48.6-394,48.1-393.8,47.9"/>
		</g>
		<g id="g8884" transform="translate(489.8259,59.6624)">
			<path id="path8886" class="st0" d="M-411.9,51.1c0,0,0.5,0.6,0.7,1.3c0,0,0.6,2-0.5,2c0,0-0.7,0.1-0.7-1.4
				C-412.3,52.9-412.4,51.7-411.9,51.1"/>
		</g>
		<g id="g8888" transform="translate(489.8259,59.6624)">
			<path id="path8890" class="st9" d="M-411.9,51.1c0,0,0.5,0.6,0.7,1.3c0,0,0.6,2-0.5,2c0,0-0.7,0.1-0.7-1.4
				C-412.3,52.9-412.4,51.7-411.9,51.1z"/>
		</g>
		<g id="g8892" transform="translate(489.8587,59.6804)">
			<path id="path8894" d="M-411.8,51c0,0-0.4-0.7-1.4-1c0,0,0.6,0.6,1.2,1.4C-412,51.4-411.7,51.1-411.8,51"/>
		</g>
		<g id="g8896" transform="translate(490.7119,60.043)">
			<path id="path8898" class="st0" d="M-408.4,48.9c0,0,0.9,0.6,1.3,1.8c0,0,0.6,1.6-0.5,1.7c0,0-0.8,0-1.1-1.3
				C-408.6,51-408.8,49.7-408.4,48.9"/>
		</g>
		<g id="g8900" transform="translate(490.7119,60.043)">
			<path id="path8902" class="st9" d="M-408.4,48.9c0,0,0.9,0.6,1.3,1.8c0,0,0.6,1.6-0.5,1.7c0,0-0.8,0-1.1-1.3
				C-408.6,51-408.8,49.7-408.4,48.9z"/>
		</g>
		<g id="g8904" transform="translate(490.7611,60.0545)">
			<path id="path8906" d="M-408.2,48.8c0,0-0.8-0.8-1.7-1c0,0,0.8,0.6,1.5,1.3C-408.4,49.1-408.1,48.9-408.2,48.8"/>
		</g>
		<g id="g8936" transform="translate(491.2303,56.3418)">
			<path id="path8938" class="st3" d="M-406.3,70.9c0,0,3-0.5,5.8-1.7c0,0,2.8-0.2,5.8-1"/>
		</g>
		<g id="g8948" transform="translate(487.5684,59.9839)">
			<path id="path8950" d="M-420.8,49.2c0,0,1.4,1.2,1.7,3.2c0,0-1.1-1.1-2.1-2.1C-421.2,50.3-421,49.1-420.8,49.2"/>
		</g>
		<g id="g9072" transform="translate(492.1556,67.6161)">
			<path id="path9074" d="M-402.7,3.8c0,0-1.9-2.3-3.8-2.6c0,0,1.6,1.4,2,1.9C-404.5,3.1-402.7,3.9-402.7,3.8"/>
		</g>
	</g>
	<g id="hat">
		<g id="g8692" transform="translate(481.1113,81.9178)">
			<path id="path8694" class="st4" d="M-446.3-81.4c0,0-13.7-0.8-24.9,11.1c0,0-6.8,6.5-8.5,14c0,0-2.1,6,0.6,15.6
				c0,0,3.1,11.3,12.8,17.9c0,0,16.8-27.4,15.8-39.1C-450.6-61.9-445.6-80.3-446.3-81.4"/>
		</g>
		<g id="g8696" transform="translate(481.1113,81.9178)">
			<path id="path8698" class="st3" d="M-446.3-81.4c0,0-13.7-0.8-24.9,11.1c0,0-6.8,6.5-8.5,14c0,0-2.1,6,0.6,15.6
				c0,0,3.1,11.3,12.8,17.9c0,0,16.8-27.4,15.8-39.1C-450.6-61.9-445.6-80.3-446.3-81.4z"/>
		</g>
		<g id="g8700" transform="translate(481.8131,66.1658)">
			<path id="path8702" class="st4" d="M-443.6,12.4c0,0,6.6-14.5-2.7-27.8c0,0-18-4.7-21.3,0.1c0,0-1.7,9.5-0.6,18.9
				c0,0,0.6,8.5,6.7,16.1c0,0,3.2,4.2,6,4.7C-455.5,24.4-443.4,13.1-443.6,12.4"/>
		</g>
		<g id="g8704" transform="translate(481.8131,66.1658)">
			<path id="path8706" class="st3" d="M-443.6,12.4c0,0,6.6-14.5-2.7-27.8c0,0-18-4.7-21.3,0.1c0,0-1.7,9.5-0.6,18.9
				c0,0,0.6,8.5,6.7,16.1c0,0,3.2,4.2,6,4.7C-455.5,24.4-443.4,13.1-443.6,12.4z"/>
		</g>
		<g id="g9008" transform="translate(478.274,69.3124)">
			<path id="path9010" class="st4" d="M-457.6-6.3c7.2,1.7,16.4-10.8,20.5-28c4.1-17.2,1.5-32.4-5.6-34.3
				c-7.2-1.9-16.4,10.8-20.5,28C-467.3-23.4-464.8-8-457.6-6.3"/>
		</g>
		<g id="g9012" transform="translate(478.274,69.3124)">
			<path id="path9014" class="st3" d="M-457.6-6.3c7.2,1.7,16.4-10.8,20.5-28c4.1-17.2,1.5-32.4-5.6-34.3
				c-7.2-1.9-16.4,10.8-20.5,28C-467.3-23.4-464.8-8-457.6-6.3z"/>
		</g>
		<g id="g9016" transform="translate(474.2137,75.7077)">
			<path id="path9018" class="st1" d="M-473.6-44.4c0,0,2,8.1,12.5,13.7"/>
		</g>
		<g id="g9020" transform="translate(476.865,74.8414)">
			<path id="path9022" class="st1" d="M-463.1-39.2c0,0,3.6,13.3,20.2,17.7"/>
		</g>
		<g id="g9024" transform="translate(477.8494,78.4246)">
			<path id="path9026" class="st1" d="M-459.2-60.6c0,0,8.9-7.7,23.9-6.4"/>
		</g>
		<g id="g9028" transform="translate(478.8337,80.2883)">
			<path id="path9030" class="st1" d="M-455.3-71.7c0,0-13.7,2.1-21.1,13.8"/>
		</g>
	</g>
	<g id="bowtie">
		<g id="g8716" transform="translate(488.2838,56.6896)">
			<path id="path8718" class="st10" d="M-418,68.8c0,0-1.6,0.6-2.3,4.9c0,0-0.9,4.4-0.5,9.8c0,0,0.1,1.8,0.8,1.9
				c0,0,0.8,0.5,2.5-1.5c0,0,5.3-5.4,7.9-7.3c0,0,1.9-7.1-0.8-7.7L-418,68.8z"/>
		</g>
		<g id="g8720" transform="translate(488.2838,56.6896)">
			<path id="path8722" class="st6" d="M-418,68.8c0,0-1.6,0.6-2.3,4.9c0,0-0.9,4.4-0.5,9.8c0,0,0.1,1.8,0.8,1.9c0,0,0.8,0.5,2.5-1.5
				c0,0,5.3-5.4,7.9-7.3c0,0,1.9-7.1-0.8-7.7L-418,68.8z"/>
		</g>
		<g id="g8724" transform="translate(489.8784,56.3089)">
			<path id="path8726" class="st10" d="M-411.7,71.1c0,0-0.7,1.2-0.6,3.8c0,0,0,2.4,0.9,3.1c0,0,1.5,1.7,4.7,0.8c0,0,0-4.6,2.2-8.4
				C-404.5,70.3-410.7,69.8-411.7,71.1"/>
		</g>
		<g id="g8920" transform="translate(493.1203,56.7946)">
			<path id="path8922" class="st10" d="M-398.9,68.2c0,0,2,5.3,0.2,13.8c0,0-0.7,3.4-2.1,5.6c0,0-0.4,0.8-1.2,0.5c0,0-0.6,0-1.4-1.6
				c0,0-1.7-3.2-3.2-5.3c0,0-1.5-2.5-3.4-3.1c0,0-0.3-3.5,1.9-7.8c0,0,3-0.5,5.6-1.7C-402.4,68.7-400.6,68.7-398.9,68.2"/>
		</g>
		<g id="g8728" transform="translate(489.8784,56.3089)">
			<path id="path8730" class="st6" d="M-411.7,71.1c0,0-0.7,1.2-0.6,3.8c0,0,0,2.4,0.9,3.1c0,0,1.5,1.7,4.7,0.8c0,0,0-4.6,2.2-8.4
				C-404.5,70.3-410.7,69.8-411.7,71.1z"/>
		</g>
		<g id="g8924" transform="translate(493.1203,56.7946)">
			<path id="path8926" class="st6" d="M-398.9,68.2c0,0,2,5.3,0.2,13.8c0,0-0.7,3.4-2.1,5.6c0,0-0.4,0.8-1.2,0.5c0,0-0.6,0-1.4-1.6
				c0,0-1.7-3.2-3.2-5.3c0,0-1.5-2.5-3.4-3.1c0,0-0.3-3.5,1.9-7.8c0,0,3-0.5,5.6-1.7C-402.4,68.7-400.6,68.7-398.9,68.2z"/>
		</g>
		<g id="g8908" transform="translate(489.7603,55.528)">
			<path id="path8910" d="M-412.2,75.7c0,0-2.5,0-4.5,1.4c0,0,1-1.8,4.5-2.2C-412.2,75-412.1,75.6-412.2,75.7"/>
		</g>
		<g id="g8928" transform="translate(491.0991,55.9546)">
			<path id="path8930" d="M-406.9,73.2c0,0,2.7-0.4,4.9-0.4c0,0-1-0.8-4.6-0.4C-406.5,72.4-406.9,73.1-406.9,73.2"/>
		</g>
		<g id="g8932" transform="translate(491.0137,55.6199)">
			<path id="path8934" d="M-407.2,75.2c0,0,2.7,0,4.1,1.2c0,0-2.4-0.4-4.4-0.5C-407.5,75.9-407.4,75.3-407.2,75.2"/>
		</g>
	</g>
</g>
<g id="Layer_2">
</g>
</svg>
