<?xml version="1.0" encoding="utf-8"?>
<!-- Generator: Adobe Illustrator 16.0.0, SVG Export Plug-In . SVG Version: 6.00 Build 0)  -->
<!DOCTYPE svg PUBLIC "-//W3C//DTD SVG 1.1//EN" "http://www.w3.org/Graphics/SVG/1.1/DTD/svg11.dtd">
<svg version="1.1" id="Layer_1" xmlns="http://www.w3.org/2000/svg" xmlns:xlink="http://www.w3.org/1999/xlink" x="0px" y="0px"
	 width="775.818px" height="685.311px" viewBox="0 0 775.818 685.311" enable-background="new 0 0 775.818 685.311"
	 xml:space="preserve">
<g>
	<g>
		<g enable-background="new    ">
			<defs>
				<polygon id="SVGID_1_" enable-background="new    " points="63.182,285.594 6.796,28.337 293.187,98.629 469.672,307.029 				
					"/>
			</defs>
			<clipPath id="SVGID_2_">
				<use xlink:href="#SVGID_1_"  overflow="visible"/>
			</clipPath>
			<g clip-path="url(#SVGID_2_)">
				<g>
					<g>
						<g>
							<path fill="#FFF422" d="M167.423,67.761c-19.81-4.862-38.258-7.574-54.854-8.233c-17.461-0.694-33.123,0.874-46.169,4.694
								c-13.908,4.073-24.97,10.744-31.962,20.027c-7.516,9.978-10.346,22.996-6.848,38.954
								c3.761,17.159,14.385,35.768,30.801,54.596c17.25,19.783,40.388,39.229,67.537,56.795
								c27.65,17.889,58.504,33.208,90.083,44.477c31.024,11.071,61.628,17.832,89.392,19.296
								c26.333,1.389,46.937-2.169,61.667-9.346c13.757-6.702,22.246-16.492,25.723-28.28c3.237-10.979,2.125-23.687-3.084-37.368
								c-4.88-12.818-13.388-26.577-25.435-40.803c-11.417-13.481-25.154-26.36-40.215-38.249
								c-14.597-11.522-30.736-22.35-47.606-32.086c-16.691-9.634-34.44-18.396-52.539-25.857
								C205.625,78.838,186.58,72.463,167.423,67.761"/>
						</g>
					</g>
				</g>
			</g>
		</g>
	</g>
</g>
<g>
	<g>
		<g enable-background="new    ">
			<defs>
				
					<rect id="SVGID_3_" x="453.012" y="64.314" transform="matrix(0.5 0.866 -0.866 0.5 458.4185 -407.3791)" enable-background="new    " width="257.993" height="257.994"/>
			</defs>
			<clipPath id="SVGID_5_">
				<use xlink:href="#SVGID_3_"  overflow="visible"/>
			</clipPath>
			<g clip-path="url(#SVGID_5_)">
				<g>
					<g>
						<g>
							<path fill="#2E74FF" d="M610.691,27.799L424.33,135.394c-2.558,1.477-4.696,3.403-6.373,5.621
								c-1.676,2.218-2.89,4.728-3.599,7.373s-0.914,5.425-0.571,8.185c0.342,2.759,1.231,5.498,2.709,8.058l107.596,186.36
								c1.477,2.558,3.403,4.696,5.621,6.372c2.219,1.676,4.729,2.889,7.374,3.598c2.646,0.709,5.427,0.913,8.186,0.571
								c2.759-0.343,5.496-1.23,8.055-2.708l186.36-107.595c2.561-1.479,4.7-3.405,6.376-5.624c1.676-2.219,2.889-4.729,3.598-7.374
								c0.708-2.645,0.911-5.425,0.568-8.184c-0.342-2.758-1.231-5.495-2.709-8.054L639.926,35.633
								c-1.478-2.561-3.404-4.7-5.622-6.376s-4.728-2.89-7.372-3.599s-5.425-0.913-8.184-0.57S613.251,26.32,610.691,27.799"/>
						</g>
					</g>
				</g>
			</g>
		</g>
	</g>
</g>
<g>
	<g>
		<g enable-background="new    ">
			<defs>
				<polygon id="SVGID_4_" enable-background="new    " points="320.662,615.879 281.787,382.501 482.028,382.501 443.153,615.879 
									"/>
			</defs>
			<clipPath id="SVGID_6_">
				<use xlink:href="#SVGID_4_"  overflow="visible"/>
			</clipPath>
			<g clip-path="url(#SVGID_6_)">
				<g>
					<g>
						<g>
							<path fill="#54FF24" d="M455.684,382.501h-147.54c-3.641,0-7.023,0.623-10.017,1.748c-2.981,1.12-5.565,2.734-7.628,4.717
								c-2.048,1.97-3.576,4.298-4.467,6.862c-0.884,2.542-1.14,5.312-0.661,8.191l33.868,203.317
								c0.2,1.203,0.849,2.342,1.846,3.371c0.992,1.024,2.331,1.942,3.92,2.709c1.583,0.765,3.418,1.38,5.411,1.805
								c1.99,0.424,4.143,0.657,6.369,0.657h90.253c2.225,0,4.375-0.233,6.364-0.657c1.992-0.425,3.826-1.04,5.409-1.805
								c1.589-0.767,2.927-1.685,3.919-2.709c0.997-1.029,1.646-2.168,1.846-3.371l33.868-203.317
								c0.479-2.88,0.223-5.649-0.66-8.191c-0.892-2.564-2.419-4.893-4.467-6.862c-2.061-1.982-4.645-3.597-7.624-4.717
								C462.702,383.124,459.321,382.501,455.684,382.501"/>
						</g>
					</g>
				</g>
			</g>
		</g>
	</g>
</g>
<g>
	<g>
		<g enable-background="new    ">
			<defs>
				<polygon id="SVGID_7_" enable-background="new    " points="-21.142,372.022 193.373,418.77 260.044,542.762 76.742,599.065 
									"/>
			</defs>
			<clipPath id="SVGID_8_">
				<use xlink:href="#SVGID_7_"  overflow="visible"/>
			</clipPath>
			<g clip-path="url(#SVGID_8_)">
				<g>
					<g>
						<g>
							<path fill="#FF280B" d="M257.388,543.577L85.802,596.146c-1.451,0.445-2.832,0.643-4.12,0.612
								c-1.295-0.03-2.495-0.291-3.578-0.761c-1.086-0.472-2.052-1.152-2.877-2.02c-0.826-0.868-1.509-1.922-2.03-3.136
								c-0.323-0.752-0.582-1.565-0.774-2.433c-0.192-0.866-0.317-1.787-0.37-2.755c-0.053-0.966-0.035-1.978,0.059-3.03
								c0.093-1.049,0.261-2.138,0.508-3.259l38.28-174.573c0.142-0.642,0.374-1.179,0.684-1.613c0.31-0.433,0.697-0.764,1.15-0.997
								c0.452-0.231,0.97-0.365,1.543-0.404c0.571-0.039,1.195,0.016,1.864,0.161c0.674,0.147,1.393,0.387,2.144,0.715
								c0.749,0.328,1.53,0.744,2.334,1.246c0.801,0.501,1.625,1.087,2.461,1.756c0.833,0.667,1.679,1.417,2.527,2.247
								l128.099,125.503c0.465,0.455,0.9,0.908,1.304,1.355s0.777,0.89,1.118,1.324c0.341,0.434,0.651,0.859,0.928,1.273
								c0.277,0.415,0.522,0.819,0.733,1.209c0.341,0.629,0.595,1.222,0.758,1.766c0.163,0.546,0.234,1.042,0.209,1.477
								c-0.025,0.437-0.148,0.811-0.374,1.109C258.156,543.219,257.827,543.442,257.388,543.577"/>
						</g>
					</g>
				</g>
			</g>
		</g>
	</g>
</g>
</svg>
