<?xml version="1.0" encoding="utf-8"?>
<!-- Generator: Adobe Illustrator 16.0.0, SVG Export Plug-In . SVG Version: 6.00 Build 0)  -->
<!DOCTYPE svg PUBLIC "-//W3C//DTD SVG 1.1//EN" "http://www.w3.org/Graphics/SVG/1.1/DTD/svg11.dtd">
<svg version="1.1" id="Layer_1" xmlns="http://www.w3.org/2000/svg" xmlns:xlink="http://www.w3.org/1999/xlink" x="0px" y="0px"
	 width="775.818px" height="685.311px" viewBox="0 0 775.818 685.311" enable-background="new 0 0 775.818 685.311"
	 xml:space="preserve">
<circle fill="#FFF422" cx="571.271" cy="148.271" r="99.862"/>
<path fill="#2E74FF" d="M687.405,440.862c9.613,4.906,13.43,16.677,8.523,26.291L606.623,642.15
	c-4.906,9.614-16.677,13.431-26.291,8.524l-174.996-89.306c-9.614-4.905-13.431-16.677-8.524-26.291l89.305-174.996
	c4.907-9.614,16.678-13.432,26.293-8.524L687.405,440.862L687.405,440.862z"/>
<path fill="#54FF24" d="M202.129,651.979c-9.854,11.108-26.845,12.124-37.952,2.27L51.555,554.336
	c-11.108-9.853-12.124-26.845-2.269-37.953l269.41-303.676c9.853-11.107,26.844-12.125,37.952-2.27L469.27,310.35
	c11.107,9.854,12.123,26.845,2.27,37.954L202.129,651.979z"/>
<g>
	<path fill="#FF280B" d="M62.932,420.722c-11.128,11.125-20.42,7.354-20.42-8.381V59.721c0-15.735,13.253-29.191,28.989-29.191
		h352.619c15.735,0,19.413,9.393,8.284,20.52L62.932,420.722z"/>
	<path fill="#FF280B" d="M62.932,420.722c-11.128,11.125-20.42,7.354-20.42-8.381V59.721c0-15.735,13.253-29.191,28.989-29.191
		h352.619c15.735,0,19.413,9.393,8.284,20.52L62.932,420.722z"/>
</g>
</svg>
